  0
SECTION
  2
HEADER
  9
$ACADVER
  1
AC1006
  9
$EXTMIN
 10
0.000000
 20
0.000000
 30
0.000000
  9
$EXTMAX
 10
1280.000000
 20
720.000000
 30
0.000000
  0
ENDSEC
  0
SECTION
  2
ENTITIES
  0
POLYLINE
  8
0
 66
1
 70
1
  0
VERTEX
  8
0
 10
0.000000
 20
360.000000
 42
0.000000
  0
VERTEX
  8
0
 10
0.000000
 20
0.000000
 42
0.000000
  0
VERTEX
  8
0
 10
640.000000
 20
0.000000
 42
0.000000
  0
VERTEX
  8
0
 10
1280.000000
 20
0.000000
 42
0.000000
  0
VERTEX
  8
0
 10
1280.000000
 20
360.000000
 42
0.000000
  0
VERTEX
  8
0
 10
1280.000000
 20
720.000000
 42
0.000000
  0
VERTEX
  8
0
 10
640.000000
 20
720.000000
 42
0.000000
  0
VERTEX
  8
0
 10
0.000000
 20
720.000000
 42
0.000000
  0
SEQEND
  0
POLYLINE
  8
0
 66
1
 70
1
  0
VERTEX
  8
0
 10
1171.545455
 20
692.545455
 42
-0.048637
  0
VERTEX
  8
0
 10
1173.270882
 20
690.447200
 42
-0.133493
  0
VERTEX
  8
0
 10
1173.879021
 20
688.645842
 42
-0.147842
  0
VERTEX
  8
0
 10
1173.464454
 20
686.901916
 42
-0.064703
  0
VERTEX
  8
0
 10
1172.000000
 20
685.000000
 42
-0.116299
  0
VERTEX
  8
0
 10
1169.356617
 20
683.365331
 42
-0.152037
  0
VERTEX
  8
0
 10
1166.531309
 20
683.307354
 42
-0.146317
  0
VERTEX
  8
0
 10
1164.094609
 20
684.875460
 42
-0.105336
  0
VERTEX
  8
0
 10
1162.538872
 20
687.733351
 42
-0.076462
  0
VERTEX
  8
0
 10
1162.376827
 20
688.917649
 42
-0.089087
  0
VERTEX
  8
0
 10
1162.595943
 20
690.030864
 42
-0.071436
  0
VERTEX
  8
0
 10
1163.245115
 20
691.178781
 42
-0.032033
  0
VERTEX
  8
0
 10
1164.392442
 20
692.483351
 42
-0.033197
  0
VERTEX
  8
0
 10
1166.506706
 20
694.334072
 42
-0.162399
  0
VERTEX
  8
0
 10
1167.989165
 20
694.842960
 42
-0.165307
  0
VERTEX
  8
0
 10
1169.464901
 20
694.355604
 42
-0.034708
  0
SEQEND
  0
POLYLINE
  8
0
 66
1
 70
1
  0
VERTEX
  8
0
 10
424.853047
 20
423.575992
 42
-0.070141
  0
VERTEX
  8
0
 10
428.098495
 20
421.272227
 42
-0.084418
  0
VERTEX
  8
0
 10
430.344998
 20
418.286250
 42
-0.080502
  0
VERTEX
  8
0
 10
431.547622
 20
414.606907
 42
-0.057310
  0
VERTEX
  8
0
 10
431.724681
 20
410.265497
 42
-0.086680
  0
VERTEX
  8
0
 10
430.323847
 20
404.701937
 42
-0.133671
  0
VERTEX
  8
0
 10
427.202374
 20
400.883881
 42
-0.109269
  0
VERTEX
  8
0
 10
422.054527
 20
398.695257
 42
-0.046114
  0
VERTEX
  8
0
 10
414.532119
 20
398.000000
 42
0.000000
  0
VERTEX
  8
0
 10
408.000000
 20
398.000000
 42
0.000000
  0
VERTEX
  8
0
 10
408.000000
 20
387.000000
 42
0.000000
  0
VERTEX
  8
0
 10
408.000000
 20
376.000000
 42
0.000000
  0
VERTEX
  8
0
 10
404.500000
 20
376.000000
 42
0.000000
  0
VERTEX
  8
0
 10
401.000000
 20
376.000000
 42
0.000000
  0
VERTEX
  8
0
 10
401.000000
 20
400.333333
 42
-0.002683
  0
VERTEX
  8
0
 10
401.050332
 20
409.711769
 42
-0.004285
  0
VERTEX
  8
0
 10
401.205016
 20
417.723766
 42
-0.001039
  0
VERTEX
  8
0
 10
401.414336
 20
424.709807
 42
-0.190601
  0
VERTEX
  8
0
 10
401.697927
 20
425.364594
 42
-0.211019
  0
VERTEX
  8
0
 10
403.791591
 20
426.175353
 42
-0.007654
  0
VERTEX
  8
0
 10
412.531041
 20
425.634719
 42
-0.012013
  0
VERTEX
  8
0
 10
420.987960
 20
424.776666
 42
-0.088255
  0
SEQEND
  0
POLYLINE
  8
0
 66
1
 70
1
  0
VERTEX
  8
0
 10
445.998013
 20
404.250000
 42
0.000000
  0
VERTEX
  8
0
 10
446.000000
 20
383.000000
 42
0.000000
  0
VERTEX
  8
0
 10
457.000000
 20
383.000000
 42
0.000000
  0
VERTEX
  8
0
 10
468.000000
 20
383.000000
 42
0.000000
  0
VERTEX
  8
0
 10
468.000000
 20
379.500000
 42
0.000000
  0
VERTEX
  8
0
 10
468.000000
 20
376.000000
 42
0.000000
  0
VERTEX
  8
0
 10
453.500000
 20
376.000000
 42
0.000000
  0
VERTEX
  8
0
 10
439.000000
 20
376.000000
 42
0.000000
  0
VERTEX
  8
0
 10
439.000000
 20
400.333333
 42
-0.002373
  0
VERTEX
  8
0
 10
439.044493
 20
409.706215
 42
-0.003810
  0
VERTEX
  8
0
 10
439.181306
 20
417.700056
 42
-0.000823
  0
VERTEX
  8
0
 10
439.366017
 20
424.700689
 42
-0.191639
  0
VERTEX
  8
0
 10
439.617213
 20
425.283880
 42
-0.141790
  0
VERTEX
  8
0
 10
440.030073
 20
425.511412
 42
-0.025865
  0
VERTEX
  8
0
 10
440.899355
 20
425.660876
 42
-0.025993
  0
VERTEX
  8
0
 10
441.967032
 20
425.732070
 42
-0.021031
  0
VERTEX
  8
0
 10
443.115226
 20
425.700547
 42
0.000000
  0
VERTEX
  8
0
 10
445.996025
 20
425.500000
 42
0.000000
  0
SEQEND
  0
POLYLINE
  8
0
 66
1
 70
1
  0
VERTEX
  8
0
 10
503.273142
 20
406.750000
 42
-0.000124
  0
VERTEX
  8
0
 10
506.758649
 20
398.958421
 42
-0.000140
  0
VERTEX
  8
0
 10
510.105752
 20
391.465625
 42
-0.000128
  0
VERTEX
  8
0
 10
512.950670
 20
385.087861
 42
-0.000757
  0
VERTEX
  8
0
 10
514.432504
 20
381.750000
 42
0.000000
  0
VERTEX
  8
0
 10
516.974780
 20
376.000000
 42
0.000000
  0
VERTEX
  8
0
 10
513.237390
 20
376.012341
 42
-0.046774
  0
VERTEX
  8
0
 10
510.908352
 20
376.238454
 42
-0.157397
  0
VERTEX
  8
0
 10
509.583181
 20
376.966693
 42
-0.081008
  0
VERTEX
  8
0
 10
508.467891
 20
378.616626
 42
-0.007036
  0
VERTEX
  8
0
 10
506.400619
 20
383.262341
 42
0.000000
  0
VERTEX
  8
0
 10
503.301238
 20
390.500000
 42
0.000000
  0
VERTEX
  8
0
 10
492.803791
 20
390.782278
 42
0.000000
  0
VERTEX
  8
0
 10
482.306344
 20
391.064556
 42
0.000000
  0
VERTEX
  8
0
 10
479.253346
 20
383.782278
 42
-0.007838
  0
VERTEX
  8
0
 10
477.275927
 20
379.265467
 42
-0.072933
  0
VERTEX
  8
0
 10
476.123232
 20
377.482597
 42
-0.138806
  0
VERTEX
  8
0
 10
474.788329
 20
376.616758
 42
-0.053440
  0
VERTEX
  8
0
 10
472.600174
 20
376.189635
 42
-0.012712
  0
VERTEX
  8
0
 10
471.219768
 20
376.105917
 42
-0.021299
  0
VERTEX
  8
0
 10
470.057551
 20
376.114566
 42
-0.016954
  0
VERTEX
  8
0
 10
469.159781
 20
376.190100
 42
-0.380105
  0
VERTEX
  8
0
 10
469.000000
 20
376.369914
 42
-0.099655
  0
VERTEX
  8
0
 10
469.076080
 20
376.747838
 42
-0.000150
  0
VERTEX
  8
0
 10
471.816437
 20
383.272849
 42
-0.001210
  0
VERTEX
  8
0
 10
474.912037
 20
390.587923
 42
-0.000746
  0
VERTEX
  8
0
 10
478.587871
 20
399.180279
 42
0.000278
  0
VERTEX
  8
0
 10
482.325851
 20
407.895348
 42
0.000402
  0
VERTEX
  8
0
 10
485.619972
 20
415.604519
 42
0.000205
  0
VERTEX
  8
0
 10
488.407135
 20
422.149257
 42
0.006633
  0
VERTEX
  8
0
 10
489.063120
 20
423.750000
 42
-0.066324
  0
VERTEX
  8
0
 10
489.595483
 20
424.705964
 42
-0.080992
  0
VERTEX
  8
0
 10
490.330441
 20
425.416631
 42
-0.081993
  0
VERTEX
  8
0
 10
491.245255
 20
425.851051
 42
-0.070045
  0
VERTEX
  8
0
 10
492.303277
 20
426.000000
 42
-0.215169
  0
VERTEX
  8
0
 10
493.931062
 20
425.265496
 42
-0.051315
  0
VERTEX
  8
0
 10
495.701002
 20
422.788918
 42
-0.021705
  0
VERTEX
  8
0
 10
498.217051
 20
417.891207
 42
-0.002567
  0
SEQEND
  0
POLYLINE
  8
0
 66
1
 70
1
  0
VERTEX
  8
0
 10
556.750000
 20
423.523179
 42
-0.019428
  0
VERTEX
  8
0
 10
559.195985
 20
422.408751
 42
-0.106111
  0
VERTEX
  8
0
 10
560.321924
 20
421.502345
 42
-0.133435
  0
VERTEX
  8
0
 10
560.846350
 20
420.316139
 42
-0.037759
  0
VERTEX
  8
0
 10
561.000000
 20
418.284431
 42
-0.015567
  0
VERTEX
  8
0
 10
560.940974
 20
416.389062
 42
-0.125312
  0
VERTEX
  8
0
 10
560.675878
 20
415.565985
 42
-0.272721
  0
VERTEX
  8
0
 10
560.153632
 20
415.295826
 42
-0.083110
  0
VERTEX
  8
0
 10
559.250000
 20
415.498786
 42
0.051124
  0
VERTEX
  8
0
 10
548.952972
 20
418.511309
 42
0.083555
  0
VERTEX
  8
0
 10
539.881210
 20
418.654099
 42
0.102890
  0
VERTEX
  8
0
 10
532.600137
 20
415.946333
 42
0.119598
  0
VERTEX
  8
0
 10
527.459497
 20
410.662147
 42
0.112154
  0
VERTEX
  8
0
 10
524.757557
 20
402.232730
 42
0.120382
  0
VERTEX
  8
0
 10
526.071934
 20
393.697493
 42
0.122908
  0
VERTEX
  8
0
 10
531.132705
 20
386.857505
 42
0.120060
  0
VERTEX
  8
0
 10
538.856581
 20
383.124178
 42
0.048090
  0
VERTEX
  8
0
 10
543.281684
 20
382.612340
 42
0.037067
  0
VERTEX
  8
0
 10
548.136385
 20
382.879865
 42
0.037207
  0
VERTEX
  8
0
 10
552.874662
 20
383.857791
 42
0.049876
  0
VERTEX
  8
0
 10
556.949715
 20
385.473997
 42
-0.012249
  0
VERTEX
  8
0
 10
559.643947
 20
386.784620
 42
-0.241143
  0
VERTEX
  8
0
 10
560.536511
 20
386.744433
 42
-0.275164
  0
VERTEX
  8
0
 10
560.953575
 20
386.008377
 42
-0.015389
  0
VERTEX
  8
0
 10
560.810365
 20
383.272523
 42
-0.035233
  0
VERTEX
  8
0
 10
560.474695
 20
381.103090
 42
-0.125551
  0
VERTEX
  8
0
 10
559.838550
 20
379.862275
 42
-0.101927
  0
VERTEX
  8
0
 10
558.608297
 20
378.938421
 42
-0.019059
  0
VERTEX
  8
0
 10
556.000000
 20
377.826906
 42
-0.058540
  0
VERTEX
  8
0
 10
550.281977
 20
376.380371
 42
-0.038361
  0
VERTEX
  8
0
 10
543.487792
 20
376.012122
 42
-0.038617
  0
VERTEX
  8
0
 10
536.802507
 20
376.681081
 42
-0.064806
  0
VERTEX
  8
0
 10
531.429137
 20
378.380769
 42
-0.093849
  0
VERTEX
  8
0
 10
524.101789
 20
383.644401
 42
-0.091132
  0
VERTEX
  8
0
 10
519.115494
 20
391.272625
 42
-0.091067
  0
VERTEX
  8
0
 10
517.165156
 20
400.180203
 42
-0.093547
  0
VERTEX
  8
0
 10
518.538846
 20
409.110101
 42
-0.066713
  0
VERTEX
  8
0
 10
520.965749
 20
413.859371
 42
-0.051054
  0
VERTEX
  8
0
 10
524.760945
 20
418.295756
 42
-0.049260
  0
VERTEX
  8
0
 10
529.540034
 20
422.025360
 42
-0.051595
  0
VERTEX
  8
0
 10
534.885071
 20
424.681120
 42
-0.074840
  0
VERTEX
  8
0
 10
539.228446
 20
425.600685
 42
-0.028043
  0
VERTEX
  8
0
 10
545.469911
 20
425.620427
 42
-0.028320
  0
VERTEX
  8
0
 10
551.848183
 20
424.918983
 42
-0.055683
  0
SEQEND
  0
POLYLINE
  8
0
 66
1
 70
1
  0
VERTEX
  8
0
 10
597.813358
 20
422.250000
 42
0.000000
  0
VERTEX
  8
0
 10
598.126717
 20
419.000000
 42
0.000000
  0
VERTEX
  8
0
 10
587.563358
 20
419.000000
 42
0.000000
  0
VERTEX
  8
0
 10
577.000000
 20
419.000000
 42
0.000000
  0
VERTEX
  8
0
 10
577.000000
 20
411.500000
 42
0.000000
  0
VERTEX
  8
0
 10
577.000000
 20
404.000000
 42
0.000000
  0
VERTEX
  8
0
 10
587.000000
 20
404.000000
 42
0.000000
  0
VERTEX
  8
0
 10
597.000000
 20
404.000000
 42
0.000000
  0
VERTEX
  8
0
 10
597.000000
 20
401.000000
 42
0.000000
  0
VERTEX
  8
0
 10
597.000000
 20
398.000000
 42
0.000000
  0
VERTEX
  8
0
 10
587.000000
 20
398.000000
 42
0.000000
  0
VERTEX
  8
0
 10
577.000000
 20
398.000000
 42
0.000000
  0
VERTEX
  8
0
 10
577.000000
 20
390.533832
 42
0.000000
  0
VERTEX
  8
0
 10
577.000000
 20
383.067663
 42
0.000000
  0
VERTEX
  8
0
 10
587.750000
 20
382.783832
 42
0.000000
  0
VERTEX
  8
0
 10
598.500000
 20
382.500000
 42
0.000000
  0
VERTEX
  8
0
 10
598.813358
 20
379.250000
 42
0.000000
  0
VERTEX
  8
0
 10
599.126717
 20
376.000000
 42
0.000000
  0
VERTEX
  8
0
 10
584.563358
 20
376.000000
 42
0.000000
  0
VERTEX
  8
0
 10
570.000000
 20
376.000000
 42
0.000000
  0
VERTEX
  8
0
 10
570.000000
 20
400.333333
 42
-0.002670
  0
VERTEX
  8
0
 10
570.050072
 20
409.711522
 42
-0.004264
  0
VERTEX
  8
0
 10
570.203962
 20
417.722712
 42
-0.001029
  0
VERTEX
  8
0
 10
570.412186
 20
424.709379
 42
-0.190647
  0
VERTEX
  8
0
 10
570.694338
 20
425.361005
 42
-0.187626
  0
VERTEX
  8
0
 10
571.312415
 20
425.632924
 42
-0.003307
  0
VERTEX
  8
0
 10
575.019816
 20
425.769816
 42
-0.007818
  0
VERTEX
  8
0
 10
579.390335
 20
425.833883
 42
-0.005072
  0
VERTEX
  8
0
 10
584.444338
 20
425.777672
 42
0.000000
  0
VERTEX
  8
0
 10
597.500000
 20
425.500000
 42
0.000000
  0
SEQEND
  0
POLYLINE
  8
0
 66
1
 70
1
  0
VERTEX
  8
0
 10
615.000000
 20
414.818182
 42
0.000000
  0
VERTEX
  8
0
 10
615.000000
 20
404.000000
 42
0.000000
  0
VERTEX
  8
0
 10
629.000000
 20
404.000000
 42
0.000000
  0
VERTEX
  8
0
 10
643.000000
 20
404.000000
 42
0.000000
  0
VERTEX
  8
0
 10
643.000000
 20
414.850000
 42
0.000000
  0
VERTEX
  8
0
 10
643.000000
 20
425.700000
 42
0.000000
  0
VERTEX
  8
0
 10
646.250000
 20
425.600000
 42
0.000000
  0
VERTEX
  8
0
 10
649.500000
 20
425.500000
 42
0.000000
  0
VERTEX
  8
0
 10
649.767470
 20
400.750000
 42
0.000000
  0
VERTEX
  8
0
 10
650.034939
 20
376.000000
 42
0.000000
  0
VERTEX
  8
0
 10
646.517470
 20
376.000000
 42
0.000000
  0
VERTEX
  8
0
 10
643.000000
 20
376.000000
 42
0.000000
  0
VERTEX
  8
0
 10
643.000000
 20
387.000000
 42
0.000000
  0
VERTEX
  8
0
 10
643.000000
 20
398.000000
 42
0.000000
  0
VERTEX
  8
0
 10
629.000000
 20
398.000000
 42
0.000000
  0
VERTEX
  8
0
 10
615.000000
 20
398.000000
 42
0.000000
  0
VERTEX
  8
0
 10
615.000000
 20
387.000000
 42
0.000000
  0
VERTEX
  8
0
 10
615.000000
 20
376.000000
 42
0.000000
  0
VERTEX
  8
0
 10
611.500000
 20
376.000000
 42
0.000000
  0
VERTEX
  8
0
 10
608.000000
 20
376.000000
 42
0.000000
  0
VERTEX
  8
0
 10
608.000000
 20
400.333333
 42
-0.001865
  0
VERTEX
  8
0
 10
608.034928
 20
409.697122
 42
-0.003018
  0
VERTEX
  8
0
 10
608.142424
 20
417.661174
 42
-0.000518
  0
VERTEX
  8
0
 10
608.286988
 20
424.688063
 42
-0.193303
  0
VERTEX
  8
0
 10
608.484848
 20
425.151515
 42
-0.145593
  0
VERTEX
  8
0
 10
608.834961
 20
425.341079
 42
-0.017361
  0
VERTEX
  8
0
 10
609.712973
 20
425.493939
 42
-0.019535
  0
VERTEX
  8
0
 10
610.794737
 20
425.600934
 42
-0.014882
  0
VERTEX
  8
0
 10
611.984848
 20
425.636364
 42
0.000000
  0
VERTEX
  8
0
 10
615.000000
 20
425.636364
 42
0.000000
  0
SEQEND
  0
POLYLINE
  8
0
 66
1
 70
1
  0
VERTEX
  8
0
 10
696.513106
 20
423.258617
 42
-0.080368
  0
VERTEX
  8
0
 10
703.740969
 20
417.942551
 42
-0.089662
  0
VERTEX
  8
0
 10
708.602679
 20
410.796502
 42
-0.090824
  0
VERTEX
  8
0
 10
710.615092
 20
402.479827
 42
-0.084996
  0
VERTEX
  8
0
 10
709.625272
 20
393.782924
 42
-0.058353
  0
VERTEX
  8
0
 10
707.738272
 20
389.313327
 42
-0.044669
  0
VERTEX
  8
0
 10
704.717221
 20
384.947649
 42
-0.044366
  0
VERTEX
  8
0
 10
700.940654
 20
381.155113
 42
-0.055077
  0
VERTEX
  8
0
 10
696.802259
 20
378.391456
 42
-0.077036
  0
VERTEX
  8
0
 10
692.732529
 20
377.020251
 42
-0.025495
  0
VERTEX
  8
0
 10
686.456601
 20
376.262014
 42
-0.025688
  0
VERTEX
  8
0
 10
680.101294
 20
376.148300
 42
-0.071446
  0
VERTEX
  8
0
 10
675.715820
 20
376.928773
 42
-0.114114
  0
VERTEX
  8
0
 10
665.740533
 20
382.990177
 42
-0.117836
  0
VERTEX
  8
0
 10
659.580569
 20
392.751564
 42
-0.117698
  0
VERTEX
  8
0
 10
658.495866
 20
404.252874
 42
-0.113657
  0
VERTEX
  8
0
 10
662.687792
 20
415.169669
 42
-0.048981
  0
VERTEX
  8
0
 10
665.160732
 20
418.160736
 42
-0.032810
  0
VERTEX
  8
0
 10
668.510831
 20
421.078087
 42
-0.032956
  0
VERTEX
  8
0
 10
672.184151
 20
423.510947
 42
-0.052325
  0
VERTEX
  8
0
 10
675.633641
 20
425.028835
 42
-0.071550
  0
VERTEX
  8
0
 10
679.992384
 20
425.764137
 42
-0.027218
  0
VERTEX
  8
0
 10
686.168379
 20
425.577828
 42
-0.027255
  0
VERTEX
  8
0
 10
692.297441
 20
424.719883
 42
-0.070163
  0
SEQEND
  0
POLYLINE
  8
0
 66
1
 70
1
  0
VERTEX
  8
0
 10
726.000000
 20
404.347820
 42
0.000000
  0
VERTEX
  8
0
 10
726.000000
 20
383.000000
 42
0.000000
  0
VERTEX
  8
0
 10
737.000000
 20
383.000000
 42
0.000000
  0
VERTEX
  8
0
 10
748.000000
 20
383.000000
 42
0.000000
  0
VERTEX
  8
0
 10
748.000000
 20
379.500000
 42
0.000000
  0
VERTEX
  8
0
 10
748.000000
 20
376.000000
 42
0.000000
  0
VERTEX
  8
0
 10
733.500000
 20
376.000000
 42
0.000000
  0
VERTEX
  8
0
 10
719.000000
 20
376.000000
 42
0.000000
  0
VERTEX
  8
0
 10
719.000000
 20
400.333333
 42
-0.002296
  0
VERTEX
  8
0
 10
719.043033
 20
409.704827
 42
-0.003690
  0
VERTEX
  8
0
 10
719.175376
 20
417.694126
 42
-0.000773
  0
VERTEX
  8
0
 10
719.353946
 20
424.698576
 42
-0.191896
  0
VERTEX
  8
0
 10
719.597025
 20
425.263692
 42
-0.137162
  0
VERTEX
  8
0
 10
720.000476
 20
425.490838
 42
-0.023554
  0
VERTEX
  8
0
 10
720.871423
 20
425.661095
 42
-0.024124
  0
VERTEX
  8
0
 10
721.941805
 20
425.766019
 42
-0.019477
  0
VERTEX
  8
0
 10
723.097025
 20
425.778178
 42
0.000000
  0
VERTEX
  8
0
 10
726.000000
 20
425.695640
 42
0.000000
  0
SEQEND
  0
POLYLINE
  8
0
 66
1
 70
1
  0
VERTEX
  8
0
 10
784.213152
 20
423.221257
 42
-0.036166
  0
VERTEX
  8
0
 10
788.433410
 20
420.967729
 42
-0.045186
  0
VERTEX
  8
0
 10
791.959424
 20
418.270112
 42
-0.047343
  0
VERTEX
  8
0
 10
794.812655
 20
415.099759
 42
-0.046870
  0
VERTEX
  8
0
 10
797.029493
 20
411.439075
 42
-0.029372
  0
VERTEX
  8
0
 10
798.124776
 20
408.790445
 42
-0.045245
  0
VERTEX
  8
0
 10
798.720841
 20
406.385552
 42
-0.037250
  0
VERTEX
  8
0
 10
798.939128
 20
403.595022
 42
-0.013515
  0
VERTEX
  8
0
 10
798.846038
 20
399.622213
 42
-0.043609
  0
VERTEX
  8
0
 10
798.035757
 20
393.771484
 42
-0.066586
  0
VERTEX
  8
0
 10
796.243777
 20
388.978059
 42
-0.067422
  0
VERTEX
  8
0
 10
793.274665
 20
384.865976
 42
-0.046001
  0
VERTEX
  8
0
 10
788.930080
 20
381.064310
 42
-0.058661
  0
VERTEX
  8
0
 10
784.652430
 20
378.673119
 42
-0.047168
  0
VERTEX
  8
0
 10
779.610950
 20
377.123160
 42
-0.035820
  0
VERTEX
  8
0
 10
773.166930
 20
376.264989
 42
-0.015197
  0
VERTEX
  8
0
 10
764.450779
 20
376.000000
 42
0.000000
  0
VERTEX
  8
0
 10
754.000000
 20
376.000000
 42
0.000000
  0
VERTEX
  8
0
 10
754.000000
 20
400.333333
 42
-0.002883
  0
VERTEX
  8
0
 10
754.054110
 20
409.717971
 42
-0.004579
  0
VERTEX
  8
0
 10
754.220312
 20
417.750183
 42
-0.001214
  0
VERTEX
  8
0
 10
754.445667
 20
424.730159
 42
-0.183541
  0
VERTEX
  8
0
 10
754.750000
 20
425.454525
 42
-0.195839
  0
VERTEX
  8
0
 10
755.413602
 20
425.753445
 42
-0.004681
  0
VERTEX
  8
0
 10
758.867301
 20
425.847009
 42
-0.009574
  0
VERTEX
  8
0
 10
762.978270
 20
425.841153
 42
-0.006273
  0
VERTEX
  8
0
 10
767.713152
 20
425.684286
 42
-0.007619
  0
VERTEX
  8
0
 10
773.691747
 20
425.319728
 42
-0.018012
  0
VERTEX
  8
0
 10
778.126028
 20
424.820286
 42
-0.024005
  0
VERTEX
  8
0
 10
781.530197
 20
424.143748
 42
-0.043521
  0
SEQEND
  0
POLYLINE
  8
0
 66
1
 70
1
  0
VERTEX
  8
0
 10
835.813358
 20
422.250000
 42
0.000000
  0
VERTEX
  8
0
 10
836.126717
 20
419.000000
 42
0.000000
  0
VERTEX
  8
0
 10
825.563358
 20
419.000000
 42
0.000000
  0
VERTEX
  8
0
 10
815.000000
 20
419.000000
 42
0.000000
  0
VERTEX
  8
0
 10
815.000000
 20
411.500000
 42
0.000000
  0
VERTEX
  8
0
 10
815.000000
 20
404.000000
 42
0.000000
  0
VERTEX
  8
0
 10
825.000000
 20
404.000000
 42
0.000000
  0
VERTEX
  8
0
 10
835.000000
 20
404.000000
 42
0.000000
  0
VERTEX
  8
0
 10
835.000000
 20
401.000000
 42
0.000000
  0
VERTEX
  8
0
 10
835.000000
 20
398.000000
 42
0.000000
  0
VERTEX
  8
0
 10
825.000000
 20
398.000000
 42
0.000000
  0
VERTEX
  8
0
 10
815.000000
 20
398.000000
 42
0.000000
  0
VERTEX
  8
0
 10
815.000000
 20
390.533832
 42
0.000000
  0
VERTEX
  8
0
 10
815.000000
 20
383.067663
 42
0.000000
  0
VERTEX
  8
0
 10
825.750000
 20
382.783832
 42
0.000000
  0
VERTEX
  8
0
 10
836.500000
 20
382.500000
 42
0.000000
  0
VERTEX
  8
0
 10
836.813358
 20
379.250000
 42
0.000000
  0
VERTEX
  8
0
 10
837.126717
 20
376.000000
 42
0.000000
  0
VERTEX
  8
0
 10
822.563358
 20
376.000000
 42
0.000000
  0
VERTEX
  8
0
 10
808.000000
 20
376.000000
 42
0.000000
  0
VERTEX
  8
0
 10
808.000000
 20
400.333333
 42
-0.002670
  0
VERTEX
  8
0
 10
808.050072
 20
409.711522
 42
-0.004264
  0
VERTEX
  8
0
 10
808.203962
 20
417.722712
 42
-0.001029
  0
VERTEX
  8
0
 10
808.412186
 20
424.709379
 42
-0.190647
  0
VERTEX
  8
0
 10
808.694338
 20
425.361005
 42
-0.187626
  0
VERTEX
  8
0
 10
809.312415
 20
425.632924
 42
-0.003307
  0
VERTEX
  8
0
 10
813.019816
 20
425.769816
 42
-0.007818
  0
VERTEX
  8
0
 10
817.390335
 20
425.833883
 42
-0.005072
  0
VERTEX
  8
0
 10
822.444338
 20
425.777672
 42
0.000000
  0
VERTEX
  8
0
 10
835.500000
 20
425.500000
 42
0.000000
  0
SEQEND
  0
POLYLINE
  8
0
 66
1
 70
1
  0
VERTEX
  8
0
 10
862.073301
 20
424.986099
 42
-0.054431
  0
VERTEX
  8
0
 10
866.364466
 20
423.676645
 42
-0.072210
  0
VERTEX
  8
0
 10
869.841985
 20
421.548856
 42
-0.077331
  0
VERTEX
  8
0
 10
872.397854
 20
418.653313
 42
-0.074993
  0
VERTEX
  8
0
 10
873.986044
 20
415.088374
 42
-0.071666
  0
VERTEX
  8
0
 10
874.459065
 20
411.363498
 42
-0.069611
  0
VERTEX
  8
0
 10
873.870763
 20
407.617412
 42
-0.072154
  0
VERTEX
  8
0
 10
872.311904
 20
404.296097
 42
-0.088044
  0
VERTEX
  8
0
 10
869.953847
 20
401.807756
 42
0.000000
  0
VERTEX
  8
0
 10
866.983813
 20
399.611915
 42
0.000000
  0
VERTEX
  8
0
 10
869.858338
 20
396.555958
 42
-0.030978
  0
VERTEX
  8
0
 10
872.182521
 20
393.756368
 42
-0.004970
  0
VERTEX
  8
0
 10
876.317405
 20
387.976730
 42
-0.005889
  0
VERTEX
  8
0
 10
880.467102
 20
381.901816
 42
-0.013862
  0
VERTEX
  8
0
 10
883.382168
 20
377.250000
 42
-0.220742
  0
VERTEX
  8
0
 10
883.437293
 20
376.686681
 42
-0.221382
  0
VERTEX
  8
0
 10
883.042628
 20
376.281869
 42
-0.075650
  0
VERTEX
  8
0
 10
881.997890
 20
376.057725
 42
-0.015084
  0
VERTEX
  8
0
 10
880.084810
 20
376.000000
 42
-0.056192
  0
VERTEX
  8
0
 10
877.515921
 20
376.289618
 42
-0.126631
  0
VERTEX
  8
0
 10
875.787193
 20
377.181835
 42
-0.057661
  0
VERTEX
  8
0
 10
873.963542
 20
379.231026
 42
-0.005018
  0
VERTEX
  8
0
 10
870.007395
 20
384.989002
 42
0.011763
  0
VERTEX
  8
0
 10
865.681237
 20
391.107037
 42
0.047865
  0
VERTEX
  8
0
 10
862.629313
 20
394.485461
 42
0.074218
  0
VERTEX
  8
0
 10
859.728679
 20
396.437314
 42
0.061766
  0
VERTEX
  8
0
 10
856.197726
 20
397.610455
 42
0.000000
  0
VERTEX
  8
0
 10
853.000000
 20
398.250000
 42
0.000000
  0
VERTEX
  8
0
 10
853.000000
 20
387.125000
 42
0.000000
  0
VERTEX
  8
0
 10
853.000000
 20
376.000000
 42
0.000000
  0
VERTEX
  8
0
 10
849.500000
 20
376.000000
 42
0.000000
  0
VERTEX
  8
0
 10
846.000000
 20
376.000000
 42
0.000000
  0
VERTEX
  8
0
 10
846.000000
 20
400.333333
 42
-0.002563
  0
VERTEX
  8
0
 10
846.048070
 20
409.709617
 42
-0.004102
  0
VERTEX
  8
0
 10
846.195833
 20
417.714583
 42
-0.000953
  0
VERTEX
  8
0
 10
846.395611
 20
424.706149
 42
-0.191005
  0
VERTEX
  8
0
 10
846.666667
 20
425.333333
 42
-0.190752
  0
VERTEX
  8
0
 10
848.080353
 20
425.945117
 42
-0.013496
  0
VERTEX
  8
0
 10
852.462754
 20
425.964649
 42
-0.019300
  0
VERTEX
  8
0
 10
857.390816
 20
425.663028
 42
-0.021928
  0
SEQEND
  0
POLYLINE
  8
0
 66
1
 70
1
  0
VERTEX
  8
0
 10
311.000000
 20
327.740983
 42
0.010769
  0
VERTEX
  8
0
 10
311.045038
 20
325.650198
 42
0.086296
  0
VERTEX
  8
0
 10
311.250000
 20
324.712705
 42
0.357213
  0
VERTEX
  8
0
 10
311.637878
 20
324.502206
 42
0.150226
  0
VERTEX
  8
0
 10
312.200000
 20
324.800000
 42
-0.070395
  0
VERTEX
  8
0
 10
312.811593
 20
325.259976
 42
-0.038897
  0
VERTEX
  8
0
 10
313.664375
 20
325.647500
 42
-0.037889
  0
VERTEX
  8
0
 10
314.607922
 20
325.911715
 42
-0.049362
  0
VERTEX
  8
0
 10
315.500000
 20
326.000000
 42
-0.049362
  0
VERTEX
  8
0
 10
316.392078
 20
325.911715
 42
-0.037889
  0
VERTEX
  8
0
 10
317.335625
 20
325.647500
 42
-0.038897
  0
VERTEX
  8
0
 10
318.188407
 20
325.259976
 42
-0.070395
  0
VERTEX
  8
0
 10
318.800000
 20
324.800000
 42
-0.177777
  0
VERTEX
  8
0
 10
319.720610
 20
322.811161
 42
-0.016789
  0
VERTEX
  8
0
 10
319.983096
 20
317.354499
 42
-0.013567
  0
VERTEX
  8
0
 10
319.913866
 20
311.878222
 42
-0.402611
  0
VERTEX
  8
0
 10
319.000000
 20
311.000000
 42
-0.318161
  0
VERTEX
  8
0
 10
318.610672
 20
311.275641
 42
-0.033420
  0
VERTEX
  8
0
 10
318.293750
 20
312.412606
 42
-0.031684
  0
VERTEX
  8
0
 10
318.072232
 20
313.965631
 42
-0.019586
  0
VERTEX
  8
0
 10
318.000000
 20
315.808870
 42
0.036758
  0
VERTEX
  8
0
 10
317.704144
 20
319.827800
 42
0.110085
  0
VERTEX
  8
0
 10
316.723484
 20
322.384543
 42
0.205381
  0
VERTEX
  8
0
 10
315.160510
 20
323.408843
 42
0.168158
  0
VERTEX
  8
0
 10
313.170835
 20
323.091428
 42
0.082169
  0
VERTEX
  8
0
 10
312.053129
 20
322.232239
 42
0.109151
  0
VERTEX
  8
0
 10
311.402458
 20
321.131881
 42
0.065160
  0
VERTEX
  8
0
 10
311.083859
 20
319.442861
 42
0.014077
  0
VERTEX
  8
0
 10
311.000000
 20
316.464816
 42
-0.012240
  0
VERTEX
  8
0
 10
310.933215
 20
313.737132
 42
-0.054786
  0
VERTEX
  8
0
 10
310.681379
 20
312.160803
 42
-0.118640
  0
VERTEX
  8
0
 10
310.214982
 20
311.315251
 42
-0.210676
  0
VERTEX
  8
0
 10
309.500000
 20
311.000000
 42
-0.290840
  0
VERTEX
  8
0
 10
308.731356
 20
311.488420
 42
-0.073761
  0
VERTEX
  8
0
 10
308.286290
 20
312.972222
 42
-0.031105
  0
VERTEX
  8
0
 10
308.054811
 20
315.790028
 42
-0.004944
  0
VERTEX
  8
0
 10
308.000000
 20
321.333333
 42
-0.005777
  0
VERTEX
  8
0
 10
308.046294
 20
325.339717
 42
-0.008776
  0
VERTEX
  8
0
 10
308.187847
 20
328.819097
 42
-0.004205
  0
VERTEX
  8
0
 10
308.383253
 20
331.747775
 42
-0.179482
  0
VERTEX
  8
0
 10
308.639480
 20
332.306147
 42
-0.244199
  0
VERTEX
  8
0
 10
309.547013
 20
332.593231
 42
-0.234390
  0
VERTEX
  8
0
 10
310.327362
 20
332.020534
 42
-0.089789
  0
VERTEX
  8
0
 10
310.845497
 20
330.334283
 42
-0.029762
  0
SEQEND
  0
POLYLINE
  8
0
 66
1
 70
1
  0
VERTEX
  8
0
 10
358.750467
 20
331.250000
 42
-0.152919
  0
VERTEX
  8
0
 10
358.759217
 20
330.761948
 42
-0.152857
  0
VERTEX
  8
0
 10
358.488036
 20
330.355990
 42
-0.110842
  0
VERTEX
  8
0
 10
357.945524
 20
330.088741
 42
-0.059304
  0
VERTEX
  8
0
 10
357.199965
 20
330.000000
 42
0.089822
  0
VERTEX
  8
0
 10
356.390081
 20
329.853326
 42
0.079775
  0
VERTEX
  8
0
 10
355.645231
 20
329.429284
 42
0.078313
  0
VERTEX
  8
0
 10
355.059386
 20
328.784751
 42
0.081593
  0
VERTEX
  8
0
 10
354.710251
 20
328.000000
 42
0.049229
  0
VERTEX
  8
0
 10
354.558360
 20
327.042979
 42
0.167579
  0
VERTEX
  8
0
 10
354.726188
 20
326.443690
 42
0.182942
  0
VERTEX
  8
0
 10
355.214569
 20
326.106846
 42
0.060551
  0
VERTEX
  8
0
 10
356.093620
 20
326.000000
 42
-0.081867
  0
VERTEX
  8
0
 10
357.487322
 20
325.770265
 42
-0.332756
  0
VERTEX
  8
0
 10
357.944316
 20
325.104563
 42
-0.258387
  0
VERTEX
  8
0
 10
357.457571
 20
324.304529
 42
-0.065777
  0
VERTEX
  8
0
 10
356.000000
 20
323.710251
 42
0.119045
  0
VERTEX
  8
0
 10
354.957472
 20
323.150487
 42
0.137744
  0
VERTEX
  8
0
 10
354.353510
 20
322.202605
 42
0.063547
  0
VERTEX
  8
0
 10
354.067665
 20
320.502889
 42
0.009923
  0
VERTEX
  8
0
 10
354.000000
 20
317.093620
 42
-0.015101
  0
VERTEX
  8
0
 10
353.928780
 20
314.736078
 42
-0.025569
  0
VERTEX
  8
0
 10
353.708973
 20
312.773405
 42
-0.023668
  0
VERTEX
  8
0
 10
353.396094
 20
311.305348
 42
-0.340706
  0
VERTEX
  8
0
 10
353.000000
 20
311.000000
 42
-0.345347
  0
VERTEX
  8
0
 10
352.599474
 20
311.314102
 42
-0.022017
  0
VERTEX
  8
0
 10
352.288462
 20
312.875000
 42
-0.024301
  0
VERTEX
  8
0
 10
352.070361
 20
314.963427
 42
-0.013867
  0
VERTEX
  8
0
 10
352.000000
 20
317.500000
 42
0.008338
  0
VERTEX
  8
0
 10
351.940271
 20
321.081564
 42
0.057168
  0
VERTEX
  8
0
 10
351.681469
 20
322.822674
 42
0.148805
  0
VERTEX
  8
0
 10
351.142631
 20
323.687477
 42
0.176801
  0
VERTEX
  8
0
 10
350.250000
 20
324.031803
 42
-0.011517
  0
VERTEX
  8
0
 10
349.161439
 20
324.076683
 42
-0.395521
  0
VERTEX
  8
0
 10
349.000000
 20
324.248840
 42
-0.228450
  0
VERTEX
  8
0
 10
349.132120
 20
324.522916
 42
-0.005777
  0
VERTEX
  8
0
 10
350.250000
 20
325.392046
 42
0.065390
  0
VERTEX
  8
0
 10
350.919745
 20
326.054466
 42
0.046826
  0
VERTEX
  8
0
 10
351.485937
 20
326.944213
 42
0.047212
  0
VERTEX
  8
0
 10
351.871472
 20
327.912888
 42
0.071227
  0
VERTEX
  8
0
 10
352.000000
 20
328.810552
 42
-0.179899
  0
VERTEX
  8
0
 10
352.814428
 20
331.000866
 42
-0.128715
  0
VERTEX
  8
0
 10
354.987915
 20
332.496761
 42
-0.154664
  0
VERTEX
  8
0
 10
357.335090
 20
332.590407
 42
-0.250650
  0
SEQEND
  0
POLYLINE
  8
0
 66
1
 70
1
  0
VERTEX
  8
0
 10
370.783832
 20
321.668646
 42
-0.004363
  0
VERTEX
  8
0
 10
370.889149
 20
315.776711
 42
-0.031456
  0
VERTEX
  8
0
 10
370.736690
 20
312.942626
 42
-0.082429
  0
VERTEX
  8
0
 10
370.318625
 20
311.494868
 42
-0.288960
  0
VERTEX
  8
0
 10
369.533832
 20
311.000000
 42
-0.292570
  0
VERTEX
  8
0
 10
368.737670
 20
311.509476
 42
-0.073827
  0
VERTEX
  8
0
 10
368.284598
 20
313.056478
 42
-0.029986
  0
VERTEX
  8
0
 10
368.053276
 20
316.032833
 42
-0.004403
  0
VERTEX
  8
0
 10
368.000000
 20
322.083333
 42
-0.005026
  0
VERTEX
  8
0
 10
368.055191
 20
327.573660
 42
-0.024137
  0
VERTEX
  8
0
 10
368.268842
 20
330.693749
 42
-0.045300
  0
VERTEX
  8
0
 10
368.634725
 20
332.434486
 42
-0.420852
  0
VERTEX
  8
0
 10
369.250000
 20
332.751979
 42
-0.259038
  0
VERTEX
  8
0
 10
369.851636
 20
332.097742
 42
-0.024777
  0
VERTEX
  8
0
 10
370.269439
 20
329.890347
 42
-0.020964
  0
VERTEX
  8
0
 10
370.586411
 20
326.584716
 42
-0.006769
  0
SEQEND
  0
POLYLINE
  8
0
 66
1
 70
1
  0
VERTEX
  8
0
 10
456.000000
 20
327.922346
 42
0.015290
  0
VERTEX
  8
0
 10
456.258885
 20
326.126380
 42
0.054456
  0
VERTEX
  8
0
 10
456.582376
 20
325.012095
 42
0.191131
  0
VERTEX
  8
0
 10
456.940882
 20
324.641676
 42
0.370823
  0
VERTEX
  8
0
 10
457.309017
 20
324.750000
 42
-0.169890
  0
VERTEX
  8
0
 10
458.461289
 20
325.643943
 42
-0.079050
  0
VERTEX
  8
0
 10
460.351726
 20
325.959651
 42
-0.075598
  0
VERTEX
  8
0
 10
462.343795
 20
325.672409
 42
-0.123442
  0
VERTEX
  8
0
 10
463.800000
 20
324.800000
 42
-0.177777
  0
VERTEX
  8
0
 10
464.720610
 20
322.811161
 42
-0.016789
  0
VERTEX
  8
0
 10
464.983096
 20
317.354499
 42
-0.013567
  0
VERTEX
  8
0
 10
464.913866
 20
311.878222
 42
-0.402611
  0
VERTEX
  8
0
 10
464.000000
 20
311.000000
 42
-0.318161
  0
VERTEX
  8
0
 10
463.610672
 20
311.275641
 42
-0.033420
  0
VERTEX
  8
0
 10
463.293750
 20
312.412606
 42
-0.031684
  0
VERTEX
  8
0
 10
463.072232
 20
313.965631
 42
-0.019586
  0
VERTEX
  8
0
 10
463.000000
 20
315.808870
 42
0.036758
  0
VERTEX
  8
0
 10
462.704144
 20
319.827800
 42
0.110085
  0
VERTEX
  8
0
 10
461.723484
 20
322.384543
 42
0.205381
  0
VERTEX
  8
0
 10
460.160510
 20
323.408843
 42
0.168158
  0
VERTEX
  8
0
 10
458.170835
 20
323.091428
 42
0.082169
  0
VERTEX
  8
0
 10
457.053129
 20
322.232239
 42
0.109151
  0
VERTEX
  8
0
 10
456.402458
 20
321.131881
 42
0.065160
  0
VERTEX
  8
0
 10
456.083859
 20
319.442861
 42
0.014077
  0
VERTEX
  8
0
 10
456.000000
 20
316.464816
 42
-0.012240
  0
VERTEX
  8
0
 10
455.933215
 20
313.737132
 42
-0.054786
  0
VERTEX
  8
0
 10
455.681379
 20
312.160803
 42
-0.118640
  0
VERTEX
  8
0
 10
455.214982
 20
311.315251
 42
-0.210676
  0
VERTEX
  8
0
 10
454.500000
 20
311.000000
 42
-0.299260
  0
VERTEX
  8
0
 10
453.725174
 20
311.509366
 42
-0.068398
  0
VERTEX
  8
0
 10
453.283835
 20
313.097222
 42
-0.029127
  0
VERTEX
  8
0
 10
453.053941
 20
316.105068
 42
-0.004511
  0
VERTEX
  8
0
 10
453.000000
 20
322.083333
 42
-0.005031
  0
VERTEX
  8
0
 10
453.055228
 20
327.572498
 42
-0.024123
  0
VERTEX
  8
0
 10
453.268925
 20
330.693778
 42
-0.045155
  0
VERTEX
  8
0
 10
453.634709
 20
332.436896
 42
-0.420249
  0
VERTEX
  8
0
 10
454.250000
 20
332.755679
 42
-0.193141
  0
VERTEX
  8
0
 10
454.765295
 20
332.322321
 42
-0.035662
  0
VERTEX
  8
0
 10
455.279688
 20
331.166355
 42
-0.033655
  0
VERTEX
  8
0
 10
455.717086
 20
329.645837
 42
-0.025063
  0
SEQEND
  0
POLYLINE
  8
0
 66
1
 70
1
  0
VERTEX
  8
0
 10
498.000000
 20
322.000000
 42
-0.007181
  0
VERTEX
  8
0
 10
497.935032
 20
317.476434
 42
-0.015486
  0
VERTEX
  8
0
 10
497.727273
 20
314.000000
 42
-0.010792
  0
VERTEX
  8
0
 10
497.431670
 20
311.377449
 42
-0.375539
  0
VERTEX
  8
0
 10
497.000000
 20
311.000000
 42
-0.119248
  0
VERTEX
  8
0
 10
496.618586
 20
311.092278
 42
-0.100665
  0
VERTEX
  8
0
 10
496.293750
 20
311.352500
 42
-0.092192
  0
VERTEX
  8
0
 10
496.075612
 20
311.741680
 42
-0.081935
  0
VERTEX
  8
0
 10
496.000000
 20
312.200000
 42
0.051663
  0
VERTEX
  8
0
 10
495.943785
 20
312.742599
 42
0.354955
  0
VERTEX
  8
0
 10
495.750000
 20
312.900000
 42
0.180052
  0
VERTEX
  8
0
 10
495.421376
 20
312.777696
 42
0.018208
  0
VERTEX
  8
0
 10
494.800000
 20
312.200000
 42
-0.086622
  0
VERTEX
  8
0
 10
494.144107
 20
311.739056
 42
-0.036697
  0
VERTEX
  8
0
 10
493.136772
 20
311.352500
 42
-0.034900
  0
VERTEX
  8
0
 10
491.974254
 20
311.088533
 42
-0.038396
  0
VERTEX
  8
0
 10
490.823053
 20
311.000000
 42
-0.201051
  0
VERTEX
  8
0
 10
487.405662
 20
312.432025
 42
-0.145230
  0
VERTEX
  8
0
 10
485.443217
 20
316.122519
 42
-0.124288
  0
VERTEX
  8
0
 10
485.661569
 20
320.762584
 42
-0.136055
  0
VERTEX
  8
0
 10
488.069657
 20
324.563039
 42
-0.041206
  0
VERTEX
  8
0
 10
489.262709
 20
325.476040
 42
-0.107018
  0
VERTEX
  8
0
 10
490.270883
 20
325.852772
 42
-0.096750
  0
VERTEX
  8
0
 10
491.406807
 20
325.797623
 42
-0.029887
  0
VERTEX
  8
0
 10
493.050100
 20
325.287191
 42
0.000000
  0
VERTEX
  8
0
 10
496.000000
 20
324.173728
 42
0.000000
  0
VERTEX
  8
0
 10
496.000000
 20
328.586864
 42
-0.021362
  0
VERTEX
  8
0
 10
496.072299
 20
330.278299
 42
-0.034363
  0
VERTEX
  8
0
 10
496.293750
 20
331.703641
 42
-0.038055
  0
VERTEX
  8
0
 10
496.611724
 20
332.735557
 42
-0.308190
  0
VERTEX
  8
0
 10
497.000000
 20
333.000000
 42
-0.375539
  0
VERTEX
  8
0
 10
497.431670
 20
332.622551
 42
-0.010792
  0
VERTEX
  8
0
 10
497.727273
 20
330.000000
 42
-0.015486
  0
VERTEX
  8
0
 10
497.935032
 20
326.523566
 42
-0.007181
  0
SEQEND
  0
POLYLINE
  8
0
 66
1
 70
1
  0
VERTEX
  8
0
 10
522.783832
 20
321.668646
 42
-0.004363
  0
VERTEX
  8
0
 10
522.889149
 20
315.776711
 42
-0.031456
  0
VERTEX
  8
0
 10
522.736690
 20
312.942626
 42
-0.082429
  0
VERTEX
  8
0
 10
522.318625
 20
311.494868
 42
-0.288960
  0
VERTEX
  8
0
 10
521.533832
 20
311.000000
 42
-0.292570
  0
VERTEX
  8
0
 10
520.737670
 20
311.509476
 42
-0.073827
  0
VERTEX
  8
0
 10
520.284598
 20
313.056478
 42
-0.029986
  0
VERTEX
  8
0
 10
520.053276
 20
316.032833
 42
-0.004403
  0
VERTEX
  8
0
 10
520.000000
 20
322.083333
 42
-0.005026
  0
VERTEX
  8
0
 10
520.055191
 20
327.573660
 42
-0.024137
  0
VERTEX
  8
0
 10
520.268842
 20
330.693749
 42
-0.045300
  0
VERTEX
  8
0
 10
520.634725
 20
332.434486
 42
-0.420852
  0
VERTEX
  8
0
 10
521.250000
 20
332.751979
 42
-0.259038
  0
VERTEX
  8
0
 10
521.851636
 20
332.097742
 42
-0.024777
  0
VERTEX
  8
0
 10
522.269439
 20
329.890347
 42
-0.020964
  0
VERTEX
  8
0
 10
522.586411
 20
326.584716
 42
-0.006769
  0
SEQEND
  0
POLYLINE
  8
0
 66
1
 70
1
  0
VERTEX
  8
0
 10
555.000000
 20
322.000000
 42
-0.007181
  0
VERTEX
  8
0
 10
554.935032
 20
317.476434
 42
-0.015486
  0
VERTEX
  8
0
 10
554.727273
 20
314.000000
 42
-0.010792
  0
VERTEX
  8
0
 10
554.431670
 20
311.377449
 42
-0.375539
  0
VERTEX
  8
0
 10
554.000000
 20
311.000000
 42
-0.119248
  0
VERTEX
  8
0
 10
553.618586
 20
311.092278
 42
-0.100665
  0
VERTEX
  8
0
 10
553.293750
 20
311.352500
 42
-0.092192
  0
VERTEX
  8
0
 10
553.075612
 20
311.741680
 42
-0.081935
  0
VERTEX
  8
0
 10
553.000000
 20
312.200000
 42
0.051663
  0
VERTEX
  8
0
 10
552.943785
 20
312.742599
 42
0.354955
  0
VERTEX
  8
0
 10
552.750000
 20
312.900000
 42
0.180052
  0
VERTEX
  8
0
 10
552.421376
 20
312.777696
 42
0.018208
  0
VERTEX
  8
0
 10
551.800000
 20
312.200000
 42
-0.086622
  0
VERTEX
  8
0
 10
551.144107
 20
311.739056
 42
-0.036697
  0
VERTEX
  8
0
 10
550.136772
 20
311.352500
 42
-0.034900
  0
VERTEX
  8
0
 10
548.974254
 20
311.088533
 42
-0.038396
  0
VERTEX
  8
0
 10
547.823053
 20
311.000000
 42
-0.128953
  0
VERTEX
  8
0
 10
545.292814
 20
311.663597
 42
-0.123178
  0
VERTEX
  8
0
 10
543.362494
 20
313.491305
 42
-0.107742
  0
VERTEX
  8
0
 10
542.351038
 20
316.237297
 42
-0.081104
  0
VERTEX
  8
0
 10
542.427164
 20
319.463441
 42
-0.052669
  0
VERTEX
  8
0
 10
543.379718
 20
322.647543
 42
-0.119552
  0
VERTEX
  8
0
 10
544.858402
 20
324.659073
 42
-0.139127
  0
VERTEX
  8
0
 10
546.931315
 20
325.590864
 42
-0.083043
  0
VERTEX
  8
0
 10
549.653856
 20
325.537114
 42
0.000000
  0
VERTEX
  8
0
 10
553.000000
 20
324.909374
 42
0.000000
  0
VERTEX
  8
0
 10
553.000000
 20
328.954687
 42
-0.023330
  0
VERTEX
  8
0
 10
553.072378
 20
330.505015
 42
-0.037277
  0
VERTEX
  8
0
 10
553.293750
 20
331.811689
 42
-0.043136
  0
VERTEX
  8
0
 10
553.612744
 20
332.747383
 42
-0.297329
  0
VERTEX
  8
0
 10
554.000000
 20
333.000000
 42
-0.375539
  0
VERTEX
  8
0
 10
554.431670
 20
332.622551
 42
-0.010792
  0
VERTEX
  8
0
 10
554.727273
 20
330.000000
 42
-0.015486
  0
VERTEX
  8
0
 10
554.935032
 20
326.523566
 42
-0.007181
  0
SEQEND
  0
POLYLINE
  8
0
 66
1
 70
1
  0
VERTEX
  8
0
 10
603.000000
 20
327.922346
 42
0.015290
  0
VERTEX
  8
0
 10
603.258885
 20
326.126380
 42
0.054456
  0
VERTEX
  8
0
 10
603.582376
 20
325.012095
 42
0.191131
  0
VERTEX
  8
0
 10
603.940882
 20
324.641676
 42
0.370823
  0
VERTEX
  8
0
 10
604.309017
 20
324.750000
 42
-0.179304
  0
VERTEX
  8
0
 10
605.674643
 20
325.770051
 42
-0.105940
  0
VERTEX
  8
0
 10
607.728705
 20
325.925662
 42
-0.094710
  0
VERTEX
  8
0
 10
609.866869
 20
325.206794
 42
-0.112114
  0
VERTEX
  8
0
 10
611.443296
 20
323.777494
 42
-0.087520
  0
VERTEX
  8
0
 10
612.558201
 20
321.387105
 42
-0.065511
  0
VERTEX
  8
0
 10
612.938464
 20
318.500688
 42
-0.065518
  0
VERTEX
  8
0
 10
612.559090
 20
315.614507
 42
-0.087590
  0
VERTEX
  8
0
 10
611.444915
 20
313.224817
 42
-0.065043
  0
VERTEX
  8
0
 10
610.410842
 20
312.094398
 42
-0.100529
  0
VERTEX
  8
0
 10
609.252731
 20
311.462332
 42
-0.068470
  0
VERTEX
  8
0
 10
607.627999
 20
311.195995
 42
-0.017311
  0
VERTEX
  8
0
 10
604.944915
 20
311.219778
 42
0.000000
  0
VERTEX
  8
0
 10
600.000000
 20
311.434934
 42
0.000000
  0
VERTEX
  8
0
 10
600.000000
 20
322.300801
 42
-0.005148
  0
VERTEX
  8
0
 10
600.055352
 20
327.676654
 42
-0.024606
  0
VERTEX
  8
0
 10
600.269304
 20
330.737147
 42
-0.046589
  0
VERTEX
  8
0
 10
600.636182
 20
332.440815
 42
-0.417862
  0
VERTEX
  8
0
 10
601.250000
 20
332.755679
 42
-0.193141
  0
VERTEX
  8
0
 10
601.765295
 20
332.322321
 42
-0.035662
  0
VERTEX
  8
0
 10
602.279688
 20
331.166355
 42
-0.033655
  0
VERTEX
  8
0
 10
602.717086
 20
329.645837
 42
-0.025063
  0
SEQEND
  0
POLYLINE
  8
0
 66
1
 70
1
  0
VERTEX
  8
0
 10
686.783832
 20
321.668646
 42
-0.004363
  0
VERTEX
  8
0
 10
686.889149
 20
315.776711
 42
-0.031456
  0
VERTEX
  8
0
 10
686.736690
 20
312.942626
 42
-0.082429
  0
VERTEX
  8
0
 10
686.318625
 20
311.494868
 42
-0.288960
  0
VERTEX
  8
0
 10
685.533832
 20
311.000000
 42
-0.292570
  0
VERTEX
  8
0
 10
684.737670
 20
311.509476
 42
-0.073827
  0
VERTEX
  8
0
 10
684.284598
 20
313.056478
 42
-0.029986
  0
VERTEX
  8
0
 10
684.053276
 20
316.032833
 42
-0.004403
  0
VERTEX
  8
0
 10
684.000000
 20
322.083333
 42
-0.005026
  0
VERTEX
  8
0
 10
684.055191
 20
327.573660
 42
-0.024137
  0
VERTEX
  8
0
 10
684.268842
 20
330.693749
 42
-0.045300
  0
VERTEX
  8
0
 10
684.634725
 20
332.434486
 42
-0.420852
  0
VERTEX
  8
0
 10
685.250000
 20
332.751979
 42
-0.259038
  0
VERTEX
  8
0
 10
685.851636
 20
332.097742
 42
-0.024777
  0
VERTEX
  8
0
 10
686.269439
 20
329.890347
 42
-0.020964
  0
VERTEX
  8
0
 10
686.586411
 20
326.584716
 42
-0.006769
  0
SEQEND
  0
POLYLINE
  8
0
 66
1
 70
1
  0
VERTEX
  8
0
 10
748.000000
 20
322.000000
 42
-0.007181
  0
VERTEX
  8
0
 10
747.935032
 20
317.476434
 42
-0.015486
  0
VERTEX
  8
0
 10
747.727273
 20
314.000000
 42
-0.010792
  0
VERTEX
  8
0
 10
747.431670
 20
311.377449
 42
-0.375539
  0
VERTEX
  8
0
 10
747.000000
 20
311.000000
 42
-0.111474
  0
VERTEX
  8
0
 10
746.618517
 20
311.086121
 42
-0.100072
  0
VERTEX
  8
0
 10
746.293750
 20
311.329718
 42
-0.094595
  0
VERTEX
  8
0
 10
746.075889
 20
311.693871
 42
-0.087854
  0
VERTEX
  8
0
 10
746.000000
 20
312.122445
 42
0.105392
  0
VERTEX
  8
0
 10
745.908322
 20
312.552550
 42
0.309591
  0
VERTEX
  8
0
 10
745.663283
 20
312.702890
 42
0.137480
  0
VERTEX
  8
0
 10
745.239824
 20
312.560961
 42
0.024024
  0
VERTEX
  8
0
 10
744.560472
 20
312.050187
 42
-0.134522
  0
VERTEX
  8
0
 10
742.466311
 20
311.101684
 42
-0.107435
  0
VERTEX
  8
0
 10
739.982614
 20
311.241418
 42
-0.102603
  0
VERTEX
  8
0
 10
737.689053
 20
312.420182
 42
-0.112051
  0
VERTEX
  8
0
 10
736.138998
 20
314.383165
 42
-0.038540
  0
VERTEX
  8
0
 10
735.512242
 20
316.007849
 42
-0.064080
  0
VERTEX
  8
0
 10
735.274213
 20
317.453830
 42
-0.057085
  0
VERTEX
  8
0
 10
735.398519
 20
319.026438
 42
-0.024547
  0
VERTEX
  8
0
 10
735.903658
 20
321.072775
 42
-0.061104
  0
VERTEX
  8
0
 10
737.036253
 20
323.656335
 42
-0.128129
  0
VERTEX
  8
0
 10
738.583380
 20
325.189047
 42
-0.129972
  0
VERTEX
  8
0
 10
740.665585
 20
325.759386
 42
-0.063777
  0
VERTEX
  8
0
 10
743.414958
 20
325.431988
 42
0.037066
  0
VERTEX
  8
0
 10
744.960848
 20
325.163749
 42
0.262490
  0
VERTEX
  8
0
 10
745.632178
 20
325.460080
 42
0.150447
  0
VERTEX
  8
0
 10
745.943133
 20
326.330660
 42
0.011101
  0
VERTEX
  8
0
 10
746.000000
 20
328.891592
 42
-0.022967
  0
VERTEX
  8
0
 10
746.072363
 20
330.466126
 42
-0.036744
  0
VERTEX
  8
0
 10
746.293750
 20
331.793155
 42
-0.042206
  0
VERTEX
  8
0
 10
746.612567
 20
332.745248
 42
-0.299314
  0
VERTEX
  8
0
 10
747.000000
 20
333.000000
 42
-0.375539
  0
VERTEX
  8
0
 10
747.431670
 20
332.622551
 42
-0.010792
  0
VERTEX
  8
0
 10
747.727273
 20
330.000000
 42
-0.015486
  0
VERTEX
  8
0
 10
747.935032
 20
326.523566
 42
-0.007181
  0
SEQEND
  0
POLYLINE
  8
0
 66
1
 70
1
  0
VERTEX
  8
0
 10
805.000000
 20
327.922346
 42
0.015290
  0
VERTEX
  8
0
 10
805.258885
 20
326.126380
 42
0.054456
  0
VERTEX
  8
0
 10
805.582376
 20
325.012095
 42
0.191131
  0
VERTEX
  8
0
 10
805.940882
 20
324.641676
 42
0.370823
  0
VERTEX
  8
0
 10
806.309017
 20
324.750000
 42
-0.169890
  0
VERTEX
  8
0
 10
807.461289
 20
325.643943
 42
-0.079050
  0
VERTEX
  8
0
 10
809.351726
 20
325.959651
 42
-0.075598
  0
VERTEX
  8
0
 10
811.343795
 20
325.672409
 42
-0.123442
  0
VERTEX
  8
0
 10
812.800000
 20
324.800000
 42
-0.177777
  0
VERTEX
  8
0
 10
813.720610
 20
322.811161
 42
-0.016789
  0
VERTEX
  8
0
 10
813.983096
 20
317.354499
 42
-0.013567
  0
VERTEX
  8
0
 10
813.913866
 20
311.878222
 42
-0.402611
  0
VERTEX
  8
0
 10
813.000000
 20
311.000000
 42
-0.318161
  0
VERTEX
  8
0
 10
812.610672
 20
311.275641
 42
-0.033420
  0
VERTEX
  8
0
 10
812.293750
 20
312.412606
 42
-0.031684
  0
VERTEX
  8
0
 10
812.072232
 20
313.965631
 42
-0.019586
  0
VERTEX
  8
0
 10
812.000000
 20
315.808870
 42
0.036758
  0
VERTEX
  8
0
 10
811.704144
 20
319.827800
 42
0.110085
  0
VERTEX
  8
0
 10
810.723484
 20
322.384543
 42
0.205381
  0
VERTEX
  8
0
 10
809.160510
 20
323.408843
 42
0.168158
  0
VERTEX
  8
0
 10
807.170835
 20
323.091428
 42
0.082169
  0
VERTEX
  8
0
 10
806.053129
 20
322.232239
 42
0.109151
  0
VERTEX
  8
0
 10
805.402458
 20
321.131881
 42
0.065160
  0
VERTEX
  8
0
 10
805.083859
 20
319.442861
 42
0.014077
  0
VERTEX
  8
0
 10
805.000000
 20
316.464816
 42
-0.012240
  0
VERTEX
  8
0
 10
804.933215
 20
313.737132
 42
-0.054786
  0
VERTEX
  8
0
 10
804.681379
 20
312.160803
 42
-0.118640
  0
VERTEX
  8
0
 10
804.214982
 20
311.315251
 42
-0.210676
  0
VERTEX
  8
0
 10
803.500000
 20
311.000000
 42
-0.299260
  0
VERTEX
  8
0
 10
802.725174
 20
311.509366
 42
-0.068398
  0
VERTEX
  8
0
 10
802.283835
 20
313.097222
 42
-0.029127
  0
VERTEX
  8
0
 10
802.053941
 20
316.105068
 42
-0.004511
  0
VERTEX
  8
0
 10
802.000000
 20
322.083333
 42
-0.005031
  0
VERTEX
  8
0
 10
802.055228
 20
327.572498
 42
-0.024123
  0
VERTEX
  8
0
 10
802.268925
 20
330.693778
 42
-0.045155
  0
VERTEX
  8
0
 10
802.634709
 20
332.436896
 42
-0.420249
  0
VERTEX
  8
0
 10
803.250000
 20
332.755679
 42
-0.193141
  0
VERTEX
  8
0
 10
803.765295
 20
332.322321
 42
-0.035662
  0
VERTEX
  8
0
 10
804.279688
 20
331.166355
 42
-0.033655
  0
VERTEX
  8
0
 10
804.717086
 20
329.645837
 42
-0.025063
  0
SEQEND
  0
POLYLINE
  8
0
 66
1
 70
1
  0
VERTEX
  8
0
 10
916.750467
 20
331.250000
 42
-0.152919
  0
VERTEX
  8
0
 10
916.759217
 20
330.761948
 42
-0.152857
  0
VERTEX
  8
0
 10
916.488036
 20
330.355990
 42
-0.110842
  0
VERTEX
  8
0
 10
915.945524
 20
330.088741
 42
-0.059304
  0
VERTEX
  8
0
 10
915.199965
 20
330.000000
 42
0.089822
  0
VERTEX
  8
0
 10
914.390081
 20
329.853326
 42
0.079775
  0
VERTEX
  8
0
 10
913.645231
 20
329.429284
 42
0.078313
  0
VERTEX
  8
0
 10
913.059386
 20
328.784751
 42
0.081593
  0
VERTEX
  8
0
 10
912.710251
 20
328.000000
 42
0.049229
  0
VERTEX
  8
0
 10
912.558360
 20
327.042979
 42
0.167579
  0
VERTEX
  8
0
 10
912.726188
 20
326.443690
 42
0.182942
  0
VERTEX
  8
0
 10
913.214569
 20
326.106846
 42
0.060551
  0
VERTEX
  8
0
 10
914.093620
 20
326.000000
 42
-0.081867
  0
VERTEX
  8
0
 10
915.487322
 20
325.770265
 42
-0.332756
  0
VERTEX
  8
0
 10
915.944316
 20
325.104563
 42
-0.258387
  0
VERTEX
  8
0
 10
915.457571
 20
324.304529
 42
-0.065777
  0
VERTEX
  8
0
 10
914.000000
 20
323.710251
 42
0.119045
  0
VERTEX
  8
0
 10
912.957472
 20
323.150487
 42
0.137744
  0
VERTEX
  8
0
 10
912.353510
 20
322.202605
 42
0.063547
  0
VERTEX
  8
0
 10
912.067665
 20
320.502889
 42
0.009923
  0
VERTEX
  8
0
 10
912.000000
 20
317.093620
 42
-0.015101
  0
VERTEX
  8
0
 10
911.928780
 20
314.736078
 42
-0.025569
  0
VERTEX
  8
0
 10
911.708973
 20
312.773405
 42
-0.023668
  0
VERTEX
  8
0
 10
911.396094
 20
311.305348
 42
-0.340706
  0
VERTEX
  8
0
 10
911.000000
 20
311.000000
 42
-0.345347
  0
VERTEX
  8
0
 10
910.599474
 20
311.314102
 42
-0.022017
  0
VERTEX
  8
0
 10
910.288462
 20
312.875000
 42
-0.024301
  0
VERTEX
  8
0
 10
910.070361
 20
314.963427
 42
-0.013867
  0
VERTEX
  8
0
 10
910.000000
 20
317.500000
 42
0.008338
  0
VERTEX
  8
0
 10
909.940271
 20
321.081564
 42
0.057168
  0
VERTEX
  8
0
 10
909.681469
 20
322.822674
 42
0.148805
  0
VERTEX
  8
0
 10
909.142631
 20
323.687477
 42
0.176801
  0
VERTEX
  8
0
 10
908.250000
 20
324.031803
 42
-0.011517
  0
VERTEX
  8
0
 10
907.161439
 20
324.076683
 42
-0.395521
  0
VERTEX
  8
0
 10
907.000000
 20
324.248840
 42
-0.228450
  0
VERTEX
  8
0
 10
907.132120
 20
324.522916
 42
-0.005777
  0
VERTEX
  8
0
 10
908.250000
 20
325.392046
 42
0.065390
  0
VERTEX
  8
0
 10
908.919745
 20
326.054466
 42
0.046826
  0
VERTEX
  8
0
 10
909.485937
 20
326.944213
 42
0.047212
  0
VERTEX
  8
0
 10
909.871472
 20
327.912888
 42
0.071227
  0
VERTEX
  8
0
 10
910.000000
 20
328.810552
 42
-0.179899
  0
VERTEX
  8
0
 10
910.814428
 20
331.000866
 42
-0.128715
  0
VERTEX
  8
0
 10
912.987915
 20
332.496761
 42
-0.154664
  0
VERTEX
  8
0
 10
915.335090
 20
332.590407
 42
-0.250650
  0
SEQEND
  0
POLYLINE
  8
0
 66
1
 70
1
  0
VERTEX
  8
0
 10
401.500000
 20
329.000000
 42
-0.074012
  0
VERTEX
  8
0
 10
401.119849
 20
328.549884
 42
-0.156529
  0
VERTEX
  8
0
 10
400.705698
 20
328.369302
 42
-0.153020
  0
VERTEX
  8
0
 10
400.257119
 20
328.461657
 42
-0.069780
  0
VERTEX
  8
0
 10
399.774265
 20
328.825735
 42
-0.088981
  0
VERTEX
  8
0
 10
399.446886
 20
329.296240
 42
-0.076381
  0
VERTEX
  8
0
 10
399.281199
 20
329.876926
 42
-0.077007
  0
VERTEX
  8
0
 10
399.298118
 20
330.476023
 42
-0.093176
  0
VERTEX
  8
0
 10
399.500000
 20
331.000000
 42
-0.074012
  0
VERTEX
  8
0
 10
399.880151
 20
331.450116
 42
-0.156529
  0
VERTEX
  8
0
 10
400.294302
 20
331.630698
 42
-0.153020
  0
VERTEX
  8
0
 10
400.742881
 20
331.538343
 42
-0.069780
  0
VERTEX
  8
0
 10
401.225735
 20
331.174265
 42
-0.088981
  0
VERTEX
  8
0
 10
401.553114
 20
330.703760
 42
-0.076381
  0
VERTEX
  8
0
 10
401.718801
 20
330.123074
 42
-0.077007
  0
VERTEX
  8
0
 10
401.701882
 20
329.523977
 42
-0.093176
  0
SEQEND
  0
POLYLINE
  8
0
 66
1
 70
1
  0
VERTEX
  8
0
 10
762.500000
 20
329.000000
 42
-0.074012
  0
VERTEX
  8
0
 10
762.119849
 20
328.549884
 42
-0.156529
  0
VERTEX
  8
0
 10
761.705698
 20
328.369302
 42
-0.153020
  0
VERTEX
  8
0
 10
761.257119
 20
328.461657
 42
-0.069780
  0
VERTEX
  8
0
 10
760.774265
 20
328.825735
 42
-0.088981
  0
VERTEX
  8
0
 10
760.446886
 20
329.296240
 42
-0.076381
  0
VERTEX
  8
0
 10
760.281199
 20
329.876926
 42
-0.077007
  0
VERTEX
  8
0
 10
760.298118
 20
330.476023
 42
-0.093176
  0
VERTEX
  8
0
 10
760.500000
 20
331.000000
 42
-0.074012
  0
VERTEX
  8
0
 10
760.880151
 20
331.450116
 42
-0.156529
  0
VERTEX
  8
0
 10
761.294302
 20
331.630698
 42
-0.153020
  0
VERTEX
  8
0
 10
761.742881
 20
331.538343
 42
-0.069780
  0
VERTEX
  8
0
 10
762.225735
 20
331.174265
 42
-0.088981
  0
VERTEX
  8
0
 10
762.553114
 20
330.703760
 42
-0.076381
  0
VERTEX
  8
0
 10
762.718801
 20
330.123074
 42
-0.077007
  0
VERTEX
  8
0
 10
762.701882
 20
329.523977
 42
-0.093176
  0
SEQEND
  0
POLYLINE
  8
0
 66
1
 70
1
  0
VERTEX
  8
0
 10
305.000000
 20
330.000000
 42
-0.254951
  0
VERTEX
  8
0
 10
304.790443
 20
329.615738
 42
-0.062710
  0
VERTEX
  8
0
 10
304.118750
 20
329.293750
 42
-0.048861
  0
VERTEX
  8
0
 10
303.149251
 20
329.072766
 42
-0.031626
  0
VERTEX
  8
0
 10
302.000000
 20
329.000000
 42
0.000000
  0
VERTEX
  8
0
 10
299.000000
 20
329.000000
 42
0.000000
  0
VERTEX
  8
0
 10
299.000000
 20
320.000000
 42
-0.005946
  0
VERTEX
  8
0
 10
298.943262
 20
315.229484
 42
-0.035355
  0
VERTEX
  8
0
 10
298.708333
 20
312.750000
 42
-0.084509
  0
VERTEX
  8
0
 10
298.256776
 20
311.447695
 42
-0.273642
  0
VERTEX
  8
0
 10
297.500000
 20
311.000000
 42
-0.273642
  0
VERTEX
  8
0
 10
296.743224
 20
311.447695
 42
-0.084509
  0
VERTEX
  8
0
 10
296.291667
 20
312.750000
 42
-0.035355
  0
VERTEX
  8
0
 10
296.056738
 20
315.229484
 42
-0.005946
  0
VERTEX
  8
0
 10
296.000000
 20
320.000000
 42
0.000000
  0
VERTEX
  8
0
 10
296.000000
 20
329.000000
 42
0.000000
  0
VERTEX
  8
0
 10
293.000000
 20
329.000000
 42
-0.031626
  0
VERTEX
  8
0
 10
291.850749
 20
329.072766
 42
-0.048861
  0
VERTEX
  8
0
 10
290.881250
 20
329.293750
 42
-0.062710
  0
VERTEX
  8
0
 10
290.209557
 20
329.615738
 42
-0.254951
  0
VERTEX
  8
0
 10
290.000000
 20
330.000000
 42
-0.354925
  0
VERTEX
  8
0
 10
290.332853
 20
330.409838
 42
-0.018508
  0
VERTEX
  8
0
 10
292.125000
 20
330.716667
 42
-0.021620
  0
VERTEX
  8
0
 10
294.522473
 20
330.931377
 42
-0.011522
  0
VERTEX
  8
0
 10
297.500000
 20
331.000000
 42
-0.011522
  0
VERTEX
  8
0
 10
300.477527
 20
330.931377
 42
-0.021620
  0
VERTEX
  8
0
 10
302.875000
 20
330.716667
 42
-0.018508
  0
VERTEX
  8
0
 10
304.667147
 20
330.409838
 42
-0.354925
  0
SEQEND
  0
POLYLINE
  8
0
 66
1
 70
1
  0
VERTEX
  8
0
 10
327.808333
 20
329.925000
 42
-0.073624
  0
VERTEX
  8
0
 10
327.600259
 20
329.514089
 42
-0.066918
  0
VERTEX
  8
0
 10
327.276198
 20
329.165781
 42
-0.070382
  0
VERTEX
  8
0
 10
326.889952
 20
328.930417
 42
-0.102038
  0
VERTEX
  8
0
 10
326.500000
 20
328.850000
 42
-0.102038
  0
VERTEX
  8
0
 10
326.110048
 20
328.930417
 42
-0.070382
  0
VERTEX
  8
0
 10
325.723802
 20
329.165781
 42
-0.066918
  0
VERTEX
  8
0
 10
325.399741
 20
329.514089
 42
-0.073624
  0
VERTEX
  8
0
 10
325.191667
 20
329.925000
 42
-0.159683
  0
VERTEX
  8
0
 10
325.189601
 20
330.333474
 42
-0.143818
  0
VERTEX
  8
0
 10
325.428177
 20
330.684219
 42
-0.107546
  0
VERTEX
  8
0
 10
325.888977
 20
330.920344
 42
-0.064908
  0
VERTEX
  8
0
 10
326.500000
 20
331.000000
 42
-0.064908
  0
VERTEX
  8
0
 10
327.111023
 20
330.920344
 42
-0.107546
  0
VERTEX
  8
0
 10
327.571823
 20
330.684219
 42
-0.143818
  0
VERTEX
  8
0
 10
327.810399
 20
330.333474
 42
-0.159683
  0
SEQEND
  0
POLYLINE
  8
0
 66
1
 70
1
  0
VERTEX
  8
0
 10
363.808333
 20
329.925000
 42
-0.073624
  0
VERTEX
  8
0
 10
363.600259
 20
329.514089
 42
-0.066918
  0
VERTEX
  8
0
 10
363.276198
 20
329.165781
 42
-0.070382
  0
VERTEX
  8
0
 10
362.889952
 20
328.930417
 42
-0.102038
  0
VERTEX
  8
0
 10
362.500000
 20
328.850000
 42
-0.102038
  0
VERTEX
  8
0
 10
362.110048
 20
328.930417
 42
-0.070382
  0
VERTEX
  8
0
 10
361.723802
 20
329.165781
 42
-0.066918
  0
VERTEX
  8
0
 10
361.399741
 20
329.514089
 42
-0.073624
  0
VERTEX
  8
0
 10
361.191667
 20
329.925000
 42
-0.159683
  0
VERTEX
  8
0
 10
361.189601
 20
330.333474
 42
-0.143818
  0
VERTEX
  8
0
 10
361.428177
 20
330.684219
 42
-0.107546
  0
VERTEX
  8
0
 10
361.888977
 20
330.920344
 42
-0.064908
  0
VERTEX
  8
0
 10
362.500000
 20
331.000000
 42
-0.064908
  0
VERTEX
  8
0
 10
363.111023
 20
330.920344
 42
-0.107546
  0
VERTEX
  8
0
 10
363.571823
 20
330.684219
 42
-0.143818
  0
VERTEX
  8
0
 10
363.810399
 20
330.333474
 42
-0.159683
  0
SEQEND
  0
POLYLINE
  8
0
 66
1
 70
1
  0
VERTEX
  8
0
 10
569.000000
 20
328.000000
 42
0.072254
  0
VERTEX
  8
0
 10
569.126841
 20
327.126841
 42
0.124864
  0
VERTEX
  8
0
 10
569.500000
 20
326.500000
 42
0.124864
  0
VERTEX
  8
0
 10
570.126841
 20
326.126841
 42
0.072254
  0
VERTEX
  8
0
 10
571.000000
 20
326.000000
 42
-0.042236
  0
VERTEX
  8
0
 10
571.765695
 20
325.935204
 42
-0.061847
  0
VERTEX
  8
0
 10
572.412500
 20
325.740510
 42
-0.081235
  0
VERTEX
  8
0
 10
572.851041
 20
325.454424
 42
-0.210700
  0
VERTEX
  8
0
 10
573.000000
 20
325.116631
 42
-0.181596
  0
VERTEX
  8
0
 10
572.858742
 20
324.740524
 42
-0.059916
  0
VERTEX
  8
0
 10
572.412500
 20
324.339118
 42
-0.050447
  0
VERTEX
  8
0
 10
571.765484
 20
323.975456
 42
-0.038887
  0
VERTEX
  8
0
 10
571.000000
 20
323.710251
 42
0.090564
  0
VERTEX
  8
0
 10
570.043907
 20
323.264322
 42
0.124020
  0
VERTEX
  8
0
 10
569.429608
 20
322.545229
 42
0.087169
  0
VERTEX
  8
0
 10
569.098089
 20
321.419057
 42
0.028105
  0
VERTEX
  8
0
 10
569.000000
 20
319.675407
 42
0.026052
  0
VERTEX
  8
0
 10
569.166344
 20
316.485083
 42
0.089179
  0
VERTEX
  8
0
 10
569.742166
 20
314.498118
 42
0.149720
  0
VERTEX
  8
0
 10
570.775940
 20
313.404319
 42
0.129815
  0
VERTEX
  8
0
 10
572.306989
 20
313.000000
 42
-0.025282
  0
VERTEX
  8
0
 10
573.262036
 20
312.951678
 42
-0.182160
  0
VERTEX
  8
0
 10
573.667590
 20
312.750000
 42
-0.330554
  0
VERTEX
  8
0
 10
573.704212
 20
312.419807
 42
-0.064429
  0
VERTEX
  8
0
 10
573.315335
 20
311.915335
 42
-0.097756
  0
VERTEX
  8
0
 10
572.730238
 20
311.523152
 42
-0.045419
  0
VERTEX
  8
0
 10
571.854473
 20
311.247598
 42
-0.042640
  0
VERTEX
  8
0
 10
570.850540
 20
311.117539
 42
-0.046072
  0
VERTEX
  8
0
 10
569.865335
 20
311.165335
 42
-0.091849
  0
VERTEX
  8
0
 10
568.556883
 20
311.604377
 42
-0.171542
  0
VERTEX
  8
0
 10
567.825544
 20
312.431361
 42
-0.075625
  0
VERTEX
  8
0
 10
567.443977
 20
314.036684
 42
-0.008699
  0
VERTEX
  8
0
 10
567.202283
 20
317.750000
 42
0.011248
  0
VERTEX
  8
0
 10
566.988765
 20
320.791216
 42
0.045136
  0
VERTEX
  8
0
 10
566.650165
 20
322.622858
 42
0.089857
  0
VERTEX
  8
0
 10
566.154189
 20
323.643755
 42
0.239244
  0
VERTEX
  8
0
 10
565.452283
 20
324.000000
 42
-0.067088
  0
VERTEX
  8
0
 10
564.897144
 20
324.074823
 42
-0.083963
  0
VERTEX
  8
0
 10
564.426608
 20
324.293750
 42
-0.099518
  0
VERTEX
  8
0
 10
564.111934
 20
324.618658
 42
-0.143731
  0
VERTEX
  8
0
 10
564.000000
 20
325.000000
 42
-0.148195
  0
VERTEX
  8
0
 10
564.115568
 20
325.381354
 42
-0.098894
  0
VERTEX
  8
0
 10
564.440625
 20
325.706250
 42
-0.082425
  0
VERTEX
  8
0
 10
564.926543
 20
325.925306
 42
-0.064853
  0
VERTEX
  8
0
 10
565.500000
 20
326.000000
 42
0.130775
  0
VERTEX
  8
0
 10
566.075754
 20
326.153209
 42
0.102140
  0
VERTEX
  8
0
 10
566.562500
 20
326.583333
 42
0.088920
  0
VERTEX
  8
0
 10
566.888136
 20
327.230589
 42
0.072314
  0
VERTEX
  8
0
 10
567.000000
 20
328.000000
 42
-0.048028
  0
VERTEX
  8
0
 10
567.073693
 20
328.765418
 42
-0.068025
  0
VERTEX
  8
0
 10
567.293750
 20
329.412500
 42
-0.088204
  0
VERTEX
  8
0
 10
567.618118
 20
329.848523
 42
-0.191087
  0
VERTEX
  8
0
 10
568.000000
 20
330.000000
 42
-0.191087
  0
VERTEX
  8
0
 10
568.381882
 20
329.848523
 42
-0.088204
  0
VERTEX
  8
0
 10
568.706250
 20
329.412500
 42
-0.068025
  0
VERTEX
  8
0
 10
568.926307
 20
328.765418
 42
-0.048028
  0
SEQEND
  0
POLYLINE
  8
0
 66
1
 70
1
  0
VERTEX
  8
0
 10
794.000000
 20
328.000000
 42
0.072254
  0
VERTEX
  8
0
 10
794.126841
 20
327.126841
 42
0.124864
  0
VERTEX
  8
0
 10
794.500000
 20
326.500000
 42
0.124864
  0
VERTEX
  8
0
 10
795.126841
 20
326.126841
 42
0.072254
  0
VERTEX
  8
0
 10
796.000000
 20
326.000000
 42
-0.042236
  0
VERTEX
  8
0
 10
796.765695
 20
325.935204
 42
-0.061847
  0
VERTEX
  8
0
 10
797.412500
 20
325.740510
 42
-0.081235
  0
VERTEX
  8
0
 10
797.851041
 20
325.454424
 42
-0.210700
  0
VERTEX
  8
0
 10
798.000000
 20
325.116631
 42
-0.181596
  0
VERTEX
  8
0
 10
797.858742
 20
324.740524
 42
-0.059916
  0
VERTEX
  8
0
 10
797.412500
 20
324.339118
 42
-0.050447
  0
VERTEX
  8
0
 10
796.765484
 20
323.975456
 42
-0.038887
  0
VERTEX
  8
0
 10
796.000000
 20
323.710251
 42
0.090564
  0
VERTEX
  8
0
 10
795.043907
 20
323.264322
 42
0.124020
  0
VERTEX
  8
0
 10
794.429608
 20
322.545229
 42
0.087169
  0
VERTEX
  8
0
 10
794.098089
 20
321.419057
 42
0.028105
  0
VERTEX
  8
0
 10
794.000000
 20
319.675407
 42
0.026052
  0
VERTEX
  8
0
 10
794.166344
 20
316.485083
 42
0.089179
  0
VERTEX
  8
0
 10
794.742166
 20
314.498118
 42
0.149720
  0
VERTEX
  8
0
 10
795.775940
 20
313.404319
 42
0.129815
  0
VERTEX
  8
0
 10
797.306989
 20
313.000000
 42
-0.025282
  0
VERTEX
  8
0
 10
798.262036
 20
312.951678
 42
-0.182160
  0
VERTEX
  8
0
 10
798.667590
 20
312.750000
 42
-0.330554
  0
VERTEX
  8
0
 10
798.704212
 20
312.419807
 42
-0.064429
  0
VERTEX
  8
0
 10
798.315335
 20
311.915335
 42
-0.097756
  0
VERTEX
  8
0
 10
797.730238
 20
311.523152
 42
-0.045419
  0
VERTEX
  8
0
 10
796.854473
 20
311.247598
 42
-0.042640
  0
VERTEX
  8
0
 10
795.850540
 20
311.117539
 42
-0.046072
  0
VERTEX
  8
0
 10
794.865335
 20
311.165335
 42
-0.091849
  0
VERTEX
  8
0
 10
793.556883
 20
311.604377
 42
-0.171542
  0
VERTEX
  8
0
 10
792.825544
 20
312.431361
 42
-0.075625
  0
VERTEX
  8
0
 10
792.443977
 20
314.036684
 42
-0.008699
  0
VERTEX
  8
0
 10
792.202283
 20
317.750000
 42
0.011248
  0
VERTEX
  8
0
 10
791.988765
 20
320.791216
 42
0.045136
  0
VERTEX
  8
0
 10
791.650165
 20
322.622858
 42
0.089857
  0
VERTEX
  8
0
 10
791.154189
 20
323.643755
 42
0.239244
  0
VERTEX
  8
0
 10
790.452283
 20
324.000000
 42
-0.067088
  0
VERTEX
  8
0
 10
789.897144
 20
324.074823
 42
-0.083963
  0
VERTEX
  8
0
 10
789.426608
 20
324.293750
 42
-0.099518
  0
VERTEX
  8
0
 10
789.111934
 20
324.618658
 42
-0.143731
  0
VERTEX
  8
0
 10
789.000000
 20
325.000000
 42
-0.148195
  0
VERTEX
  8
0
 10
789.115568
 20
325.381354
 42
-0.098894
  0
VERTEX
  8
0
 10
789.440625
 20
325.706250
 42
-0.082425
  0
VERTEX
  8
0
 10
789.926543
 20
325.925306
 42
-0.064853
  0
VERTEX
  8
0
 10
790.500000
 20
326.000000
 42
0.130775
  0
VERTEX
  8
0
 10
791.075754
 20
326.153209
 42
0.102140
  0
VERTEX
  8
0
 10
791.562500
 20
326.583333
 42
0.088920
  0
VERTEX
  8
0
 10
791.888136
 20
327.230589
 42
0.072314
  0
VERTEX
  8
0
 10
792.000000
 20
328.000000
 42
-0.048028
  0
VERTEX
  8
0
 10
792.073693
 20
328.765418
 42
-0.068025
  0
VERTEX
  8
0
 10
792.293750
 20
329.412500
 42
-0.088204
  0
VERTEX
  8
0
 10
792.618118
 20
329.848523
 42
-0.191087
  0
VERTEX
  8
0
 10
793.000000
 20
330.000000
 42
-0.191087
  0
VERTEX
  8
0
 10
793.381882
 20
329.848523
 42
-0.088204
  0
VERTEX
  8
0
 10
793.706250
 20
329.412500
 42
-0.068025
  0
VERTEX
  8
0
 10
793.926307
 20
328.765418
 42
-0.048028
  0
SEQEND
  0
POLYLINE
  8
0
 66
1
 70
1
  0
VERTEX
  8
0
 10
939.000000
 20
328.000000
 42
0.072254
  0
VERTEX
  8
0
 10
939.126841
 20
327.126841
 42
0.124864
  0
VERTEX
  8
0
 10
939.500000
 20
326.500000
 42
0.124864
  0
VERTEX
  8
0
 10
940.126841
 20
326.126841
 42
0.072254
  0
VERTEX
  8
0
 10
941.000000
 20
326.000000
 42
-0.042236
  0
VERTEX
  8
0
 10
941.765695
 20
325.935204
 42
-0.061847
  0
VERTEX
  8
0
 10
942.412500
 20
325.740510
 42
-0.081235
  0
VERTEX
  8
0
 10
942.851041
 20
325.454424
 42
-0.210700
  0
VERTEX
  8
0
 10
943.000000
 20
325.116631
 42
-0.181596
  0
VERTEX
  8
0
 10
942.858742
 20
324.740524
 42
-0.059916
  0
VERTEX
  8
0
 10
942.412500
 20
324.339118
 42
-0.050447
  0
VERTEX
  8
0
 10
941.765484
 20
323.975456
 42
-0.038887
  0
VERTEX
  8
0
 10
941.000000
 20
323.710251
 42
0.090564
  0
VERTEX
  8
0
 10
940.043907
 20
323.264322
 42
0.124020
  0
VERTEX
  8
0
 10
939.429608
 20
322.545229
 42
0.087169
  0
VERTEX
  8
0
 10
939.098089
 20
321.419057
 42
0.028105
  0
VERTEX
  8
0
 10
939.000000
 20
319.675407
 42
0.026052
  0
VERTEX
  8
0
 10
939.166344
 20
316.485083
 42
0.089179
  0
VERTEX
  8
0
 10
939.742166
 20
314.498118
 42
0.149720
  0
VERTEX
  8
0
 10
940.775940
 20
313.404319
 42
0.129815
  0
VERTEX
  8
0
 10
942.306989
 20
313.000000
 42
-0.025282
  0
VERTEX
  8
0
 10
943.262036
 20
312.951678
 42
-0.182160
  0
VERTEX
  8
0
 10
943.667590
 20
312.750000
 42
-0.330554
  0
VERTEX
  8
0
 10
943.704212
 20
312.419807
 42
-0.064429
  0
VERTEX
  8
0
 10
943.315335
 20
311.915335
 42
-0.097756
  0
VERTEX
  8
0
 10
942.730238
 20
311.523152
 42
-0.045419
  0
VERTEX
  8
0
 10
941.854473
 20
311.247598
 42
-0.042640
  0
VERTEX
  8
0
 10
940.850540
 20
311.117539
 42
-0.046072
  0
VERTEX
  8
0
 10
939.865335
 20
311.165335
 42
-0.087630
  0
VERTEX
  8
0
 10
938.566218
 20
311.589181
 42
-0.169243
  0
VERTEX
  8
0
 10
937.833456
 20
312.383190
 42
-0.079657
  0
VERTEX
  8
0
 10
937.443508
 20
313.903906
 42
-0.010031
  0
VERTEX
  8
0
 10
937.198571
 20
317.301120
 42
0.015526
  0
VERTEX
  8
0
 10
936.980505
 20
319.923567
 42
0.038675
  0
VERTEX
  8
0
 10
936.614841
 20
321.811433
 42
0.055495
  0
VERTEX
  8
0
 10
936.111975
 20
323.072245
 42
0.180421
  0
VERTEX
  8
0
 10
935.448571
 20
323.658109
 42
-0.089425
  0
VERTEX
  8
0
 10
934.396614
 20
324.295541
 42
-0.220890
  0
VERTEX
  8
0
 10
934.043160
 20
325.102490
 42
-0.277775
  0
VERTEX
  8
0
 10
934.454051
 20
325.752304
 42
-0.116792
  0
VERTEX
  8
0
 10
935.500000
 20
326.000000
 42
0.130775
  0
VERTEX
  8
0
 10
936.075754
 20
326.153209
 42
0.102140
  0
VERTEX
  8
0
 10
936.562500
 20
326.583333
 42
0.088920
  0
VERTEX
  8
0
 10
936.888136
 20
327.230589
 42
0.072314
  0
VERTEX
  8
0
 10
937.000000
 20
328.000000
 42
-0.048028
  0
VERTEX
  8
0
 10
937.073693
 20
328.765418
 42
-0.068025
  0
VERTEX
  8
0
 10
937.293750
 20
329.412500
 42
-0.088204
  0
VERTEX
  8
0
 10
937.618118
 20
329.848523
 42
-0.191087
  0
VERTEX
  8
0
 10
938.000000
 20
330.000000
 42
-0.191087
  0
VERTEX
  8
0
 10
938.381882
 20
329.848523
 42
-0.088204
  0
VERTEX
  8
0
 10
938.706250
 20
329.412500
 42
-0.068025
  0
VERTEX
  8
0
 10
938.926307
 20
328.765418
 42
-0.048028
  0
SEQEND
  0
POLYLINE
  8
0
 66
1
 70
1
  0
VERTEX
  8
0
 10
328.000000
 20
318.500000
 42
-0.007659
  0
VERTEX
  8
0
 10
327.940222
 20
314.597782
 42
-0.041714
  0
VERTEX
  8
0
 10
327.700000
 20
312.500000
 42
-0.098409
  0
VERTEX
  8
0
 10
327.241583
 20
311.396042
 42
-0.250296
  0
VERTEX
  8
0
 10
326.500000
 20
311.000000
 42
-0.250296
  0
VERTEX
  8
0
 10
325.758417
 20
311.396042
 42
-0.098409
  0
VERTEX
  8
0
 10
325.300000
 20
312.500000
 42
-0.041714
  0
VERTEX
  8
0
 10
325.059778
 20
314.597782
 42
-0.007659
  0
VERTEX
  8
0
 10
325.000000
 20
318.500000
 42
-0.007659
  0
VERTEX
  8
0
 10
325.059778
 20
322.402218
 42
-0.041714
  0
VERTEX
  8
0
 10
325.300000
 20
324.500000
 42
-0.098409
  0
VERTEX
  8
0
 10
325.758417
 20
325.603958
 42
-0.250296
  0
VERTEX
  8
0
 10
326.500000
 20
326.000000
 42
-0.250296
  0
VERTEX
  8
0
 10
327.241583
 20
325.603958
 42
-0.098409
  0
VERTEX
  8
0
 10
327.700000
 20
324.500000
 42
-0.041714
  0
VERTEX
  8
0
 10
327.940222
 20
322.402218
 42
-0.007659
  0
SEQEND
  0
POLYLINE
  8
0
 66
1
 70
1
  0
VERTEX
  8
0
 10
339.686371
 20
324.459532
 42
-0.268005
  0
VERTEX
  8
0
 10
339.603803
 20
324.067025
 42
-0.108829
  0
VERTEX
  8
0
 10
339.143825
 20
323.736589
 42
-0.068053
  0
VERTEX
  8
0
 10
338.358519
 20
323.519036
 42
-0.037401
  0
VERTEX
  8
0
 10
337.361107
 20
323.459532
 42
0.070976
  0
VERTEX
  8
0
 10
335.131092
 20
323.175839
 42
0.343932
  0
VERTEX
  8
0
 10
334.418680
 20
322.219050
 42
0.216529
  0
VERTEX
  8
0
 10
335.088878
 20
320.827954
 42
0.040601
  0
VERTEX
  8
0
 10
337.457876
 20
319.157355
 42
-0.060612
  0
VERTEX
  8
0
 10
339.714272
 20
317.427313
 42
-0.127479
  0
VERTEX
  8
0
 10
340.845499
 20
315.548710
 42
-0.167807
  0
VERTEX
  8
0
 10
340.764272
 20
313.707820
 42
-0.126026
  0
VERTEX
  8
0
 10
339.565324
 20
312.054214
 42
-0.142905
  0
VERTEX
  8
0
 10
337.774487
 20
311.278335
 42
-0.050618
  0
VERTEX
  8
0
 10
334.953790
 20
311.211190
 42
-0.050254
  0
VERTEX
  8
0
 10
332.313360
 20
311.685594
 42
-0.248856
  0
VERTEX
  8
0
 10
331.261068
 20
312.697831
 42
-0.240803
  0
VERTEX
  8
0
 10
331.337794
 20
313.186895
 42
-0.189693
  0
VERTEX
  8
0
 10
331.796198
 20
313.479195
 42
-0.071741
  0
VERTEX
  8
0
 10
332.784581
 20
313.528137
 42
-0.016781
  0
VERTEX
  8
0
 10
334.434056
 20
313.316988
 42
0.017193
  0
VERTEX
  8
0
 10
336.283148
 20
313.081836
 42
0.093368
  0
VERTEX
  8
0
 10
337.284740
 20
313.176351
 42
0.198140
  0
VERTEX
  8
0
 10
337.804122
 20
313.589098
 42
0.127710
  0
VERTEX
  8
0
 10
338.000000
 20
314.343477
 42
0.141389
  0
VERTEX
  8
0
 10
337.790786
 20
315.068543
 42
0.049578
  0
VERTEX
  8
0
 10
337.118750
 20
315.932835
 42
0.044410
  0
VERTEX
  8
0
 10
336.147939
 20
316.787839
 42
0.039031
  0
VERTEX
  8
0
 10
335.000000
 20
317.500000
 42
-0.009651
  0
VERTEX
  8
0
 10
333.850283
 20
318.122954
 42
-0.014774
  0
VERTEX
  8
0
 10
332.881250
 20
318.710955
 42
-0.009211
  0
VERTEX
  8
0
 10
332.110986
 20
319.230450
 42
-0.244455
  0
VERTEX
  8
0
 10
332.000000
 20
319.443893
 42
0.064667
  0
VERTEX
  8
0
 10
331.969894
 20
319.675699
 42
0.008771
  0
VERTEX
  8
0
 10
331.836231
 20
320.147893
 42
0.009984
  0
VERTEX
  8
0
 10
331.655955
 20
320.704241
 42
0.008271
  0
VERTEX
  8
0
 10
331.442490
 20
321.289274
 42
-0.202552
  0
VERTEX
  8
0
 10
331.495752
 20
322.888696
 42
-0.109792
  0
VERTEX
  8
0
 10
332.710063
 20
324.480442
 42
-0.094420
  0
VERTEX
  8
0
 10
334.677008
 20
325.586136
 42
-0.111137
  0
VERTEX
  8
0
 10
336.798601
 20
325.804291
 42
-0.035962
  0
VERTEX
  8
0
 10
337.798526
 20
325.611165
 42
-0.043309
  0
VERTEX
  8
0
 10
338.697587
 20
325.283748
 42
-0.048740
  0
VERTEX
  8
0
 10
339.380378
 20
324.880735
 42
-0.157230
  0
SEQEND
  0
POLYLINE
  8
0
 66
1
 70
1
  0
VERTEX
  8
0
 10
364.000000
 20
318.500000
 42
-0.007659
  0
VERTEX
  8
0
 10
363.940222
 20
314.597782
 42
-0.041714
  0
VERTEX
  8
0
 10
363.700000
 20
312.500000
 42
-0.098409
  0
VERTEX
  8
0
 10
363.241583
 20
311.396042
 42
-0.250296
  0
VERTEX
  8
0
 10
362.500000
 20
311.000000
 42
-0.250296
  0
VERTEX
  8
0
 10
361.758417
 20
311.396042
 42
-0.098409
  0
VERTEX
  8
0
 10
361.300000
 20
312.500000
 42
-0.041714
  0
VERTEX
  8
0
 10
361.059778
 20
314.597782
 42
-0.007659
  0
VERTEX
  8
0
 10
361.000000
 20
318.500000
 42
-0.007659
  0
VERTEX
  8
0
 10
361.059778
 20
322.402218
 42
-0.041714
  0
VERTEX
  8
0
 10
361.300000
 20
324.500000
 42
-0.098409
  0
VERTEX
  8
0
 10
361.758417
 20
325.603958
 42
-0.250296
  0
VERTEX
  8
0
 10
362.500000
 20
326.000000
 42
-0.250296
  0
VERTEX
  8
0
 10
363.241583
 20
325.603958
 42
-0.098409
  0
VERTEX
  8
0
 10
363.700000
 20
324.500000
 42
-0.041714
  0
VERTEX
  8
0
 10
363.940222
 20
322.402218
 42
-0.007659
  0
SEQEND
  0
POLYLINE
  8
0
 66
1
 70
1
  0
VERTEX
  8
0
 10
385.171259
 20
324.345012
 42
-0.059994
  0
VERTEX
  8
0
 10
385.871356
 20
323.539322
 42
-0.041706
  0
VERTEX
  8
0
 10
386.462807
 20
322.487330
 42
-0.042003
  0
VERTEX
  8
0
 10
386.866313
 20
321.364014
 42
-0.065317
  0
VERTEX
  8
0
 10
387.000000
 20
320.345012
 42
-0.074593
  0
VERTEX
  8
0
 10
386.804868
 20
319.044317
 42
-0.211687
  0
VERTEX
  8
0
 10
386.216954
 20
318.367251
 42
-0.099342
  0
VERTEX
  8
0
 10
384.977408
 20
318.063243
 42
-0.010619
  0
VERTEX
  8
0
 10
382.000000
 20
318.000000
 42
0.015038
  0
VERTEX
  8
0
 10
379.653079
 20
317.929397
 42
0.052221
  0
VERTEX
  8
0
 10
378.157405
 20
317.681122
 42
0.099631
  0
VERTEX
  8
0
 10
377.305530
 20
317.251130
 42
0.230123
  0
VERTEX
  8
0
 10
377.000000
 20
316.622445
 42
0.150751
  0
VERTEX
  8
0
 10
377.464018
 20
315.118402
 42
0.111188
  0
VERTEX
  8
0
 10
378.745843
 20
313.922269
 42
0.091017
  0
VERTEX
  8
0
 10
380.666649
 20
313.225841
 42
0.067805
  0
VERTEX
  8
0
 10
382.924810
 20
313.156061
 42
-0.031310
  0
VERTEX
  8
0
 10
384.103547
 20
313.205492
 42
-0.044882
  0
VERTEX
  8
0
 10
385.142323
 20
313.090350
 42
-0.053674
  0
VERTEX
  8
0
 10
385.914539
 20
312.845249
 42
-0.224818
  0
VERTEX
  8
0
 10
386.225171
 20
312.486710
 42
-0.444267
  0
VERTEX
  8
0
 10
385.610297
 20
311.515722
 42
-0.039248
  0
VERTEX
  8
0
 10
382.360772
 20
311.216961
 42
-0.038905
  0
VERTEX
  8
0
 10
378.750370
 20
311.450317
 42
-0.122990
  0
VERTEX
  8
0
 10
376.522727
 20
312.358371
 42
-0.160239
  0
VERTEX
  8
0
 10
375.028285
 20
314.446383
 42
-0.073936
  0
VERTEX
  8
0
 10
374.503785
 20
317.785136
 42
-0.071076
  0
VERTEX
  8
0
 10
374.976292
 20
321.298235
 42
-0.115498
  0
VERTEX
  8
0
 10
376.427715
 20
323.920126
 42
-0.100339
  0
VERTEX
  8
0
 10
378.355367
 20
325.341088
 42
-0.096967
  0
VERTEX
  8
0
 10
380.707970
 20
325.921514
 42
-0.096848
  0
VERTEX
  8
0
 10
383.108186
 20
325.572157
 42
-0.099813
  0
SEQEND
  0
POLYLINE
  8
0
 66
1
 70
1
  0
VERTEX
  8
0
 10
402.000000
 20
318.500000
 42
-0.007659
  0
VERTEX
  8
0
 10
401.940222
 20
314.597782
 42
-0.041714
  0
VERTEX
  8
0
 10
401.700000
 20
312.500000
 42
-0.098409
  0
VERTEX
  8
0
 10
401.241583
 20
311.396042
 42
-0.250296
  0
VERTEX
  8
0
 10
400.500000
 20
311.000000
 42
-0.250296
  0
VERTEX
  8
0
 10
399.758417
 20
311.396042
 42
-0.098409
  0
VERTEX
  8
0
 10
399.300000
 20
312.500000
 42
-0.041714
  0
VERTEX
  8
0
 10
399.059778
 20
314.597782
 42
-0.007659
  0
VERTEX
  8
0
 10
399.000000
 20
318.500000
 42
-0.007659
  0
VERTEX
  8
0
 10
399.059778
 20
322.402218
 42
-0.041714
  0
VERTEX
  8
0
 10
399.300000
 20
324.500000
 42
-0.098409
  0
VERTEX
  8
0
 10
399.758417
 20
325.603958
 42
-0.250296
  0
VERTEX
  8
0
 10
400.500000
 20
326.000000
 42
-0.250296
  0
VERTEX
  8
0
 10
401.241583
 20
325.603958
 42
-0.098409
  0
VERTEX
  8
0
 10
401.700000
 20
324.500000
 42
-0.041714
  0
VERTEX
  8
0
 10
401.940222
 20
322.402218
 42
-0.007659
  0
SEQEND
  0
POLYLINE
  8
0
 66
1
 70
1
  0
VERTEX
  8
0
 10
413.686371
 20
324.459532
 42
-0.268005
  0
VERTEX
  8
0
 10
413.603803
 20
324.067025
 42
-0.108829
  0
VERTEX
  8
0
 10
413.143825
 20
323.736589
 42
-0.068053
  0
VERTEX
  8
0
 10
412.358519
 20
323.519036
 42
-0.037401
  0
VERTEX
  8
0
 10
411.361107
 20
323.459532
 42
0.070976
  0
VERTEX
  8
0
 10
409.131092
 20
323.175839
 42
0.343932
  0
VERTEX
  8
0
 10
408.418680
 20
322.219050
 42
0.216529
  0
VERTEX
  8
0
 10
409.088878
 20
320.827954
 42
0.040601
  0
VERTEX
  8
0
 10
411.457876
 20
319.157355
 42
-0.060612
  0
VERTEX
  8
0
 10
413.714272
 20
317.427313
 42
-0.127479
  0
VERTEX
  8
0
 10
414.845499
 20
315.548710
 42
-0.167807
  0
VERTEX
  8
0
 10
414.764272
 20
313.707820
 42
-0.126026
  0
VERTEX
  8
0
 10
413.565324
 20
312.054214
 42
-0.142905
  0
VERTEX
  8
0
 10
411.774487
 20
311.278335
 42
-0.050618
  0
VERTEX
  8
0
 10
408.953790
 20
311.211190
 42
-0.050254
  0
VERTEX
  8
0
 10
406.313360
 20
311.685594
 42
-0.248856
  0
VERTEX
  8
0
 10
405.261068
 20
312.697831
 42
-0.240803
  0
VERTEX
  8
0
 10
405.337794
 20
313.186895
 42
-0.189693
  0
VERTEX
  8
0
 10
405.796198
 20
313.479195
 42
-0.071741
  0
VERTEX
  8
0
 10
406.784581
 20
313.528137
 42
-0.016781
  0
VERTEX
  8
0
 10
408.434056
 20
313.316988
 42
0.017193
  0
VERTEX
  8
0
 10
410.283148
 20
313.081836
 42
0.093368
  0
VERTEX
  8
0
 10
411.284740
 20
313.176351
 42
0.198140
  0
VERTEX
  8
0
 10
411.804122
 20
313.589098
 42
0.127710
  0
VERTEX
  8
0
 10
412.000000
 20
314.343477
 42
0.141389
  0
VERTEX
  8
0
 10
411.790786
 20
315.068543
 42
0.049578
  0
VERTEX
  8
0
 10
411.118750
 20
315.932835
 42
0.044410
  0
VERTEX
  8
0
 10
410.147939
 20
316.787839
 42
0.039031
  0
VERTEX
  8
0
 10
409.000000
 20
317.500000
 42
-0.009651
  0
VERTEX
  8
0
 10
407.850283
 20
318.122954
 42
-0.014774
  0
VERTEX
  8
0
 10
406.881250
 20
318.710955
 42
-0.009211
  0
VERTEX
  8
0
 10
406.110986
 20
319.230450
 42
-0.244455
  0
VERTEX
  8
0
 10
406.000000
 20
319.443893
 42
0.064667
  0
VERTEX
  8
0
 10
405.969894
 20
319.675699
 42
0.008771
  0
VERTEX
  8
0
 10
405.836231
 20
320.147893
 42
0.009984
  0
VERTEX
  8
0
 10
405.655955
 20
320.704241
 42
0.008271
  0
VERTEX
  8
0
 10
405.442490
 20
321.289274
 42
-0.202552
  0
VERTEX
  8
0
 10
405.495752
 20
322.888696
 42
-0.109792
  0
VERTEX
  8
0
 10
406.710063
 20
324.480442
 42
-0.094420
  0
VERTEX
  8
0
 10
408.677008
 20
325.586136
 42
-0.111137
  0
VERTEX
  8
0
 10
410.798601
 20
325.804291
 42
-0.035962
  0
VERTEX
  8
0
 10
411.798526
 20
325.611165
 42
-0.043309
  0
VERTEX
  8
0
 10
412.697587
 20
325.283748
 42
-0.048740
  0
VERTEX
  8
0
 10
413.380378
 20
324.880735
 42
-0.157230
  0
SEQEND
  0
POLYLINE
  8
0
 66
1
 70
1
  0
VERTEX
  8
0
 10
433.686371
 20
324.459532
 42
-0.268005
  0
VERTEX
  8
0
 10
433.603803
 20
324.067025
 42
-0.108829
  0
VERTEX
  8
0
 10
433.143825
 20
323.736589
 42
-0.068053
  0
VERTEX
  8
0
 10
432.358519
 20
323.519036
 42
-0.037401
  0
VERTEX
  8
0
 10
431.361107
 20
323.459532
 42
0.070976
  0
VERTEX
  8
0
 10
429.131092
 20
323.175839
 42
0.343932
  0
VERTEX
  8
0
 10
428.418680
 20
322.219050
 42
0.216529
  0
VERTEX
  8
0
 10
429.088878
 20
320.827954
 42
0.040601
  0
VERTEX
  8
0
 10
431.457876
 20
319.157355
 42
-0.060612
  0
VERTEX
  8
0
 10
433.714272
 20
317.427313
 42
-0.127479
  0
VERTEX
  8
0
 10
434.845499
 20
315.548710
 42
-0.167807
  0
VERTEX
  8
0
 10
434.764272
 20
313.707820
 42
-0.126026
  0
VERTEX
  8
0
 10
433.565324
 20
312.054214
 42
-0.142721
  0
VERTEX
  8
0
 10
431.823885
 20
311.298992
 42
-0.046483
  0
VERTEX
  8
0
 10
428.994245
 20
311.206228
 42
-0.045241
  0
VERTEX
  8
0
 10
426.323387
 20
311.611386
 42
-0.258940
  0
VERTEX
  8
0
 10
425.309948
 20
312.551191
 42
-0.317199
  0
VERTEX
  8
0
 10
425.432589
 20
312.950494
 42
-0.115325
  0
VERTEX
  8
0
 10
426.001128
 20
313.210445
 42
-0.057373
  0
VERTEX
  8
0
 10
427.033351
 20
313.297972
 42
-0.021551
  0
VERTEX
  8
0
 10
428.482936
 20
313.191785
 42
0.073137
  0
VERTEX
  8
0
 10
431.084104
 20
313.269312
 42
0.330152
  0
VERTEX
  8
0
 10
432.065617
 20
314.307765
 42
0.252434
  0
VERTEX
  8
0
 10
431.454768
 20
315.859205
 42
0.056039
  0
VERTEX
  8
0
 10
429.000000
 20
317.500000
 42
-0.009651
  0
VERTEX
  8
0
 10
427.850283
 20
318.122954
 42
-0.014774
  0
VERTEX
  8
0
 10
426.881250
 20
318.710955
 42
-0.009211
  0
VERTEX
  8
0
 10
426.110986
 20
319.230450
 42
-0.244455
  0
VERTEX
  8
0
 10
426.000000
 20
319.443893
 42
0.064667
  0
VERTEX
  8
0
 10
425.969894
 20
319.675699
 42
0.008771
  0
VERTEX
  8
0
 10
425.836231
 20
320.147893
 42
0.009984
  0
VERTEX
  8
0
 10
425.655955
 20
320.704241
 42
0.008271
  0
VERTEX
  8
0
 10
425.442490
 20
321.289274
 42
-0.202552
  0
VERTEX
  8
0
 10
425.495752
 20
322.888696
 42
-0.109792
  0
VERTEX
  8
0
 10
426.710063
 20
324.480442
 42
-0.094420
  0
VERTEX
  8
0
 10
428.677008
 20
325.586136
 42
-0.111137
  0
VERTEX
  8
0
 10
430.798601
 20
325.804291
 42
-0.035962
  0
VERTEX
  8
0
 10
431.798526
 20
325.611165
 42
-0.043309
  0
VERTEX
  8
0
 10
432.697587
 20
325.283748
 42
-0.048740
  0
VERTEX
  8
0
 10
433.380378
 20
324.880735
 42
-0.157230
  0
SEQEND
  0
POLYLINE
  8
0
 66
1
 70
1
  0
VERTEX
  8
0
 10
447.418213
 20
325.393011
 42
-0.069528
  0
VERTEX
  8
0
 10
448.022943
 20
325.058518
 42
-0.063161
  0
VERTEX
  8
0
 10
448.535350
 20
324.561426
 42
-0.066774
  0
VERTEX
  8
0
 10
448.882230
 20
323.984134
 42
-0.102283
  0
VERTEX
  8
0
 10
449.000000
 20
323.414450
 42
-0.110537
  0
VERTEX
  8
0
 10
448.861537
 20
322.795782
 42
-0.271539
  0
VERTEX
  8
0
 10
448.491071
 20
322.542253
 42
-0.109692
  0
VERTEX
  8
0
 10
447.779893
 20
322.648761
 42
-0.015091
  0
VERTEX
  8
0
 10
446.390453
 20
323.231867
 42
0.027877
  0
VERTEX
  8
0
 10
444.917796
 20
323.806085
 42
0.123710
  0
VERTEX
  8
0
 10
443.998014
 20
323.870461
 42
0.146853
  0
VERTEX
  8
0
 10
443.243247
 20
323.489044
 42
0.045003
  0
VERTEX
  8
0
 10
442.390453
 20
322.519298
 42
0.090768
  0
VERTEX
  8
0
 10
441.378770
 20
320.426734
 42
0.070276
  0
VERTEX
  8
0
 10
441.052540
 20
317.911325
 42
0.074801
  0
VERTEX
  8
0
 10
441.431402
 20
315.573686
 42
0.142981
  0
VERTEX
  8
0
 10
442.487014
 20
314.010777
 42
0.084789
  0
VERTEX
  8
0
 10
443.266481
 20
313.560801
 42
0.053565
  0
VERTEX
  8
0
 10
444.287139
 20
313.303064
 42
0.049531
  0
VERTEX
  8
0
 10
445.432456
 20
313.255687
 42
0.047101
  0
VERTEX
  8
0
 10
446.584886
 20
313.431949
 42
-0.021368
  0
VERTEX
  8
0
 10
447.816934
 20
313.685772
 42
-0.111608
  0
VERTEX
  8
0
 10
448.504050
 20
313.643217
 42
-0.269782
  0
VERTEX
  8
0
 10
448.793714
 20
313.338226
 42
-0.138414
  0
VERTEX
  8
0
 10
448.770573
 20
312.793616
 42
-0.174739
  0
VERTEX
  8
0
 10
448.364723
 20
312.274480
 42
-0.046009
  0
VERTEX
  8
0
 10
447.409138
 20
311.789885
 42
-0.040971
  0
VERTEX
  8
0
 10
446.147023
 20
311.405713
 42
-0.032227
  0
VERTEX
  8
0
 10
444.732953
 20
311.193227
 42
-0.107139
  0
VERTEX
  8
0
 10
441.715121
 20
311.583919
 42
-0.140494
  0
VERTEX
  8
0
 10
439.465972
 20
313.194261
 42
-0.130837
  0
VERTEX
  8
0
 10
438.309786
 20
315.853908
 42
-0.087036
  0
VERTEX
  8
0
 10
438.389213
 20
319.196064
 42
-0.069636
  0
VERTEX
  8
0
 10
439.622719
 20
322.722980
 42
-0.124083
  0
VERTEX
  8
0
 10
441.643657
 20
325.016074
 42
-0.141098
  0
VERTEX
  8
0
 10
444.310919
 20
325.903393
 42
-0.102157
  0
SEQEND
  0
POLYLINE
  8
0
 66
1
 70
1
  0
VERTEX
  8
0
 10
480.171259
 20
324.345012
 42
-0.059994
  0
VERTEX
  8
0
 10
480.871356
 20
323.539322
 42
-0.041706
  0
VERTEX
  8
0
 10
481.462807
 20
322.487330
 42
-0.042003
  0
VERTEX
  8
0
 10
481.866313
 20
321.364014
 42
-0.065317
  0
VERTEX
  8
0
 10
482.000000
 20
320.345012
 42
-0.074593
  0
VERTEX
  8
0
 10
481.804868
 20
319.044317
 42
-0.211687
  0
VERTEX
  8
0
 10
481.216954
 20
318.367251
 42
-0.099342
  0
VERTEX
  8
0
 10
479.977408
 20
318.063243
 42
-0.010619
  0
VERTEX
  8
0
 10
477.000000
 20
318.000000
 42
0.015038
  0
VERTEX
  8
0
 10
474.653079
 20
317.929397
 42
0.052221
  0
VERTEX
  8
0
 10
473.157405
 20
317.681122
 42
0.099631
  0
VERTEX
  8
0
 10
472.305530
 20
317.251130
 42
0.230123
  0
VERTEX
  8
0
 10
472.000000
 20
316.622445
 42
0.150751
  0
VERTEX
  8
0
 10
472.464018
 20
315.118402
 42
0.111188
  0
VERTEX
  8
0
 10
473.745843
 20
313.922269
 42
0.091017
  0
VERTEX
  8
0
 10
475.666649
 20
313.225841
 42
0.067805
  0
VERTEX
  8
0
 10
477.924810
 20
313.156061
 42
-0.044274
  0
VERTEX
  8
0
 10
480.199550
 20
313.192509
 42
-0.264817
  0
VERTEX
  8
0
 10
481.147530
 20
312.557484
 42
-0.409074
  0
VERTEX
  8
0
 10
480.875841
 20
311.720231
 42
-0.057264
  0
VERTEX
  8
0
 10
479.000000
 20
311.001268
 42
-0.105437
  0
VERTEX
  8
0
 10
474.921142
 20
310.831874
 42
-0.140069
  0
VERTEX
  8
0
 10
471.589634
 20
312.428535
 42
-0.144135
  0
VERTEX
  8
0
 10
469.666514
 20
315.501069
 42
-0.114039
  0
VERTEX
  8
0
 10
469.486023
 20
319.434383
 42
-0.101756
  0
VERTEX
  8
0
 10
470.992911
 20
323.163173
 42
-0.139174
  0
VERTEX
  8
0
 10
473.731473
 20
325.504482
 42
-0.156413
  0
VERTEX
  8
0
 10
477.043107
 20
325.905388
 42
-0.137284
  0
SEQEND
  0
POLYLINE
  8
0
 66
1
 70
1
  0
VERTEX
  8
0
 10
506.000000
 20
319.430939
 42
0.011904
  0
VERTEX
  8
0
 10
506.340053
 20
316.299216
 42
0.059502
  0
VERTEX
  8
0
 10
506.777641
 20
314.591393
 42
0.119281
  0
VERTEX
  8
0
 10
507.439055
 20
313.639250
 42
0.135424
  0
VERTEX
  8
0
 10
508.433903
 20
313.150047
 42
0.175861
  0
VERTEX
  8
0
 10
510.302412
 20
313.452271
 42
0.137312
  0
VERTEX
  8
0
 10
511.772424
 20
314.910683
 42
0.088704
  0
VERTEX
  8
0
 10
512.703072
 20
317.545813
 42
0.040660
  0
VERTEX
  8
0
 10
513.000000
 20
321.191130
 42
-0.019586
  0
VERTEX
  8
0
 10
513.072232
 20
323.034369
 42
-0.031684
  0
VERTEX
  8
0
 10
513.293750
 20
324.587394
 42
-0.033420
  0
VERTEX
  8
0
 10
513.610672
 20
325.724359
 42
-0.318161
  0
VERTEX
  8
0
 10
514.000000
 20
326.000000
 42
-0.354925
  0
VERTEX
  8
0
 10
514.409838
 20
325.667147
 42
-0.018508
  0
VERTEX
  8
0
 10
514.716667
 20
323.875000
 42
-0.021620
  0
VERTEX
  8
0
 10
514.931377
 20
321.477527
 42
-0.011522
  0
VERTEX
  8
0
 10
515.000000
 20
318.500000
 42
-0.011522
  0
VERTEX
  8
0
 10
514.931377
 20
315.522473
 42
-0.021620
  0
VERTEX
  8
0
 10
514.716667
 20
313.125000
 42
-0.018508
  0
VERTEX
  8
0
 10
514.409838
 20
311.332853
 42
-0.354925
  0
VERTEX
  8
0
 10
514.000000
 20
311.000000
 42
-0.119248
  0
VERTEX
  8
0
 10
513.618586
 20
311.092278
 42
-0.100665
  0
VERTEX
  8
0
 10
513.293750
 20
311.352500
 42
-0.092192
  0
VERTEX
  8
0
 10
513.075612
 20
311.741680
 42
-0.081935
  0
VERTEX
  8
0
 10
513.000000
 20
312.200000
 42
0.051663
  0
VERTEX
  8
0
 10
512.943785
 20
312.742599
 42
0.354955
  0
VERTEX
  8
0
 10
512.750000
 20
312.900000
 42
0.180052
  0
VERTEX
  8
0
 10
512.421376
 20
312.777696
 42
0.018208
  0
VERTEX
  8
0
 10
511.800000
 20
312.200000
 42
-0.137026
  0
VERTEX
  8
0
 10
510.038329
 20
311.207544
 42
-0.083939
  0
VERTEX
  8
0
 10
507.644506
 20
311.031996
 42
-0.086366
  0
VERTEX
  8
0
 10
505.391639
 20
311.647222
 42
-0.161510
  0
VERTEX
  8
0
 10
504.035184
 20
312.934259
 42
-0.099732
  0
VERTEX
  8
0
 10
503.160808
 20
315.836883
 42
-0.027641
  0
VERTEX
  8
0
 10
502.976704
 20
320.614503
 42
-0.022856
  0
VERTEX
  8
0
 10
503.258248
 20
325.116413
 42
-0.477035
  0
VERTEX
  8
0
 10
504.250000
 20
325.755484
 42
-0.218228
  0
VERTEX
  8
0
 10
504.786575
 20
325.258098
 42
-0.030914
  0
VERTEX
  8
0
 10
505.289319
 20
323.798695
 42
-0.029104
  0
VERTEX
  8
0
 10
505.714150
 20
321.822532
 42
-0.017304
  0
SEQEND
  0
POLYLINE
  8
0
 66
1
 70
1
  0
VERTEX
  8
0
 10
537.171259
 20
324.345012
 42
-0.059994
  0
VERTEX
  8
0
 10
537.871356
 20
323.539322
 42
-0.041706
  0
VERTEX
  8
0
 10
538.462807
 20
322.487330
 42
-0.042003
  0
VERTEX
  8
0
 10
538.866313
 20
321.364014
 42
-0.065317
  0
VERTEX
  8
0
 10
539.000000
 20
320.345012
 42
-0.074593
  0
VERTEX
  8
0
 10
538.804868
 20
319.044317
 42
-0.211687
  0
VERTEX
  8
0
 10
538.216954
 20
318.367251
 42
-0.099342
  0
VERTEX
  8
0
 10
536.977408
 20
318.063243
 42
-0.010619
  0
VERTEX
  8
0
 10
534.000000
 20
318.000000
 42
0.015038
  0
VERTEX
  8
0
 10
531.653079
 20
317.929397
 42
0.052221
  0
VERTEX
  8
0
 10
530.157405
 20
317.681122
 42
0.099631
  0
VERTEX
  8
0
 10
529.305530
 20
317.251130
 42
0.230123
  0
VERTEX
  8
0
 10
529.000000
 20
316.622445
 42
0.150751
  0
VERTEX
  8
0
 10
529.464018
 20
315.118402
 42
0.111188
  0
VERTEX
  8
0
 10
530.745843
 20
313.922269
 42
0.091017
  0
VERTEX
  8
0
 10
532.666649
 20
313.225841
 42
0.067805
  0
VERTEX
  8
0
 10
534.924810
 20
313.156061
 42
-0.031310
  0
VERTEX
  8
0
 10
536.103547
 20
313.205492
 42
-0.044882
  0
VERTEX
  8
0
 10
537.142323
 20
313.090350
 42
-0.053674
  0
VERTEX
  8
0
 10
537.914539
 20
312.845249
 42
-0.224818
  0
VERTEX
  8
0
 10
538.225171
 20
312.486710
 42
-0.444267
  0
VERTEX
  8
0
 10
537.610297
 20
311.515722
 42
-0.039248
  0
VERTEX
  8
0
 10
534.360772
 20
311.216961
 42
-0.038905
  0
VERTEX
  8
0
 10
530.750370
 20
311.450317
 42
-0.122990
  0
VERTEX
  8
0
 10
528.522727
 20
312.358371
 42
-0.160239
  0
VERTEX
  8
0
 10
527.028285
 20
314.446383
 42
-0.073936
  0
VERTEX
  8
0
 10
526.503785
 20
317.785136
 42
-0.071076
  0
VERTEX
  8
0
 10
526.976292
 20
321.298235
 42
-0.115498
  0
VERTEX
  8
0
 10
528.427715
 20
323.920126
 42
-0.100339
  0
VERTEX
  8
0
 10
530.355367
 20
325.341088
 42
-0.096967
  0
VERTEX
  8
0
 10
532.707970
 20
325.921514
 42
-0.096848
  0
VERTEX
  8
0
 10
535.108186
 20
325.572157
 42
-0.099813
  0
SEQEND
  0
POLYLINE
  8
0
 66
1
 70
1
  0
VERTEX
  8
0
 10
588.000000
 20
324.000000
 42
-0.111988
  0
VERTEX
  8
0
 10
589.382942
 20
321.805657
 42
-0.074688
  0
VERTEX
  8
0
 10
589.946896
 20
318.876551
 42
-0.072351
  0
VERTEX
  8
0
 10
589.629080
 20
315.812128
 42
-0.091055
  0
VERTEX
  8
0
 10
588.443296
 20
313.222506
 42
-0.063424
  0
VERTEX
  8
0
 10
587.496011
 20
312.180233
 42
-0.078791
  0
VERTEX
  8
0
 10
586.380000
 20
311.497275
 42
-0.066407
  0
VERTEX
  8
0
 10
584.957728
 20
311.119995
 42
-0.031679
  0
VERTEX
  8
0
 10
583.065741
 20
311.000000
 42
-0.056375
  0
VERTEX
  8
0
 10
580.237702
 20
311.319879
 42
-0.130210
  0
VERTEX
  8
0
 10
578.359699
 20
312.307696
 42
-0.121486
  0
VERTEX
  8
0
 10
577.138479
 20
314.148215
 42
-0.045822
  0
VERTEX
  8
0
 10
576.361286
 20
317.161083
 42
-0.146812
  0
VERTEX
  8
0
 10
576.956362
 20
321.689325
 42
-0.155571
  0
VERTEX
  8
0
 10
579.942023
 20
325.019696
 42
-0.165640
  0
VERTEX
  8
0
 10
584.149572
 20
325.885550
 42
-0.166527
  0
SEQEND
  0
POLYLINE
  8
0
 66
1
 70
1
  0
VERTEX
  8
0
 10
627.171259
 20
324.345012
 42
-0.059994
  0
VERTEX
  8
0
 10
627.871356
 20
323.539322
 42
-0.041706
  0
VERTEX
  8
0
 10
628.462807
 20
322.487330
 42
-0.042003
  0
VERTEX
  8
0
 10
628.866313
 20
321.364014
 42
-0.065317
  0
VERTEX
  8
0
 10
629.000000
 20
320.345012
 42
-0.074593
  0
VERTEX
  8
0
 10
628.804868
 20
319.044317
 42
-0.211687
  0
VERTEX
  8
0
 10
628.216954
 20
318.367251
 42
-0.099342
  0
VERTEX
  8
0
 10
626.977408
 20
318.063243
 42
-0.010619
  0
VERTEX
  8
0
 10
624.000000
 20
318.000000
 42
0.015038
  0
VERTEX
  8
0
 10
621.653079
 20
317.929397
 42
0.052221
  0
VERTEX
  8
0
 10
620.157405
 20
317.681122
 42
0.099631
  0
VERTEX
  8
0
 10
619.305530
 20
317.251130
 42
0.230123
  0
VERTEX
  8
0
 10
619.000000
 20
316.622445
 42
0.150751
  0
VERTEX
  8
0
 10
619.464018
 20
315.118402
 42
0.111188
  0
VERTEX
  8
0
 10
620.745843
 20
313.922269
 42
0.091017
  0
VERTEX
  8
0
 10
622.666649
 20
313.225841
 42
0.067805
  0
VERTEX
  8
0
 10
624.924810
 20
313.156061
 42
-0.031310
  0
VERTEX
  8
0
 10
626.103547
 20
313.205492
 42
-0.044882
  0
VERTEX
  8
0
 10
627.142323
 20
313.090350
 42
-0.053674
  0
VERTEX
  8
0
 10
627.914539
 20
312.845249
 42
-0.224818
  0
VERTEX
  8
0
 10
628.225171
 20
312.486710
 42
-0.359951
  0
VERTEX
  8
0
 10
628.046502
 20
312.085952
 42
-0.042737
  0
VERTEX
  8
0
 10
627.071665
 20
311.702262
 42
-0.035576
  0
VERTEX
  8
0
 10
625.651750
 20
311.387086
 42
-0.020604
  0
VERTEX
  8
0
 10
623.912412
 20
311.201842
 42
-0.053828
  0
VERTEX
  8
0
 10
620.365583
 20
311.353213
 42
-0.150740
  0
VERTEX
  8
0
 10
618.149691
 20
312.422058
 42
-0.151852
  0
VERTEX
  8
0
 10
616.930730
 20
314.547389
 42
-0.054889
  0
VERTEX
  8
0
 10
616.545455
 20
318.046436
 42
-0.111492
  0
VERTEX
  8
0
 10
617.510225
 20
322.319295
 42
-0.148984
  0
VERTEX
  8
0
 10
620.175638
 20
325.238855
 42
-0.170143
  0
VERTEX
  8
0
 10
623.732568
 20
325.952557
 42
-0.150247
  0
SEQEND
  0
POLYLINE
  8
0
 66
1
 70
1
  0
VERTEX
  8
0
 10
648.000000
 20
324.441367
 42
-0.157618
  0
VERTEX
  8
0
 10
647.831359
 20
323.919690
 42
-0.080401
  0
VERTEX
  8
0
 10
647.339062
 20
323.427774
 42
-0.066968
  0
VERTEX
  8
0
 10
646.610599
 20
323.038455
 42
-0.054053
  0
VERTEX
  8
0
 10
645.750000
 20
322.819551
 42
0.097407
  0
VERTEX
  8
0
 10
644.534611
 20
322.396067
 42
0.162301
  0
VERTEX
  8
0
 10
643.827231
 20
321.588757
 42
0.076094
  0
VERTEX
  8
0
 10
643.441644
 20
320.051971
 42
0.010457
  0
VERTEX
  8
0
 10
643.200096
 20
316.750000
 42
-0.012833
  0
VERTEX
  8
0
 10
642.985289
 20
313.993651
 42
-0.048037
  0
VERTEX
  8
0
 10
642.641546
 20
312.293018
 42
-0.092914
  0
VERTEX
  8
0
 10
642.142739
 20
311.336621
 42
-0.230129
  0
VERTEX
  8
0
 10
641.450096
 20
311.000000
 42
-0.257894
  0
VERTEX
  8
0
 10
640.742893
 20
311.390755
 42
-0.091318
  0
VERTEX
  8
0
 10
640.299887
 20
312.502836
 42
-0.040989
  0
VERTEX
  8
0
 10
640.061206
 20
314.568654
 42
-0.008274
  0
VERTEX
  8
0
 10
640.000000
 20
318.266932
 42
0.000000
  0
VERTEX
  8
0
 10
640.000000
 20
325.533863
 42
0.000000
  0
VERTEX
  8
0
 10
644.000000
 20
325.638747
 42
-0.021231
  0
VERTEX
  8
0
 10
645.771371
 20
325.609977
 42
-0.058105
  0
VERTEX
  8
0
 10
647.002242
 20
325.392633
 42
-0.100150
  0
VERTEX
  8
0
 10
647.736539
 20
325.000506
 42
-0.223796
  0
SEQEND
  0
POLYLINE
  8
0
 66
1
 70
1
  0
VERTEX
  8
0
 10
661.171259
 20
324.345012
 42
-0.059994
  0
VERTEX
  8
0
 10
661.871356
 20
323.539322
 42
-0.041706
  0
VERTEX
  8
0
 10
662.462807
 20
322.487330
 42
-0.042003
  0
VERTEX
  8
0
 10
662.866313
 20
321.364014
 42
-0.065317
  0
VERTEX
  8
0
 10
663.000000
 20
320.345012
 42
-0.074593
  0
VERTEX
  8
0
 10
662.804868
 20
319.044317
 42
-0.211687
  0
VERTEX
  8
0
 10
662.216954
 20
318.367251
 42
-0.099342
  0
VERTEX
  8
0
 10
660.977408
 20
318.063243
 42
-0.010619
  0
VERTEX
  8
0
 10
658.000000
 20
318.000000
 42
0.015038
  0
VERTEX
  8
0
 10
655.653079
 20
317.929397
 42
0.052221
  0
VERTEX
  8
0
 10
654.157405
 20
317.681122
 42
0.099631
  0
VERTEX
  8
0
 10
653.305530
 20
317.251130
 42
0.230123
  0
VERTEX
  8
0
 10
653.000000
 20
316.622445
 42
0.150751
  0
VERTEX
  8
0
 10
653.464018
 20
315.118402
 42
0.111188
  0
VERTEX
  8
0
 10
654.745843
 20
313.922269
 42
0.091017
  0
VERTEX
  8
0
 10
656.666649
 20
313.225841
 42
0.067805
  0
VERTEX
  8
0
 10
658.924810
 20
313.156061
 42
-0.044274
  0
VERTEX
  8
0
 10
661.199550
 20
313.192509
 42
-0.264817
  0
VERTEX
  8
0
 10
662.147530
 20
312.557484
 42
-0.409074
  0
VERTEX
  8
0
 10
661.875841
 20
311.720231
 42
-0.057264
  0
VERTEX
  8
0
 10
660.000000
 20
311.001268
 42
-0.142077
  0
VERTEX
  8
0
 10
654.939454
 20
311.156479
 42
-0.173645
  0
VERTEX
  8
0
 10
651.211804
 20
314.030386
 42
-0.172089
  0
VERTEX
  8
0
 10
650.135793
 20
318.640285
 42
-0.139644
  0
VERTEX
  8
0
 10
652.072580
 20
323.365141
 42
-0.092049
  0
VERTEX
  8
0
 10
654.083899
 20
325.131690
 42
-0.107875
  0
VERTEX
  8
0
 10
656.487852
 20
325.934204
 42
-0.110599
  0
VERTEX
  8
0
 10
658.960555
 20
325.653536
 42
-0.100900
  0
SEQEND
  0
POLYLINE
  8
0
 66
1
 70
1
  0
VERTEX
  8
0
 10
669.291667
 20
324.750000
 42
0.062037
  0
VERTEX
  8
0
 10
669.586056
 20
324.178067
 42
0.247772
  0
VERTEX
  8
0
 10
669.923333
 20
324.000000
 42
0.164145
  0
VERTEX
  8
0
 10
670.367600
 20
324.149887
 42
0.026382
  0
VERTEX
  8
0
 10
671.075000
 20
324.750000
 42
-0.175208
  0
VERTEX
  8
0
 10
673.897688
 20
325.974765
 42
-0.169960
  0
VERTEX
  8
0
 10
676.893144
 20
325.132148
 42
-0.136170
  0
VERTEX
  8
0
 10
679.181209
 20
322.355387
 42
-0.105017
  0
VERTEX
  8
0
 10
680.000000
 20
318.500000
 42
-0.070277
  0
VERTEX
  8
0
 10
679.541899
 20
315.256825
 42
-0.114616
  0
VERTEX
  8
0
 10
678.194405
 20
312.841485
 42
-0.130909
  0
VERTEX
  8
0
 10
676.070492
 20
311.470087
 42
-0.107719
  0
VERTEX
  8
0
 10
673.376744
 20
311.204183
 42
0.019599
  0
VERTEX
  8
0
 10
671.296838
 20
311.364705
 42
0.189281
  0
VERTEX
  8
0
 10
670.476004
 20
311.077755
 42
0.196272
  0
VERTEX
  8
0
 10
670.085844
 20
310.314860
 42
0.021285
  0
VERTEX
  8
0
 10
670.000000
 20
308.299199
 42
-0.028317
  0
VERTEX
  8
0
 10
669.915520
 20
306.808713
 42
-0.078531
  0
VERTEX
  8
0
 10
669.636336
 20
305.799867
 42
-0.128690
  0
VERTEX
  8
0
 10
669.161974
 20
305.216484
 42
-0.159362
  0
VERTEX
  8
0
 10
668.500000
 20
305.000000
 42
-0.292784
  0
VERTEX
  8
0
 10
667.729954
 20
305.493192
 42
-0.072528
  0
VERTEX
  8
0
 10
667.285714
 20
307.000000
 42
-0.030643
  0
VERTEX
  8
0
 10
667.054606
 20
309.860051
 42
-0.004841
  0
VERTEX
  8
0
 10
667.000000
 20
315.500000
 42
-0.010858
  0
VERTEX
  8
0
 10
667.131308
 20
321.545879
 42
-0.049898
  0
VERTEX
  8
0
 10
667.630903
 20
325.012159
 42
-0.402750
  0
VERTEX
  8
0
 10
668.414731
 20
325.505973
 42
-0.259552
  0
SEQEND
  0
POLYLINE
  8
0
 66
1
 70
1
  0
VERTEX
  8
0
 10
700.428571
 20
324.428571
 42
-0.098549
  0
VERTEX
  8
0
 10
701.129515
 20
323.379275
 42
-0.045991
  0
VERTEX
  8
0
 10
701.615709
 20
321.810618
 42
-0.035143
  0
VERTEX
  8
0
 10
701.907750
 20
319.713664
 42
-0.017032
  0
VERTEX
  8
0
 10
702.000000
 20
317.006300
 42
0.000000
  0
VERTEX
  8
0
 10
702.000000
 20
311.155457
 42
0.000000
  0
VERTEX
  8
0
 10
696.857173
 20
311.327728
 42
-0.079679
  0
VERTEX
  8
0
 10
691.920050
 20
312.290072
 42
-0.265966
  0
VERTEX
  8
0
 10
689.873372
 20
314.723073
 42
-0.299365
  0
VERTEX
  8
0
 10
691.034500
 20
317.452086
 42
-0.088870
  0
VERTEX
  8
0
 10
695.402115
 20
319.347799
 42
0.024475
  0
VERTEX
  8
0
 10
697.119227
 20
319.843735
 42
0.078170
  0
VERTEX
  8
0
 10
698.170627
 20
320.399326
 42
0.134045
  0
VERTEX
  8
0
 10
698.686690
 20
321.061337
 42
0.151260
  0
VERTEX
  8
0
 10
698.763262
 20
321.861597
 42
0.132032
  0
VERTEX
  8
0
 10
698.384076
 20
322.612914
 42
0.126708
  0
VERTEX
  8
0
 10
697.673965
 20
323.087123
 42
0.076195
  0
VERTEX
  8
0
 10
696.512770
 20
323.303965
 42
0.022942
  0
VERTEX
  8
0
 10
694.711429
 20
323.279902
 42
-0.022482
  0
VERTEX
  8
0
 10
693.288838
 20
323.259590
 42
-0.036779
  0
VERTEX
  8
0
 10
692.090232
 20
323.384945
 42
-0.042909
  0
VERTEX
  8
0
 10
691.230880
 20
323.616770
 42
-0.315245
  0
VERTEX
  8
0
 10
691.000000
 20
323.946568
 42
-0.318051
  0
VERTEX
  8
0
 10
691.960195
 20
325.303374
 42
-0.072121
  0
VERTEX
  8
0
 10
694.888234
 20
325.881901
 42
-0.064493
  0
VERTEX
  8
0
 10
698.222562
 20
325.622198
 42
-0.145734
  0
SEQEND
  0
POLYLINE
  8
0
 66
1
 70
1
  0
VERTEX
  8
0
 10
714.418213
 20
325.393011
 42
-0.069528
  0
VERTEX
  8
0
 10
715.022943
 20
325.058518
 42
-0.063161
  0
VERTEX
  8
0
 10
715.535350
 20
324.561426
 42
-0.066774
  0
VERTEX
  8
0
 10
715.882230
 20
323.984134
 42
-0.102283
  0
VERTEX
  8
0
 10
716.000000
 20
323.414450
 42
-0.110537
  0
VERTEX
  8
0
 10
715.861537
 20
322.795782
 42
-0.271539
  0
VERTEX
  8
0
 10
715.491071
 20
322.542253
 42
-0.109692
  0
VERTEX
  8
0
 10
714.779893
 20
322.648761
 42
-0.015091
  0
VERTEX
  8
0
 10
713.390453
 20
323.231867
 42
0.027877
  0
VERTEX
  8
0
 10
711.917796
 20
323.806085
 42
0.123710
  0
VERTEX
  8
0
 10
710.998014
 20
323.870461
 42
0.146853
  0
VERTEX
  8
0
 10
710.243247
 20
323.489044
 42
0.045003
  0
VERTEX
  8
0
 10
709.390453
 20
322.519298
 42
0.090768
  0
VERTEX
  8
0
 10
708.378770
 20
320.426734
 42
0.070276
  0
VERTEX
  8
0
 10
708.052540
 20
317.911325
 42
0.074801
  0
VERTEX
  8
0
 10
708.431402
 20
315.573686
 42
0.142981
  0
VERTEX
  8
0
 10
709.487014
 20
314.010777
 42
0.084789
  0
VERTEX
  8
0
 10
710.266481
 20
313.560801
 42
0.053565
  0
VERTEX
  8
0
 10
711.287139
 20
313.303064
 42
0.049531
  0
VERTEX
  8
0
 10
712.432456
 20
313.255687
 42
0.047101
  0
VERTEX
  8
0
 10
713.584886
 20
313.431949
 42
-0.021368
  0
VERTEX
  8
0
 10
714.816934
 20
313.685772
 42
-0.111608
  0
VERTEX
  8
0
 10
715.504050
 20
313.643217
 42
-0.269782
  0
VERTEX
  8
0
 10
715.793714
 20
313.338226
 42
-0.138414
  0
VERTEX
  8
0
 10
715.770573
 20
312.793616
 42
-0.173728
  0
VERTEX
  8
0
 10
715.366497
 20
312.274655
 42
-0.046359
  0
VERTEX
  8
0
 10
714.419351
 20
311.790494
 42
-0.041235
  0
VERTEX
  8
0
 10
713.168465
 20
311.407010
 42
-0.032533
  0
VERTEX
  8
0
 10
711.767718
 20
311.195299
 42
-0.095657
  0
VERTEX
  8
0
 10
709.053653
 20
311.483446
 42
-0.119517
  0
VERTEX
  8
0
 10
706.879626
 20
312.770164
 42
-0.115388
  0
VERTEX
  8
0
 10
705.485440
 20
314.951433
 42
-0.084943
  0
VERTEX
  8
0
 10
705.000000
 20
317.788248
 42
-0.092406
  0
VERTEX
  8
0
 10
705.732529
 20
321.718037
 42
-0.131487
  0
VERTEX
  8
0
 10
707.814939
 20
324.573801
 42
-0.143756
  0
VERTEX
  8
0
 10
710.889921
 20
325.851153
 42
-0.119201
  0
SEQEND
  0
POLYLINE
  8
0
 66
1
 70
1
  0
VERTEX
  8
0
 10
730.171259
 20
324.345012
 42
-0.059994
  0
VERTEX
  8
0
 10
730.871356
 20
323.539322
 42
-0.041706
  0
VERTEX
  8
0
 10
731.462807
 20
322.487330
 42
-0.042003
  0
VERTEX
  8
0
 10
731.866313
 20
321.364014
 42
-0.065317
  0
VERTEX
  8
0
 10
732.000000
 20
320.345012
 42
-0.074593
  0
VERTEX
  8
0
 10
731.804868
 20
319.044317
 42
-0.211687
  0
VERTEX
  8
0
 10
731.216954
 20
318.367251
 42
-0.099342
  0
VERTEX
  8
0
 10
729.977408
 20
318.063243
 42
-0.010619
  0
VERTEX
  8
0
 10
727.000000
 20
318.000000
 42
0.015038
  0
VERTEX
  8
0
 10
724.653079
 20
317.929397
 42
0.052221
  0
VERTEX
  8
0
 10
723.157405
 20
317.681122
 42
0.099631
  0
VERTEX
  8
0
 10
722.305530
 20
317.251130
 42
0.230123
  0
VERTEX
  8
0
 10
722.000000
 20
316.622445
 42
0.150751
  0
VERTEX
  8
0
 10
722.464018
 20
315.118402
 42
0.111188
  0
VERTEX
  8
0
 10
723.745843
 20
313.922269
 42
0.091017
  0
VERTEX
  8
0
 10
725.666649
 20
313.225841
 42
0.067805
  0
VERTEX
  8
0
 10
727.924810
 20
313.156061
 42
-0.031310
  0
VERTEX
  8
0
 10
729.103547
 20
313.205492
 42
-0.044882
  0
VERTEX
  8
0
 10
730.142323
 20
313.090350
 42
-0.053674
  0
VERTEX
  8
0
 10
730.914539
 20
312.845249
 42
-0.224818
  0
VERTEX
  8
0
 10
731.225171
 20
312.486710
 42
-0.444267
  0
VERTEX
  8
0
 10
730.610297
 20
311.515722
 42
-0.039248
  0
VERTEX
  8
0
 10
727.360772
 20
311.216961
 42
-0.038905
  0
VERTEX
  8
0
 10
723.750370
 20
311.450317
 42
-0.122990
  0
VERTEX
  8
0
 10
721.522727
 20
312.358371
 42
-0.160239
  0
VERTEX
  8
0
 10
720.028285
 20
314.446383
 42
-0.073936
  0
VERTEX
  8
0
 10
719.503785
 20
317.785136
 42
-0.071076
  0
VERTEX
  8
0
 10
719.976292
 20
321.298235
 42
-0.115498
  0
VERTEX
  8
0
 10
721.427715
 20
323.920126
 42
-0.100339
  0
VERTEX
  8
0
 10
723.355367
 20
325.341088
 42
-0.096967
  0
VERTEX
  8
0
 10
725.707970
 20
325.921514
 42
-0.096848
  0
VERTEX
  8
0
 10
728.108186
 20
325.572157
 42
-0.099813
  0
SEQEND
  0
POLYLINE
  8
0
 66
1
 70
1
  0
VERTEX
  8
0
 10
763.000000
 20
318.500000
 42
-0.007659
  0
VERTEX
  8
0
 10
762.940222
 20
314.597782
 42
-0.041714
  0
VERTEX
  8
0
 10
762.700000
 20
312.500000
 42
-0.098409
  0
VERTEX
  8
0
 10
762.241583
 20
311.396042
 42
-0.250296
  0
VERTEX
  8
0
 10
761.500000
 20
311.000000
 42
-0.250296
  0
VERTEX
  8
0
 10
760.758417
 20
311.396042
 42
-0.098409
  0
VERTEX
  8
0
 10
760.300000
 20
312.500000
 42
-0.041714
  0
VERTEX
  8
0
 10
760.059778
 20
314.597782
 42
-0.007659
  0
VERTEX
  8
0
 10
760.000000
 20
318.500000
 42
-0.007659
  0
VERTEX
  8
0
 10
760.059778
 20
322.402218
 42
-0.041714
  0
VERTEX
  8
0
 10
760.300000
 20
324.500000
 42
-0.098409
  0
VERTEX
  8
0
 10
760.758417
 20
325.603958
 42
-0.250296
  0
VERTEX
  8
0
 10
761.500000
 20
326.000000
 42
-0.250296
  0
VERTEX
  8
0
 10
762.241583
 20
325.603958
 42
-0.098409
  0
VERTEX
  8
0
 10
762.700000
 20
324.500000
 42
-0.041714
  0
VERTEX
  8
0
 10
762.940222
 20
322.402218
 42
-0.007659
  0
SEQEND
  0
POLYLINE
  8
0
 66
1
 70
1
  0
VERTEX
  8
0
 10
769.553851
 20
324.912868
 42
0.075363
  0
VERTEX
  8
0
 10
769.927179
 20
324.473233
 42
0.181024
  0
VERTEX
  8
0
 10
770.321227
 20
324.325735
 42
0.150038
  0
VERTEX
  8
0
 10
770.768438
 20
324.463023
 42
0.047458
  0
VERTEX
  8
0
 10
771.312868
 20
324.912868
 42
-0.126792
  0
VERTEX
  8
0
 10
772.665568
 20
325.711191
 42
-0.074718
  0
VERTEX
  8
0
 10
774.537246
 20
325.959245
 42
-0.074046
  0
VERTEX
  8
0
 10
776.418402
 20
325.645583
 42
-0.118641
  0
VERTEX
  8
0
 10
777.800000
 20
324.800000
 42
-0.177777
  0
VERTEX
  8
0
 10
778.720610
 20
322.811161
 42
-0.016789
  0
VERTEX
  8
0
 10
778.983096
 20
317.354499
 42
-0.013567
  0
VERTEX
  8
0
 10
778.913866
 20
311.878222
 42
-0.402611
  0
VERTEX
  8
0
 10
778.000000
 20
311.000000
 42
-0.318161
  0
VERTEX
  8
0
 10
777.610672
 20
311.275641
 42
-0.033420
  0
VERTEX
  8
0
 10
777.293750
 20
312.412606
 42
-0.031684
  0
VERTEX
  8
0
 10
777.072232
 20
313.965631
 42
-0.019586
  0
VERTEX
  8
0
 10
777.000000
 20
315.808870
 42
0.036758
  0
VERTEX
  8
0
 10
776.704144
 20
319.827800
 42
0.110085
  0
VERTEX
  8
0
 10
775.723484
 20
322.384543
 42
0.205381
  0
VERTEX
  8
0
 10
774.160510
 20
323.408843
 42
0.168158
  0
VERTEX
  8
0
 10
772.170835
 20
323.091428
 42
0.082169
  0
VERTEX
  8
0
 10
771.053129
 20
322.232239
 42
0.109151
  0
VERTEX
  8
0
 10
770.402458
 20
321.131881
 42
0.065160
  0
VERTEX
  8
0
 10
770.083859
 20
319.442861
 42
0.014077
  0
VERTEX
  8
0
 10
770.000000
 20
316.464816
 42
-0.012240
  0
VERTEX
  8
0
 10
769.933215
 20
313.737132
 42
-0.054786
  0
VERTEX
  8
0
 10
769.681379
 20
312.160803
 42
-0.118640
  0
VERTEX
  8
0
 10
769.214982
 20
311.315251
 42
-0.210676
  0
VERTEX
  8
0
 10
768.500000
 20
311.000000
 42
-0.250296
  0
VERTEX
  8
0
 10
767.758417
 20
311.396042
 42
-0.098409
  0
VERTEX
  8
0
 10
767.300000
 20
312.500000
 42
-0.041714
  0
VERTEX
  8
0
 10
767.059778
 20
314.597782
 42
-0.007659
  0
VERTEX
  8
0
 10
767.000000
 20
318.500000
 42
-0.014466
  0
VERTEX
  8
0
 10
767.129544
 20
322.976536
 42
-0.080454
  0
VERTEX
  8
0
 10
767.648844
 20
325.316095
 42
-0.390131
  0
VERTEX
  8
0
 10
768.500083
 20
325.725055
 42
-0.182267
  0
SEQEND
  0
POLYLINE
  8
0
 66
1
 70
1
  0
VERTEX
  8
0
 10
829.171259
 20
324.345012
 42
-0.059994
  0
VERTEX
  8
0
 10
829.871356
 20
323.539322
 42
-0.041706
  0
VERTEX
  8
0
 10
830.462807
 20
322.487330
 42
-0.042003
  0
VERTEX
  8
0
 10
830.866313
 20
321.364014
 42
-0.065317
  0
VERTEX
  8
0
 10
831.000000
 20
320.345012
 42
-0.074593
  0
VERTEX
  8
0
 10
830.804868
 20
319.044317
 42
-0.211687
  0
VERTEX
  8
0
 10
830.216954
 20
318.367251
 42
-0.099342
  0
VERTEX
  8
0
 10
828.977408
 20
318.063243
 42
-0.010619
  0
VERTEX
  8
0
 10
826.000000
 20
318.000000
 42
0.015038
  0
VERTEX
  8
0
 10
823.653079
 20
317.929397
 42
0.052221
  0
VERTEX
  8
0
 10
822.157405
 20
317.681122
 42
0.099631
  0
VERTEX
  8
0
 10
821.305530
 20
317.251130
 42
0.230123
  0
VERTEX
  8
0
 10
821.000000
 20
316.622445
 42
0.150751
  0
VERTEX
  8
0
 10
821.464018
 20
315.118402
 42
0.111188
  0
VERTEX
  8
0
 10
822.745843
 20
313.922269
 42
0.091017
  0
VERTEX
  8
0
 10
824.666649
 20
313.225841
 42
0.067805
  0
VERTEX
  8
0
 10
826.924810
 20
313.156061
 42
-0.031310
  0
VERTEX
  8
0
 10
828.103547
 20
313.205492
 42
-0.044882
  0
VERTEX
  8
0
 10
829.142323
 20
313.090350
 42
-0.053674
  0
VERTEX
  8
0
 10
829.914539
 20
312.845249
 42
-0.224818
  0
VERTEX
  8
0
 10
830.225171
 20
312.486710
 42
-0.362186
  0
VERTEX
  8
0
 10
830.044497
 20
312.085727
 42
-0.041701
  0
VERTEX
  8
0
 10
829.051110
 20
311.701423
 42
-0.035037
  0
VERTEX
  8
0
 10
827.608623
 20
311.385317
 42
-0.020289
  0
VERTEX
  8
0
 10
825.842437
 20
311.198984
 42
-0.018742
  0
VERTEX
  8
0
 10
823.297549
 20
311.130101
 42
-0.073957
  0
VERTEX
  8
0
 10
821.754129
 20
311.376111
 42
-0.104371
  0
VERTEX
  8
0
 10
820.633382
 20
312.008461
 42
-0.059595
  0
VERTEX
  8
0
 10
819.592437
 20
313.171490
 42
-0.170443
  0
VERTEX
  8
0
 10
818.128467
 20
318.392665
 42
-0.162517
  0
VERTEX
  8
0
 10
820.208426
 20
323.503695
 42
-0.191296
  0
VERTEX
  8
0
 10
824.624189
 20
325.825467
 42
-0.213562
  0
SEQEND
  0
POLYLINE
  8
0
 66
1
 70
1
  0
VERTEX
  8
0
 10
844.553851
 20
324.912868
 42
0.075363
  0
VERTEX
  8
0
 10
844.927179
 20
324.473233
 42
0.181024
  0
VERTEX
  8
0
 10
845.321227
 20
324.325735
 42
0.150038
  0
VERTEX
  8
0
 10
845.768438
 20
324.463023
 42
0.047458
  0
VERTEX
  8
0
 10
846.312868
 20
324.912868
 42
-0.126792
  0
VERTEX
  8
0
 10
847.665568
 20
325.711191
 42
-0.074718
  0
VERTEX
  8
0
 10
849.537246
 20
325.959245
 42
-0.074046
  0
VERTEX
  8
0
 10
851.418402
 20
325.645583
 42
-0.118641
  0
VERTEX
  8
0
 10
852.800000
 20
324.800000
 42
-0.177777
  0
VERTEX
  8
0
 10
853.720610
 20
322.811161
 42
-0.016789
  0
VERTEX
  8
0
 10
853.983096
 20
317.354499
 42
-0.013567
  0
VERTEX
  8
0
 10
853.913866
 20
311.878222
 42
-0.402611
  0
VERTEX
  8
0
 10
853.000000
 20
311.000000
 42
-0.318161
  0
VERTEX
  8
0
 10
852.610672
 20
311.275641
 42
-0.033420
  0
VERTEX
  8
0
 10
852.293750
 20
312.412606
 42
-0.031684
  0
VERTEX
  8
0
 10
852.072232
 20
313.965631
 42
-0.019586
  0
VERTEX
  8
0
 10
852.000000
 20
315.808870
 42
0.036758
  0
VERTEX
  8
0
 10
851.704144
 20
319.827800
 42
0.110085
  0
VERTEX
  8
0
 10
850.723484
 20
322.384543
 42
0.205381
  0
VERTEX
  8
0
 10
849.160510
 20
323.408843
 42
0.168158
  0
VERTEX
  8
0
 10
847.170835
 20
323.091428
 42
0.082169
  0
VERTEX
  8
0
 10
846.053129
 20
322.232239
 42
0.109151
  0
VERTEX
  8
0
 10
845.402458
 20
321.131881
 42
0.065160
  0
VERTEX
  8
0
 10
845.083859
 20
319.442861
 42
0.014077
  0
VERTEX
  8
0
 10
845.000000
 20
316.464816
 42
-0.012240
  0
VERTEX
  8
0
 10
844.933215
 20
313.737132
 42
-0.054786
  0
VERTEX
  8
0
 10
844.681379
 20
312.160803
 42
-0.118640
  0
VERTEX
  8
0
 10
844.214982
 20
311.315251
 42
-0.210676
  0
VERTEX
  8
0
 10
843.500000
 20
311.000000
 42
-0.250296
  0
VERTEX
  8
0
 10
842.758417
 20
311.396042
 42
-0.098409
  0
VERTEX
  8
0
 10
842.300000
 20
312.500000
 42
-0.041714
  0
VERTEX
  8
0
 10
842.059778
 20
314.597782
 42
-0.007659
  0
VERTEX
  8
0
 10
842.000000
 20
318.500000
 42
-0.014466
  0
VERTEX
  8
0
 10
842.129544
 20
322.976536
 42
-0.080454
  0
VERTEX
  8
0
 10
842.648844
 20
325.316095
 42
-0.390131
  0
VERTEX
  8
0
 10
843.500083
 20
325.725055
 42
-0.182267
  0
SEQEND
  0
POLYLINE
  8
0
 66
1
 70
1
  0
VERTEX
  8
0
 10
869.171259
 20
324.345012
 42
-0.059994
  0
VERTEX
  8
0
 10
869.871356
 20
323.539322
 42
-0.041706
  0
VERTEX
  8
0
 10
870.462807
 20
322.487330
 42
-0.042003
  0
VERTEX
  8
0
 10
870.866313
 20
321.364014
 42
-0.065317
  0
VERTEX
  8
0
 10
871.000000
 20
320.345012
 42
-0.074593
  0
VERTEX
  8
0
 10
870.804868
 20
319.044317
 42
-0.211687
  0
VERTEX
  8
0
 10
870.216954
 20
318.367251
 42
-0.099342
  0
VERTEX
  8
0
 10
868.977408
 20
318.063243
 42
-0.010619
  0
VERTEX
  8
0
 10
866.000000
 20
318.000000
 42
0.015038
  0
VERTEX
  8
0
 10
863.653079
 20
317.929397
 42
0.052221
  0
VERTEX
  8
0
 10
862.157405
 20
317.681122
 42
0.099631
  0
VERTEX
  8
0
 10
861.305530
 20
317.251130
 42
0.230123
  0
VERTEX
  8
0
 10
861.000000
 20
316.622445
 42
0.150751
  0
VERTEX
  8
0
 10
861.464018
 20
315.118402
 42
0.111188
  0
VERTEX
  8
0
 10
862.745843
 20
313.922269
 42
0.091017
  0
VERTEX
  8
0
 10
864.666649
 20
313.225841
 42
0.067805
  0
VERTEX
  8
0
 10
866.924810
 20
313.156061
 42
-0.044274
  0
VERTEX
  8
0
 10
869.199550
 20
313.192509
 42
-0.264817
  0
VERTEX
  8
0
 10
870.147530
 20
312.557484
 42
-0.409074
  0
VERTEX
  8
0
 10
869.875841
 20
311.720231
 42
-0.057264
  0
VERTEX
  8
0
 10
868.000000
 20
311.001268
 42
-0.105437
  0
VERTEX
  8
0
 10
863.921142
 20
310.831874
 42
-0.140069
  0
VERTEX
  8
0
 10
860.589634
 20
312.428535
 42
-0.144135
  0
VERTEX
  8
0
 10
858.666514
 20
315.501069
 42
-0.114039
  0
VERTEX
  8
0
 10
858.486023
 20
319.434383
 42
-0.101756
  0
VERTEX
  8
0
 10
859.992911
 20
323.163173
 42
-0.139174
  0
VERTEX
  8
0
 10
862.731473
 20
325.504482
 42
-0.156413
  0
VERTEX
  8
0
 10
866.043107
 20
325.905388
 42
-0.137284
  0
SEQEND
  0
POLYLINE
  8
0
 66
1
 70
1
  0
VERTEX
  8
0
 10
884.428571
 20
324.428571
 42
-0.098266
  0
VERTEX
  8
0
 10
885.127957
 20
323.382876
 42
-0.045907
  0
VERTEX
  8
0
 10
885.614484
 20
321.820262
 42
-0.035237
  0
VERTEX
  8
0
 10
885.907310
 20
319.737003
 42
-0.017302
  0
VERTEX
  8
0
 10
886.000000
 20
317.059219
 42
0.000000
  0
VERTEX
  8
0
 10
886.000000
 20
311.261295
 42
0.000000
  0
VERTEX
  8
0
 10
881.105533
 20
311.151025
 42
-0.041044
  0
VERTEX
  8
0
 10
877.342619
 20
311.375244
 42
-0.138619
  0
VERTEX
  8
0
 10
875.112187
 20
312.363389
 42
-0.217174
  0
VERTEX
  8
0
 10
874.292774
 20
314.057256
 42
-0.113075
  0
VERTEX
  8
0
 10
874.774088
 20
316.403523
 42
-0.075200
  0
VERTEX
  8
0
 10
875.473044
 20
317.475858
 42
-0.068031
  0
VERTEX
  8
0
 10
876.479751
 20
318.336229
 42
-0.059047
  0
VERTEX
  8
0
 10
877.812808
 20
318.985721
 42
-0.037510
  0
VERTEX
  8
0
 10
879.483456
 20
319.430918
 42
0.023569
  0
VERTEX
  8
0
 10
881.226375
 20
319.843749
 42
0.086648
  0
VERTEX
  8
0
 10
882.241643
 20
320.337402
 42
0.153304
  0
VERTEX
  8
0
 10
882.718679
 20
320.976611
 42
0.136148
  0
VERTEX
  8
0
 10
882.773775
 20
321.807009
 42
0.124048
  0
VERTEX
  8
0
 10
882.392599
 20
322.593658
 42
0.131987
  0
VERTEX
  8
0
 10
881.691753
 20
323.083793
 42
0.079254
  0
VERTEX
  8
0
 10
880.538078
 20
323.305253
 42
0.022682
  0
VERTEX
  8
0
 10
878.711429
 20
323.279902
 42
-0.022482
  0
VERTEX
  8
0
 10
877.288838
 20
323.259590
 42
-0.036779
  0
VERTEX
  8
0
 10
876.090232
 20
323.384945
 42
-0.042909
  0
VERTEX
  8
0
 10
875.230880
 20
323.616770
 42
-0.315245
  0
VERTEX
  8
0
 10
875.000000
 20
323.946568
 42
-0.318051
  0
VERTEX
  8
0
 10
875.960195
 20
325.303374
 42
-0.072121
  0
VERTEX
  8
0
 10
878.888234
 20
325.881901
 42
-0.064493
  0
VERTEX
  8
0
 10
882.222562
 20
325.622198
 42
-0.145734
  0
SEQEND
  0
POLYLINE
  8
0
 66
1
 70
1
  0
VERTEX
  8
0
 10
898.000000
 20
324.516567
 42
-0.150382
  0
VERTEX
  8
0
 10
897.830647
 20
323.966224
 42
-0.082069
  0
VERTEX
  8
0
 10
897.339062
 20
323.449864
 42
-0.069220
  0
VERTEX
  8
0
 10
896.610453
 20
323.044237
 42
-0.057234
  0
VERTEX
  8
0
 10
895.750000
 20
322.819551
 42
0.097407
  0
VERTEX
  8
0
 10
894.534611
 20
322.396067
 42
0.162301
  0
VERTEX
  8
0
 10
893.827231
 20
321.588757
 42
0.076094
  0
VERTEX
  8
0
 10
893.441644
 20
320.051971
 42
0.010457
  0
VERTEX
  8
0
 10
893.200096
 20
316.750000
 42
-0.012833
  0
VERTEX
  8
0
 10
892.985289
 20
313.993651
 42
-0.048037
  0
VERTEX
  8
0
 10
892.641546
 20
312.293018
 42
-0.092914
  0
VERTEX
  8
0
 10
892.142739
 20
311.336621
 42
-0.230129
  0
VERTEX
  8
0
 10
891.450096
 20
311.000000
 42
-0.258249
  0
VERTEX
  8
0
 10
890.742657
 20
311.391501
 42
-0.091118
  0
VERTEX
  8
0
 10
890.299746
 20
312.506383
 42
-0.040886
  0
VERTEX
  8
0
 10
890.061153
 20
314.577558
 42
-0.008241
  0
VERTEX
  8
0
 10
890.000000
 20
318.287507
 42
0.000000
  0
VERTEX
  8
0
 10
890.000000
 20
325.575014
 42
0.000000
  0
VERTEX
  8
0
 10
894.000000
 20
325.734523
 42
-0.019905
  0
VERTEX
  8
0
 10
895.844861
 20
325.734619
 42
-0.064042
  0
VERTEX
  8
0
 10
897.052979
 20
325.530145
 42
-0.119114
  0
VERTEX
  8
0
 10
897.743122
 20
325.123290
 42
-0.202972
  0
SEQEND
  0
POLYLINE
  8
0
 66
1
 70
1
  0
VERTEX
  8
0
 10
922.000000
 20
319.430939
 42
0.011904
  0
VERTEX
  8
0
 10
922.340053
 20
316.299216
 42
0.059502
  0
VERTEX
  8
0
 10
922.777641
 20
314.591393
 42
0.119281
  0
VERTEX
  8
0
 10
923.439055
 20
313.639250
 42
0.135424
  0
VERTEX
  8
0
 10
924.433903
 20
313.150047
 42
0.175861
  0
VERTEX
  8
0
 10
926.302412
 20
313.452271
 42
0.137312
  0
VERTEX
  8
0
 10
927.772424
 20
314.910683
 42
0.088704
  0
VERTEX
  8
0
 10
928.703072
 20
317.545813
 42
0.040660
  0
VERTEX
  8
0
 10
929.000000
 20
321.191130
 42
-0.019586
  0
VERTEX
  8
0
 10
929.072232
 20
323.034369
 42
-0.031684
  0
VERTEX
  8
0
 10
929.293750
 20
324.587394
 42
-0.033420
  0
VERTEX
  8
0
 10
929.610672
 20
325.724359
 42
-0.318161
  0
VERTEX
  8
0
 10
930.000000
 20
326.000000
 42
-0.354925
  0
VERTEX
  8
0
 10
930.409838
 20
325.667147
 42
-0.018508
  0
VERTEX
  8
0
 10
930.716667
 20
323.875000
 42
-0.021620
  0
VERTEX
  8
0
 10
930.931377
 20
321.477527
 42
-0.011522
  0
VERTEX
  8
0
 10
931.000000
 20
318.500000
 42
-0.011522
  0
VERTEX
  8
0
 10
930.931377
 20
315.522473
 42
-0.021620
  0
VERTEX
  8
0
 10
930.716667
 20
313.125000
 42
-0.018508
  0
VERTEX
  8
0
 10
930.409838
 20
311.332853
 42
-0.354925
  0
VERTEX
  8
0
 10
930.000000
 20
311.000000
 42
-0.119248
  0
VERTEX
  8
0
 10
929.618586
 20
311.092278
 42
-0.100665
  0
VERTEX
  8
0
 10
929.293750
 20
311.352500
 42
-0.092192
  0
VERTEX
  8
0
 10
929.075612
 20
311.741680
 42
-0.081935
  0
VERTEX
  8
0
 10
929.000000
 20
312.200000
 42
0.051663
  0
VERTEX
  8
0
 10
928.943785
 20
312.742599
 42
0.354955
  0
VERTEX
  8
0
 10
928.750000
 20
312.900000
 42
0.180052
  0
VERTEX
  8
0
 10
928.421376
 20
312.777696
 42
0.018208
  0
VERTEX
  8
0
 10
927.800000
 20
312.200000
 42
-0.137026
  0
VERTEX
  8
0
 10
926.038329
 20
311.207544
 42
-0.083939
  0
VERTEX
  8
0
 10
923.644506
 20
311.031996
 42
-0.086366
  0
VERTEX
  8
0
 10
921.391639
 20
311.647222
 42
-0.161510
  0
VERTEX
  8
0
 10
920.035184
 20
312.934259
 42
-0.099732
  0
VERTEX
  8
0
 10
919.160808
 20
315.836883
 42
-0.027641
  0
VERTEX
  8
0
 10
918.976704
 20
320.614503
 42
-0.022856
  0
VERTEX
  8
0
 10
919.258248
 20
325.116413
 42
-0.477035
  0
VERTEX
  8
0
 10
920.250000
 20
325.755484
 42
-0.218228
  0
VERTEX
  8
0
 10
920.786575
 20
325.258098
 42
-0.030914
  0
VERTEX
  8
0
 10
921.289319
 20
323.798695
 42
-0.029104
  0
VERTEX
  8
0
 10
921.714150
 20
321.822532
 42
-0.017304
  0
SEQEND
  0
POLYLINE
  8
0
 66
1
 70
1
  0
VERTEX
  8
0
 10
950.000000
 20
319.430939
 42
0.013317
  0
VERTEX
  8
0
 10
950.321244
 20
316.548357
 42
0.048039
  0
VERTEX
  8
0
 10
950.748643
 20
314.752310
 42
0.086110
  0
VERTEX
  8
0
 10
951.331225
 20
313.689495
 42
0.179448
  0
VERTEX
  8
0
 10
952.128622
 20
313.208839
 42
0.168440
  0
VERTEX
  8
0
 10
954.087051
 20
313.497622
 42
0.134799
  0
VERTEX
  8
0
 10
955.659567
 20
314.957096
 42
0.092235
  0
VERTEX
  8
0
 10
956.671035
 20
317.559243
 42
0.046730
  0
VERTEX
  8
0
 10
957.000000
 20
321.071429
 42
-0.019106
  0
VERTEX
  8
0
 10
957.072214
 20
322.960584
 42
-0.030952
  0
VERTEX
  8
0
 10
957.293750
 20
324.552232
 42
-0.032167
  0
VERTEX
  8
0
 10
957.610364
 20
325.721249
 42
-0.320877
  0
VERTEX
  8
0
 10
958.000000
 20
326.000000
 42
-0.354925
  0
VERTEX
  8
0
 10
958.409838
 20
325.667147
 42
-0.018508
  0
VERTEX
  8
0
 10
958.716667
 20
323.875000
 42
-0.021620
  0
VERTEX
  8
0
 10
958.931377
 20
321.477527
 42
-0.011522
  0
VERTEX
  8
0
 10
959.000000
 20
318.500000
 42
-0.011522
  0
VERTEX
  8
0
 10
958.931377
 20
315.522473
 42
-0.021620
  0
VERTEX
  8
0
 10
958.716667
 20
313.125000
 42
-0.018508
  0
VERTEX
  8
0
 10
958.409838
 20
311.332853
 42
-0.354925
  0
VERTEX
  8
0
 10
958.000000
 20
311.000000
 42
-0.119248
  0
VERTEX
  8
0
 10
957.618586
 20
311.092278
 42
-0.100665
  0
VERTEX
  8
0
 10
957.293750
 20
311.352500
 42
-0.092192
  0
VERTEX
  8
0
 10
957.075612
 20
311.741680
 42
-0.081935
  0
VERTEX
  8
0
 10
957.000000
 20
312.200000
 42
0.051663
  0
VERTEX
  8
0
 10
956.943785
 20
312.742599
 42
0.354955
  0
VERTEX
  8
0
 10
956.750000
 20
312.900000
 42
0.180052
  0
VERTEX
  8
0
 10
956.421376
 20
312.777696
 42
0.018208
  0
VERTEX
  8
0
 10
955.800000
 20
312.200000
 42
-0.137026
  0
VERTEX
  8
0
 10
954.038329
 20
311.207544
 42
-0.083939
  0
VERTEX
  8
0
 10
951.644506
 20
311.031996
 42
-0.086366
  0
VERTEX
  8
0
 10
949.391639
 20
311.647222
 42
-0.161510
  0
VERTEX
  8
0
 10
948.035184
 20
312.934259
 42
-0.099732
  0
VERTEX
  8
0
 10
947.160808
 20
315.836883
 42
-0.027641
  0
VERTEX
  8
0
 10
946.976704
 20
320.614503
 42
-0.022856
  0
VERTEX
  8
0
 10
947.258248
 20
325.116413
 42
-0.477035
  0
VERTEX
  8
0
 10
948.250000
 20
325.755484
 42
-0.218228
  0
VERTEX
  8
0
 10
948.786575
 20
325.258098
 42
-0.030914
  0
VERTEX
  8
0
 10
949.289319
 20
323.798695
 42
-0.029104
  0
VERTEX
  8
0
 10
949.714150
 20
321.822532
 42
-0.017304
  0
SEQEND
  0
POLYLINE
  8
0
 66
1
 70
1
  0
VERTEX
  8
0
 10
972.000000
 20
324.516567
 42
-0.150382
  0
VERTEX
  8
0
 10
971.830647
 20
323.966224
 42
-0.082069
  0
VERTEX
  8
0
 10
971.339062
 20
323.449864
 42
-0.069220
  0
VERTEX
  8
0
 10
970.610453
 20
323.044237
 42
-0.057234
  0
VERTEX
  8
0
 10
969.750000
 20
322.819551
 42
0.097407
  0
VERTEX
  8
0
 10
968.534611
 20
322.396067
 42
0.162301
  0
VERTEX
  8
0
 10
967.827231
 20
321.588757
 42
0.076094
  0
VERTEX
  8
0
 10
967.441644
 20
320.051971
 42
0.010457
  0
VERTEX
  8
0
 10
967.200096
 20
316.750000
 42
-0.012833
  0
VERTEX
  8
0
 10
966.985289
 20
313.993651
 42
-0.048037
  0
VERTEX
  8
0
 10
966.641546
 20
312.293018
 42
-0.092914
  0
VERTEX
  8
0
 10
966.142739
 20
311.336621
 42
-0.230129
  0
VERTEX
  8
0
 10
965.450096
 20
311.000000
 42
-0.258249
  0
VERTEX
  8
0
 10
964.742657
 20
311.391501
 42
-0.091118
  0
VERTEX
  8
0
 10
964.299746
 20
312.506383
 42
-0.040886
  0
VERTEX
  8
0
 10
964.061153
 20
314.577558
 42
-0.008241
  0
VERTEX
  8
0
 10
964.000000
 20
318.287507
 42
0.000000
  0
VERTEX
  8
0
 10
964.000000
 20
325.575014
 42
0.000000
  0
VERTEX
  8
0
 10
968.000000
 20
325.734523
 42
-0.019905
  0
VERTEX
  8
0
 10
969.844861
 20
325.734619
 42
-0.064042
  0
VERTEX
  8
0
 10
971.052979
 20
325.530145
 42
-0.119114
  0
VERTEX
  8
0
 10
971.743122
 20
325.123290
 42
-0.202972
  0
SEQEND
  0
POLYLINE
  8
0
 66
1
 70
1
  0
VERTEX
  8
0
 10
985.171259
 20
324.345012
 42
-0.059994
  0
VERTEX
  8
0
 10
985.871356
 20
323.539322
 42
-0.041706
  0
VERTEX
  8
0
 10
986.462807
 20
322.487330
 42
-0.042003
  0
VERTEX
  8
0
 10
986.866313
 20
321.364014
 42
-0.065317
  0
VERTEX
  8
0
 10
987.000000
 20
320.345012
 42
-0.074593
  0
VERTEX
  8
0
 10
986.804868
 20
319.044317
 42
-0.211687
  0
VERTEX
  8
0
 10
986.216954
 20
318.367251
 42
-0.099342
  0
VERTEX
  8
0
 10
984.977408
 20
318.063243
 42
-0.010619
  0
VERTEX
  8
0
 10
982.000000
 20
318.000000
 42
0.015038
  0
VERTEX
  8
0
 10
979.653079
 20
317.929397
 42
0.052221
  0
VERTEX
  8
0
 10
978.157405
 20
317.681122
 42
0.099631
  0
VERTEX
  8
0
 10
977.305530
 20
317.251130
 42
0.230123
  0
VERTEX
  8
0
 10
977.000000
 20
316.622445
 42
0.150751
  0
VERTEX
  8
0
 10
977.464018
 20
315.118402
 42
0.111188
  0
VERTEX
  8
0
 10
978.745843
 20
313.922269
 42
0.091017
  0
VERTEX
  8
0
 10
980.666649
 20
313.225841
 42
0.067805
  0
VERTEX
  8
0
 10
982.924810
 20
313.156061
 42
-0.050849
  0
VERTEX
  8
0
 10
985.075270
 20
313.162299
 42
-0.280816
  0
VERTEX
  8
0
 10
985.960514
 20
312.494569
 42
-0.381712
  0
VERTEX
  8
0
 10
985.641875
 20
311.627736
 42
-0.061175
  0
VERTEX
  8
0
 10
983.809017
 20
310.923036
 42
-0.121606
  0
VERTEX
  8
0
 10
979.833338
 20
310.911761
 42
-0.133953
  0
VERTEX
  8
0
 10
976.471440
 20
312.772497
 42
-0.135826
  0
VERTEX
  8
0
 10
974.550748
 20
316.058383
 42
-0.126526
  0
VERTEX
  8
0
 10
974.522452
 20
319.960967
 42
-0.099784
  0
VERTEX
  8
0
 10
976.181886
 20
323.455189
 42
-0.135309
  0
VERTEX
  8
0
 10
978.929570
 20
325.585611
 42
-0.150519
  0
VERTEX
  8
0
 10
982.154574
 20
325.882340
 42
-0.132904
  0
SEQEND
  0
POLYLINE
  8
0
 66
1
 70
1
  0
VERTEX
  8
0
 10
1189.559875
 20
234.548963
 42
-0.090825
  0
VERTEX
  8
0
 10
1190.513910
 20
232.285439
 42
-0.122649
  0
VERTEX
  8
0
 10
1190.455617
 20
230.073247
 42
-0.124303
  0
VERTEX
  8
0
 10
1189.370336
 20
228.167879
 42
-0.094826
  0
VERTEX
  8
0
 10
1187.404722
 20
226.774635
 42
-0.158989
  0
VERTEX
  8
0
 10
1183.914111
 20
226.381377
 42
-0.165691
  0
VERTEX
  8
0
 10
1180.931370
 20
228.135220
 42
-0.166003
  0
VERTEX
  8
0
 10
1179.643545
 20
231.342322
 42
-0.159553
  0
VERTEX
  8
0
 10
1180.557159
 20
234.727580
 42
-0.129689
  0
VERTEX
  8
0
 10
1182.479946
 20
236.458101
 42
-0.124314
  0
VERTEX
  8
0
 10
1185.037971
 20
237.050362
 42
-0.121957
  0
VERTEX
  8
0
 10
1187.608664
 20
236.359472
 42
-0.121972
  0
SEQEND
  0
POLYLINE
  8
0
 66
1
 70
1
  0
VERTEX
  8
0
 10
1101.376030
 20
176.874531
 42
-0.154298
  0
VERTEX
  8
0
 10
1103.784274
 20
174.703219
 42
-0.142717
  0
VERTEX
  8
0
 10
1104.600880
 20
171.469948
 42
-0.146145
  0
VERTEX
  8
0
 10
1103.548496
 20
168.360689
 42
-0.163141
  0
VERTEX
  8
0
 10
1101.001061
 20
166.500337
 42
-0.178157
  0
VERTEX
  8
0
 10
1096.818163
 20
166.689876
 42
-0.199268
  0
VERTEX
  8
0
 10
1093.996609
 20
169.544811
 42
-0.191659
  0
VERTEX
  8
0
 10
1093.966145
 20
173.655783
 42
-0.169586
  0
VERTEX
  8
0
 10
1096.762263
 20
176.926764
 42
-0.010023
  0
VERTEX
  8
0
 10
1098.196394
 20
177.724234
 42
-0.125341
  0
VERTEX
  8
0
 10
1098.795343
 20
177.869577
 42
-0.099183
  0
VERTEX
  8
0
 10
1099.438548
 20
177.733128
 42
-0.005191
  0
SEQEND
  0
POLYLINE
  8
0
 66
1
 70
1
  0
VERTEX
  8
0
 10
1168.038110
 20
151.750000
 42
-0.108993
  0
VERTEX
  8
0
 10
1173.423066
 20
147.357980
 42
-0.113414
  0
VERTEX
  8
0
 10
1176.364681
 20
141.167825
 42
-0.114106
  0
VERTEX
  8
0
 10
1176.300045
 20
134.345136
 42
-0.111381
  0
VERTEX
  8
0
 10
1173.254346
 20
128.175305
 42
-0.134199
  0
VERTEX
  8
0
 10
1166.327673
 20
123.192601
 42
-0.140585
  0
VERTEX
  8
0
 10
1157.960032
 20
122.543226
 42
-0.139542
  0
VERTEX
  8
0
 10
1150.474801
 20
126.432345
 42
-0.131557
  0
VERTEX
  8
0
 10
1145.952756
 20
133.763349
 42
-0.123173
  0
VERTEX
  8
0
 10
1145.630383
 20
140.768666
 42
-0.115335
  0
VERTEX
  8
0
 10
1148.613841
 20
147.294938
 42
-0.110899
  0
VERTEX
  8
0
 10
1154.304522
 20
152.005685
 42
-0.106992
  0
VERTEX
  8
0
 10
1161.538110
 20
153.909812
 42
-0.072708
  0
VERTEX
  8
0
 10
1162.610905
 20
153.801156
 42
-0.018678
  0
VERTEX
  8
0
 10
1164.288206
 20
153.312570
 42
-0.018616
  0
VERTEX
  8
0
 10
1166.180348
 20
152.604615
 42
-0.017952
  0
SEQEND
  0
POLYLINE
  8
0
 66
1
 70
1
  0
VERTEX
  8
0
 10
408.000000
 20
411.500000
 42
0.000000
  0
VERTEX
  8
0
 10
408.000000
 20
404.000000
 42
0.000000
  0
VERTEX
  8
0
 10
414.045455
 20
404.000000
 42
0.014876
  0
VERTEX
  8
0
 10
417.369201
 20
404.098911
 42
0.055462
  0
VERTEX
  8
0
 10
419.428176
 20
404.453008
 42
0.077107
  0
VERTEX
  8
0
 10
420.991873
 20
405.179696
 42
0.049154
  0
VERTEX
  8
0
 10
422.545455
 20
406.454545
 42
0.046014
  0
VERTEX
  8
0
 10
423.484854
 20
407.584818
 42
0.037190
  0
VERTEX
  8
0
 10
424.278977
 20
408.949148
 42
0.038507
  0
VERTEX
  8
0
 10
424.823919
 20
410.330305
 42
0.074846
  0
VERTEX
  8
0
 10
425.000000
 20
411.500000
 42
0.074846
  0
VERTEX
  8
0
 10
424.823919
 20
412.669695
 42
0.038507
  0
VERTEX
  8
0
 10
424.278977
 20
414.050852
 42
0.037190
  0
VERTEX
  8
0
 10
423.484854
 20
415.415182
 42
0.046014
  0
VERTEX
  8
0
 10
422.545455
 20
416.545455
 42
0.049154
  0
VERTEX
  8
0
 10
420.991873
 20
417.820304
 42
0.077107
  0
VERTEX
  8
0
 10
419.428176
 20
418.546992
 42
0.055462
  0
VERTEX
  8
0
 10
417.369201
 20
418.901089
 42
0.014876
  0
VERTEX
  8
0
 10
414.045455
 20
419.000000
 42
0.000000
  0
VERTEX
  8
0
 10
408.000000
 20
419.000000
 42
0.000000
  0
SEQEND
  0
POLYLINE
  8
0
 66
1
 70
1
  0
VERTEX
  8
0
 10
490.518857
 20
410.500000
 42
-0.000776
  0
VERTEX
  8
0
 10
489.730198
 20
408.653396
 42
-0.000423
  0
VERTEX
  8
0
 10
488.756774
 20
406.389222
 42
-0.000422
  0
VERTEX
  8
0
 10
487.763396
 20
404.089351
 42
-0.000670
  0
VERTEX
  8
0
 10
486.908925
 20
402.122882
 42
0.002911
  0
VERTEX
  8
0
 10
486.177395
 20
400.418491
 42
0.004370
  0
VERTEX
  8
0
 10
485.560747
 20
398.922008
 42
0.001860
  0
VERTEX
  8
0
 10
485.050246
 20
397.637941
 42
0.093947
  0
VERTEX
  8
0
 10
485.000000
 20
397.372882
 42
0.396953
  0
VERTEX
  8
0
 10
485.142260
 20
397.221927
 42
0.002403
  0
VERTEX
  8
0
 10
487.203125
 20
397.109534
 42
0.007759
  0
VERTEX
  8
0
 10
489.624185
 20
397.026803
 42
0.004660
  0
VERTEX
  8
0
 10
492.500000
 20
397.000000
 42
0.004902
  0
VERTEX
  8
0
 10
495.375808
 20
397.028194
 42
0.008161
  0
VERTEX
  8
0
 10
497.796875
 20
397.115217
 42
0.002655
  0
VERTEX
  8
0
 10
499.851028
 20
397.233584
 42
0.395917
  0
VERTEX
  8
0
 10
500.000000
 20
397.392229
 42
0.104298
  0
VERTEX
  8
0
 10
499.938576
 20
397.683488
 42
0.000662
  0
VERTEX
  8
0
 10
498.857293
 20
400.124336
 42
0.002643
  0
VERTEX
  8
0
 10
497.601057
 20
402.910246
 42
0.001678
  0
VERTEX
  8
0
 10
496.109932
 20
406.142229
 42
0.000000
  0
VERTEX
  8
0
 10
492.219864
 20
414.500000
 42
0.000000
  0
SEQEND
  0
POLYLINE
  8
0
 66
1
 70
1
  0
VERTEX
  8
0
 10
674.830485
 20
416.973206
 42
0.131797
  0
VERTEX
  8
0
 10
668.422520
 20
411.026619
 42
0.119703
  0
VERTEX
  8
0
 10
665.557513
 20
402.449307
 42
0.119844
  0
VERTEX
  8
0
 10
666.947519
 20
393.521479
 42
0.132311
  0
VERTEX
  8
0
 10
672.270733
 20
386.607073
 42
0.115022
  0
VERTEX
  8
0
 10
680.244867
 20
383.021476
 42
0.104354
  0
VERTEX
  8
0
 10
689.287696
 20
383.151941
 42
0.109501
  0
VERTEX
  8
0
 10
697.168507
 20
386.867015
 42
0.138604
  0
VERTEX
  8
0
 10
701.936382
 20
393.315100
 42
0.087566
  0
VERTEX
  8
0
 10
703.119024
 20
399.580590
 42
0.078243
  0
VERTEX
  8
0
 10
702.166266
 20
406.137564
 42
0.079402
  0
VERTEX
  8
0
 10
699.269527
 20
411.999962
 42
0.094816
  0
VERTEX
  8
0
 10
694.827464
 20
416.258643
 42
0.078184
  0
VERTEX
  8
0
 10
690.372741
 20
418.243767
 42
0.056921
  0
VERTEX
  8
0
 10
685.001115
 20
419.052519
 42
0.056540
  0
VERTEX
  8
0
 10
679.542970
 20
418.630085
 42
0.074082
  0
SEQEND
  0
POLYLINE
  8
0
 66
1
 70
1
  0
VERTEX
  8
0
 10
761.000000
 20
401.000000
 42
0.000000
  0
VERTEX
  8
0
 10
761.000000
 20
383.000000
 42
0.000000
  0
VERTEX
  8
0
 10
769.788110
 20
383.000000
 42
0.010625
  0
VERTEX
  8
0
 10
774.506976
 20
383.100289
 42
0.031437
  0
VERTEX
  8
0
 10
777.728403
 20
383.440937
 42
0.041395
  0
VERTEX
  8
0
 10
780.354193
 20
384.114069
 42
0.033354
  0
VERTEX
  8
0
 10
783.038110
 20
385.250000
 42
0.135018
  0
VERTEX
  8
0
 10
788.986121
 20
390.631863
 42
0.112889
  0
VERTEX
  8
0
 10
791.851679
 20
398.679208
 42
0.110654
  0
VERTEX
  8
0
 10
790.958692
 20
407.305550
 42
0.125544
  0
VERTEX
  8
0
 10
786.457489
 20
414.276611
 42
0.074800
  0
VERTEX
  8
0
 10
783.380206
 20
416.374440
 42
0.049478
  0
VERTEX
  8
0
 10
779.354638
 20
417.844579
 42
0.040234
  0
VERTEX
  8
0
 10
774.293104
 20
418.717862
 42
0.022610
  0
VERTEX
  8
0
 10
768.057180
 20
419.000000
 42
0.000000
  0
VERTEX
  8
0
 10
761.000000
 20
419.000000
 42
0.000000
  0
SEQEND
  0
POLYLINE
  8
0
 66
1
 70
1
  0
VERTEX
  8
0
 10
853.000000
 20
411.376170
 42
0.000000
  0
VERTEX
  8
0
 10
853.000000
 20
403.752340
 42
0.000000
  0
VERTEX
  8
0
 10
858.649858
 20
404.220870
 42
0.040095
  0
VERTEX
  8
0
 10
862.836819
 20
404.908962
 42
0.129600
  0
VERTEX
  8
0
 10
865.288968
 20
406.251115
 42
0.147039
  0
VERTEX
  8
0
 10
866.584900
 20
408.513197
 42
0.057128
  0
VERTEX
  8
0
 10
867.000000
 20
412.134426
 42
0.090523
  0
VERTEX
  8
0
 10
866.433936
 20
415.235434
 42
0.143411
  0
VERTEX
  8
0
 10
864.819573
 20
417.376810
 42
0.114466
  0
VERTEX
  8
0
 10
861.996065
 20
418.610684
 42
0.046045
  0
VERTEX
  8
0
 10
857.777494
 20
419.000000
 42
0.000000
  0
VERTEX
  8
0
 10
853.000000
 20
419.000000
 42
0.000000
  0
SEQEND
  0
POLYLINE
  8
0
 66
1
 70
1
  0
VERTEX
  8
0
 10
489.035184
 20
322.065741
 42
0.112894
  0
VERTEX
  8
0
 10
487.932359
 20
318.026960
 42
0.167934
  0
VERTEX
  8
0
 10
488.974486
 20
314.547919
 42
0.251228
  0
VERTEX
  8
0
 10
491.521343
 20
313.302769
 42
0.189173
  0
VERTEX
  8
0
 10
494.428571
 20
314.571429
 42
0.109829
  0
VERTEX
  8
0
 10
495.624453
 20
316.451135
 42
0.108007
  0
VERTEX
  8
0
 10
495.920847
 20
318.672293
 42
0.108491
  0
VERTEX
  8
0
 10
495.263731
 20
320.806708
 42
0.111708
  0
VERTEX
  8
0
 10
493.777494
 20
322.443296
 42
0.022991
  0
VERTEX
  8
0
 10
491.883591
 20
323.644016
 42
0.150755
  0
VERTEX
  8
0
 10
490.798970
 20
323.886341
 42
0.205081
  0
VERTEX
  8
0
 10
489.948517
 20
323.439255
 42
0.047748
  0
SEQEND
  0
POLYLINE
  8
0
 66
1
 70
1
  0
VERTEX
  8
0
 10
546.035184
 20
322.065741
 42
0.090089
  0
VERTEX
  8
0
 10
545.023781
 20
318.926766
 42
0.116629
  0
VERTEX
  8
0
 10
545.325451
 20
315.926078
 42
0.144194
  0
VERTEX
  8
0
 10
546.835990
 20
313.804923
 42
0.167943
  0
VERTEX
  8
0
 10
549.164816
 20
313.000000
 42
0.219433
  0
VERTEX
  8
0
 10
551.462102
 20
314.059202
 42
0.135219
  0
VERTEX
  8
0
 10
552.747527
 20
316.804195
 42
0.120158
  0
VERTEX
  8
0
 10
552.517850
 20
320.078723
 42
0.164097
  0
VERTEX
  8
0
 10
550.777494
 20
322.443296
 42
0.022991
  0
VERTEX
  8
0
 10
548.883591
 20
323.644016
 42
0.150755
  0
VERTEX
  8
0
 10
547.798970
 20
323.886341
 42
0.205081
  0
VERTEX
  8
0
 10
546.948517
 20
323.439255
 42
0.047748
  0
SEQEND
  0
POLYLINE
  8
0
 66
1
 70
1
  0
VERTEX
  8
0
 10
604.750000
 20
322.919901
 42
0.179917
  0
VERTEX
  8
0
 10
603.548320
 20
321.456052
 42
0.067186
  0
VERTEX
  8
0
 10
603.019185
 20
318.807153
 42
0.066098
  0
VERTEX
  8
0
 10
603.210381
 20
316.041103
 42
0.147144
  0
VERTEX
  8
0
 10
604.200000
 20
314.200000
 42
0.102853
  0
VERTEX
  8
0
 10
605.580849
 20
313.294497
 42
0.112677
  0
VERTEX
  8
0
 10
607.162492
 20
313.053805
 42
0.128134
  0
VERTEX
  8
0
 10
608.542723
 20
313.523898
 42
0.156571
  0
VERTEX
  8
0
 10
609.393011
 20
314.581787
 42
0.064731
  0
VERTEX
  8
0
 10
609.907621
 20
316.711158
 42
0.044999
  0
VERTEX
  8
0
 10
609.951976
 20
319.188143
 42
0.045986
  0
VERTEX
  8
0
 10
609.579321
 20
321.440852
 42
0.133167
  0
VERTEX
  8
0
 10
608.800000
 20
322.800000
 42
0.037588
  0
VERTEX
  8
0
 10
607.822694
 20
323.640462
 42
0.152548
  0
VERTEX
  8
0
 10
607.089600
 20
323.893497
 42
0.120271
  0
VERTEX
  8
0
 10
606.243755
 20
323.713393
 42
0.019559
  0
SEQEND
  0
POLYLINE
  8
0
 66
1
 70
1
  0
VERTEX
  8
0
 10
739.569446
 20
322.426589
 42
0.120128
  0
VERTEX
  8
0
 10
738.457559
 20
320.597854
 42
0.073425
  0
VERTEX
  8
0
 10
738.051652
 20
318.092008
 42
0.075492
  0
VERTEX
  8
0
 10
738.386718
 20
315.656153
 42
0.148752
  0
VERTEX
  8
0
 10
739.452012
 20
314.039826
 42
0.213080
  0
VERTEX
  8
0
 10
741.892586
 20
313.356901
 42
0.164627
  0
VERTEX
  8
0
 10
744.379134
 20
314.630529
 42
0.137343
  0
VERTEX
  8
0
 10
745.879613
 20
317.389415
 42
0.148977
  0
VERTEX
  8
0
 10
745.664334
 20
320.432349
 42
0.110912
  0
VERTEX
  8
0
 10
744.573483
 20
322.071017
 42
0.112047
  0
VERTEX
  8
0
 10
742.890387
 20
323.078503
 42
0.123468
  0
VERTEX
  8
0
 10
741.067921
 20
323.207249
 42
0.153753
  0
SEQEND
  0
POLYLINE
  8
0
 66
1
 70
1
  0
VERTEX
  8
0
 10
378.238321
 20
322.838321
 42
0.056208
  0
VERTEX
  8
0
 10
377.171479
 20
321.500272
 42
0.322869
  0
VERTEX
  8
0
 10
377.226003
 20
320.646906
 42
0.196923
  0
VERTEX
  8
0
 10
378.197310
 20
320.124430
 42
0.026167
  0
VERTEX
  8
0
 10
380.573324
 20
320.000000
 42
0.019057
  0
VERTEX
  8
0
 10
382.418438
 20
320.070350
 42
0.105144
  0
VERTEX
  8
0
 10
383.367286
 20
320.349100
 42
0.209458
  0
VERTEX
  8
0
 10
383.786630
 20
320.886535
 42
0.109935
  0
VERTEX
  8
0
 10
383.813108
 20
321.750000
 42
0.178087
  0
VERTEX
  8
0
 10
383.052375
 20
323.016754
 42
0.121773
  0
VERTEX
  8
0
 10
381.515198
 20
323.731340
 42
0.111640
  0
VERTEX
  8
0
 10
379.709311
 20
323.677938
 42
0.134166
  0
SEQEND
  0
POLYLINE
  8
0
 66
1
 70
1
  0
VERTEX
  8
0
 10
473.238321
 20
322.838321
 42
0.056208
  0
VERTEX
  8
0
 10
472.171479
 20
321.500272
 42
0.322869
  0
VERTEX
  8
0
 10
472.226003
 20
320.646906
 42
0.196923
  0
VERTEX
  8
0
 10
473.197310
 20
320.124430
 42
0.026167
  0
VERTEX
  8
0
 10
475.573324
 20
320.000000
 42
0.019057
  0
VERTEX
  8
0
 10
477.418438
 20
320.070350
 42
0.105144
  0
VERTEX
  8
0
 10
478.367286
 20
320.349100
 42
0.209458
  0
VERTEX
  8
0
 10
478.786630
 20
320.886535
 42
0.109935
  0
VERTEX
  8
0
 10
478.813108
 20
321.750000
 42
0.178087
  0
VERTEX
  8
0
 10
478.052375
 20
323.016754
 42
0.121773
  0
VERTEX
  8
0
 10
476.515198
 20
323.731340
 42
0.111640
  0
VERTEX
  8
0
 10
474.709311
 20
323.677938
 42
0.134166
  0
SEQEND
  0
POLYLINE
  8
0
 66
1
 70
1
  0
VERTEX
  8
0
 10
530.238321
 20
322.838321
 42
0.056208
  0
VERTEX
  8
0
 10
529.171479
 20
321.500272
 42
0.322869
  0
VERTEX
  8
0
 10
529.226003
 20
320.646906
 42
0.196923
  0
VERTEX
  8
0
 10
530.197310
 20
320.124430
 42
0.026167
  0
VERTEX
  8
0
 10
532.573324
 20
320.000000
 42
0.019057
  0
VERTEX
  8
0
 10
534.418438
 20
320.070350
 42
0.105144
  0
VERTEX
  8
0
 10
535.367286
 20
320.349100
 42
0.209458
  0
VERTEX
  8
0
 10
535.786630
 20
320.886535
 42
0.109935
  0
VERTEX
  8
0
 10
535.813108
 20
321.750000
 42
0.178087
  0
VERTEX
  8
0
 10
535.052375
 20
323.016754
 42
0.121773
  0
VERTEX
  8
0
 10
533.515198
 20
323.731340
 42
0.111640
  0
VERTEX
  8
0
 10
531.709311
 20
323.677938
 42
0.134166
  0
SEQEND
  0
POLYLINE
  8
0
 66
1
 70
1
  0
VERTEX
  8
0
 10
580.517425
 20
322.374568
 42
0.138023
  0
VERTEX
  8
0
 10
579.433800
 20
320.442227
 42
0.080202
  0
VERTEX
  8
0
 10
579.228478
 20
317.770860
 42
0.081398
  0
VERTEX
  8
0
 10
579.870520
 20
315.211521
 42
0.151942
  0
VERTEX
  8
0
 10
581.250000
 20
313.605964
 42
0.144731
  0
VERTEX
  8
0
 10
583.106354
 20
313.088308
 42
0.162203
  0
VERTEX
  8
0
 10
584.851655
 20
313.700043
 42
0.127665
  0
VERTEX
  8
0
 10
586.174985
 20
315.411806
 42
0.076517
  0
VERTEX
  8
0
 10
586.818231
 20
317.916173
 42
0.085657
  0
VERTEX
  8
0
 10
586.575326
 20
321.273783
 42
0.179873
  0
VERTEX
  8
0
 10
585.121270
 20
323.403491
 42
0.226937
  0
VERTEX
  8
0
 10
582.912523
 20
323.781475
 42
0.127833
  0
SEQEND
  0
POLYLINE
  8
0
 66
1
 70
1
  0
VERTEX
  8
0
 10
620.238321
 20
322.838321
 42
0.056208
  0
VERTEX
  8
0
 10
619.171479
 20
321.500272
 42
0.322869
  0
VERTEX
  8
0
 10
619.226003
 20
320.646906
 42
0.196923
  0
VERTEX
  8
0
 10
620.197310
 20
320.124430
 42
0.026167
  0
VERTEX
  8
0
 10
622.573324
 20
320.000000
 42
0.019057
  0
VERTEX
  8
0
 10
624.418438
 20
320.070350
 42
0.105144
  0
VERTEX
  8
0
 10
625.367286
 20
320.349100
 42
0.209458
  0
VERTEX
  8
0
 10
625.786630
 20
320.886535
 42
0.109935
  0
VERTEX
  8
0
 10
625.813108
 20
321.750000
 42
0.178087
  0
VERTEX
  8
0
 10
625.052375
 20
323.016754
 42
0.121773
  0
VERTEX
  8
0
 10
623.515198
 20
323.731340
 42
0.111640
  0
VERTEX
  8
0
 10
621.709311
 20
323.677938
 42
0.134166
  0
SEQEND
  0
POLYLINE
  8
0
 66
1
 70
1
  0
VERTEX
  8
0
 10
654.238321
 20
322.838321
 42
0.056208
  0
VERTEX
  8
0
 10
653.171479
 20
321.500272
 42
0.322869
  0
VERTEX
  8
0
 10
653.226003
 20
320.646906
 42
0.196923
  0
VERTEX
  8
0
 10
654.197310
 20
320.124430
 42
0.026167
  0
VERTEX
  8
0
 10
656.573324
 20
320.000000
 42
0.019057
  0
VERTEX
  8
0
 10
658.418438
 20
320.070350
 42
0.105144
  0
VERTEX
  8
0
 10
659.367286
 20
320.349100
 42
0.209458
  0
VERTEX
  8
0
 10
659.786630
 20
320.886535
 42
0.109935
  0
VERTEX
  8
0
 10
659.813108
 20
321.750000
 42
0.178087
  0
VERTEX
  8
0
 10
659.052375
 20
323.016754
 42
0.121773
  0
VERTEX
  8
0
 10
657.515198
 20
323.731340
 42
0.111640
  0
VERTEX
  8
0
 10
655.709311
 20
323.677938
 42
0.134166
  0
SEQEND
  0
POLYLINE
  8
0
 66
1
 70
1
  0
VERTEX
  8
0
 10
671.750000
 20
322.919901
 42
0.179917
  0
VERTEX
  8
0
 10
670.548320
 20
321.456052
 42
0.067186
  0
VERTEX
  8
0
 10
670.019185
 20
318.807153
 42
0.066098
  0
VERTEX
  8
0
 10
670.210381
 20
316.041103
 42
0.147144
  0
VERTEX
  8
0
 10
671.200000
 20
314.200000
 42
0.102853
  0
VERTEX
  8
0
 10
672.580849
 20
313.294497
 42
0.112677
  0
VERTEX
  8
0
 10
674.162492
 20
313.053805
 42
0.128134
  0
VERTEX
  8
0
 10
675.542723
 20
313.523898
 42
0.156571
  0
VERTEX
  8
0
 10
676.393011
 20
314.581787
 42
0.064731
  0
VERTEX
  8
0
 10
676.907621
 20
316.711158
 42
0.044999
  0
VERTEX
  8
0
 10
676.951976
 20
319.188143
 42
0.045986
  0
VERTEX
  8
0
 10
676.579321
 20
321.440852
 42
0.133167
  0
VERTEX
  8
0
 10
675.800000
 20
322.800000
 42
0.037588
  0
VERTEX
  8
0
 10
674.822694
 20
323.640462
 42
0.152548
  0
VERTEX
  8
0
 10
674.089600
 20
323.893497
 42
0.120271
  0
VERTEX
  8
0
 10
673.243755
 20
323.713393
 42
0.019559
  0
SEQEND
  0
POLYLINE
  8
0
 66
1
 70
1
  0
VERTEX
  8
0
 10
694.692914
 20
317.299681
 42
0.170977
  0
VERTEX
  8
0
 10
693.421620
 20
316.444317
 42
0.248535
  0
VERTEX
  8
0
 10
693.220225
 20
315.135353
 42
0.188634
  0
VERTEX
  8
0
 10
694.238690
 20
313.944250
 42
0.123240
  0
VERTEX
  8
0
 10
696.013695
 20
313.500000
 42
0.052183
  0
VERTEX
  8
0
 10
697.198689
 20
313.624011
 42
0.117372
  0
VERTEX
  8
0
 10
698.010438
 20
314.008370
 42
0.125287
  0
VERTEX
  8
0
 10
698.529802
 20
314.697799
 42
0.063904
  0
VERTEX
  8
0
 10
698.819551
 20
315.750000
 42
0.075482
  0
VERTEX
  8
0
 10
698.806640
 20
317.095029
 42
0.269044
  0
VERTEX
  8
0
 10
698.282023
 20
317.735979
 42
0.136212
  0
VERTEX
  8
0
 10
697.126188
 20
317.838515
 42
0.017827
  0
SEQEND
  0
POLYLINE
  8
0
 66
1
 70
1
  0
VERTEX
  8
0
 10
723.238321
 20
322.838321
 42
0.056208
  0
VERTEX
  8
0
 10
722.171479
 20
321.500272
 42
0.322869
  0
VERTEX
  8
0
 10
722.226003
 20
320.646906
 42
0.196923
  0
VERTEX
  8
0
 10
723.197310
 20
320.124430
 42
0.026167
  0
VERTEX
  8
0
 10
725.573324
 20
320.000000
 42
0.019057
  0
VERTEX
  8
0
 10
727.418438
 20
320.070350
 42
0.105144
  0
VERTEX
  8
0
 10
728.367286
 20
320.349100
 42
0.209458
  0
VERTEX
  8
0
 10
728.786630
 20
320.886535
 42
0.109935
  0
VERTEX
  8
0
 10
728.813108
 20
321.750000
 42
0.178087
  0
VERTEX
  8
0
 10
728.052375
 20
323.016754
 42
0.121773
  0
VERTEX
  8
0
 10
726.515198
 20
323.731340
 42
0.111640
  0
VERTEX
  8
0
 10
724.709311
 20
323.677938
 42
0.134166
  0
SEQEND
  0
POLYLINE
  8
0
 66
1
 70
1
  0
VERTEX
  8
0
 10
822.238321
 20
322.838321
 42
0.056208
  0
VERTEX
  8
0
 10
821.171479
 20
321.500272
 42
0.322869
  0
VERTEX
  8
0
 10
821.226003
 20
320.646906
 42
0.196923
  0
VERTEX
  8
0
 10
822.197310
 20
320.124430
 42
0.026167
  0
VERTEX
  8
0
 10
824.573324
 20
320.000000
 42
0.019057
  0
VERTEX
  8
0
 10
826.418438
 20
320.070350
 42
0.105144
  0
VERTEX
  8
0
 10
827.367286
 20
320.349100
 42
0.209458
  0
VERTEX
  8
0
 10
827.786630
 20
320.886535
 42
0.109935
  0
VERTEX
  8
0
 10
827.813108
 20
321.750000
 42
0.178087
  0
VERTEX
  8
0
 10
827.052375
 20
323.016754
 42
0.121773
  0
VERTEX
  8
0
 10
825.515198
 20
323.731340
 42
0.111640
  0
VERTEX
  8
0
 10
823.709311
 20
323.677938
 42
0.134166
  0
SEQEND
  0
POLYLINE
  8
0
 66
1
 70
1
  0
VERTEX
  8
0
 10
862.238321
 20
322.838321
 42
0.056208
  0
VERTEX
  8
0
 10
861.171479
 20
321.500272
 42
0.322869
  0
VERTEX
  8
0
 10
861.226003
 20
320.646906
 42
0.196923
  0
VERTEX
  8
0
 10
862.197310
 20
320.124430
 42
0.026167
  0
VERTEX
  8
0
 10
864.573324
 20
320.000000
 42
0.019057
  0
VERTEX
  8
0
 10
866.418438
 20
320.070350
 42
0.105144
  0
VERTEX
  8
0
 10
867.367286
 20
320.349100
 42
0.209458
  0
VERTEX
  8
0
 10
867.786630
 20
320.886535
 42
0.109935
  0
VERTEX
  8
0
 10
867.813108
 20
321.750000
 42
0.178087
  0
VERTEX
  8
0
 10
867.052375
 20
323.016754
 42
0.121773
  0
VERTEX
  8
0
 10
865.515198
 20
323.731340
 42
0.111640
  0
VERTEX
  8
0
 10
863.709311
 20
323.677938
 42
0.134166
  0
SEQEND
  0
POLYLINE
  8
0
 66
1
 70
1
  0
VERTEX
  8
0
 10
878.692914
 20
317.299681
 42
0.170977
  0
VERTEX
  8
0
 10
877.421620
 20
316.444317
 42
0.248535
  0
VERTEX
  8
0
 10
877.220225
 20
315.135353
 42
0.188634
  0
VERTEX
  8
0
 10
878.238690
 20
313.944250
 42
0.123240
  0
VERTEX
  8
0
 10
880.013695
 20
313.500000
 42
0.052183
  0
VERTEX
  8
0
 10
881.198689
 20
313.624011
 42
0.117372
  0
VERTEX
  8
0
 10
882.010438
 20
314.008370
 42
0.125287
  0
VERTEX
  8
0
 10
882.529802
 20
314.697799
 42
0.063904
  0
VERTEX
  8
0
 10
882.819551
 20
315.750000
 42
0.075482
  0
VERTEX
  8
0
 10
882.806640
 20
317.095029
 42
0.269044
  0
VERTEX
  8
0
 10
882.282023
 20
317.735979
 42
0.136212
  0
VERTEX
  8
0
 10
881.126188
 20
317.838515
 42
0.017827
  0
SEQEND
  0
POLYLINE
  8
0
 66
1
 70
1
  0
VERTEX
  8
0
 10
978.238321
 20
322.838321
 42
0.056208
  0
VERTEX
  8
0
 10
977.171479
 20
321.500272
 42
0.322869
  0
VERTEX
  8
0
 10
977.226003
 20
320.646906
 42
0.196923
  0
VERTEX
  8
0
 10
978.197310
 20
320.124430
 42
0.026167
  0
VERTEX
  8
0
 10
980.573324
 20
320.000000
 42
0.019057
  0
VERTEX
  8
0
 10
982.418438
 20
320.070350
 42
0.105144
  0
VERTEX
  8
0
 10
983.367286
 20
320.349100
 42
0.209458
  0
VERTEX
  8
0
 10
983.786630
 20
320.886535
 42
0.109935
  0
VERTEX
  8
0
 10
983.813108
 20
321.750000
 42
0.178087
  0
VERTEX
  8
0
 10
983.052375
 20
323.016754
 42
0.121773
  0
VERTEX
  8
0
 10
981.515198
 20
323.731340
 42
0.111640
  0
VERTEX
  8
0
 10
979.709311
 20
323.677938
 42
0.134166
  0
SEQEND
  0
ENDSEC
  0
EOF
