<?xml version="1.0" encoding="UTF-8"?><svg id="Layer_2" xmlns="http://www.w3.org/2000/svg" xmlns:xlink="http://www.w3.org/1999/xlink" viewBox="0 0 91.94 92.83"><defs><style>.cls-1{fill:none;}.cls-2{clip-path:url(#clippath);}.cls-3{fill:#f37167;}.cls-4{fill:#63c29c;}.cls-5{fill:#1f376a;}</style><clipPath id="clippath"><rect class="cls-1" width="91.94" height="92.83"/></clipPath></defs><g id="Layer_1-2"><g class="cls-2"><path class="cls-4" d="M2.81,67.07c-1.16,1.81-1.56,3.19-1.7,3.55-2.92,7.83,.02,16.65,7.58,20.43,7.31,3.64,16.08,1.15,20.44-5.53,6.24-9.55,19-12.57,27.4-6.05-8.24-8.09-16.06-13.58-20.85-15.75-11.24-5.09-22.79-4.99-30.05,.61-1.04,.8-2.11,1.62-2.83,2.74"/><path class="cls-3" d="M60.17,8.81c-5.81-11.67-22.64-11.82-28.53,0,0,0-10.23,20.6-13.7,27.6,.02-.04,2.79-5.63,15.65-4.99,3.63,.18,12.93,.16,12.93,.16,5.66-.34,9.54-2.65,12.82-6.66,6.46-7.9,.83-16.11,.83-16.11"/><path class="cls-5" d="M90.69,70.62c-1.01-2.4-23.23-47.13-29.11-58.96,.36,3.02,1.49,8.67-2.25,13.25-3.27,4.01-7.15,6.32-12.82,6.66,0,0-9.3,.02-12.93-.16-12.86-.64-15.63,4.95-15.65,4.99-5.93,11.97-12.18,24.61-15.13,30.67h0c6.78-8.21,20.04-9.16,32.88-3.35,4.74,2.14,12.42,7.54,20.56,15.47,.22,.17,4.02,3.65,6.42,6.33,6.47,7.2,13.13,9.17,20.44,5.53,7.56-3.77,10.82-12.75,7.58-20.43"/></g></g></svg>