<?xml version="1.0" encoding="UTF-8"?>
<svg id="Layer_2" data-name="Layer 2" xmlns="http://www.w3.org/2000/svg" xmlns:xlink="http://www.w3.org/1999/xlink" viewBox="0 0 322.93 348">
  <defs>
    <style>
      .cls-1, .cls-2, .cls-3 {
        fill: none;
      }

      .cls-4 {
        clip-path: url(#clippath);
      }

      .cls-5 {
        fill: #f6cc46;
      }

      .cls-6, .cls-7 {
        fill: #fff;
      }

      .cls-8 {
        fill: #7bbf9d;
      }

      .cls-9 {
        fill: #221f20;
      }

      .cls-7 {
        stroke: #000;
        stroke-width: 4px;
      }

      .cls-7, .cls-3 {
        stroke-miterlimit: 10;
      }

      .cls-2, .cls-3 {
        stroke: #221f20;
      }

      .cls-3 {
        stroke-width: .25px;
      }
    </style>
    <clipPath id="clippath">
      <rect class="cls-1" width="322.93" height="348"/>
    </clipPath>
  </defs>
  <g id="Layer_1-2" data-name="Layer 1">
    <g class="cls-4">
      <path class="cls-6" d="M91,93.46c-2.2,.18-4,.33-5.81,.48-23.78,1.94-44.31,11.16-61.5,27.66-1.29,1.24-2.2,3.45-2.28,5.24-.27,6.62-.13,13.25-.09,19.88,0,1.51-.16,2.51-1.96,3.04-12.12,3.62-18.11,11.73-18.12,24.32,0,49.17,0,98.33,0,147.5,0,15.49,9.71,25.19,25.24,25.19,89.99,0,179.96,0,269.95,0,1.91,0,3.86,0,5.75-.34,11.85-2.14,19.48-11.59,19.49-24.2,.03-40.72,0-81.44,0-122.16,0-8.98,.05-17.96-.02-26.94-.08-11.59-6.66-20.24-17.79-23.28-1.85-.51-2.32-1.36-2.3-3.11,.08-6.63,.2-13.26-.07-19.88-.08-1.8-.99-4.01-2.27-5.25-14.44-13.95-31.56-22.83-51.36-26.31-5.21-.91-10.49-1.37-15.95-2.05v-3.61c0-11.53,.13-23.09-.04-34.62-.23-16.14-12.57-28.85-28.26-28.92-28.11-.13-56.21-.06-84.32-.02-5.94,0-11.35,1.86-16.14,5.36-8.18,5.97-12.1,14.17-12.15,24.22-.05,12.49,0,24.98,0,37.82"/>
      <path class="cls-3" d="M91,93.46c-2.2,.18-4,.33-5.81,.48-23.78,1.94-44.31,11.16-61.5,27.66-1.29,1.24-2.2,3.45-2.28,5.24-.27,6.62-.13,13.25-.09,19.88,0,1.51-.16,2.51-1.96,3.04-12.12,3.62-18.11,11.73-18.12,24.32,0,49.17,0,98.33,0,147.5,0,15.49,9.71,25.19,25.24,25.19,89.99,0,179.96,0,269.95,0,1.91,0,3.86,0,5.75-.34,11.85-2.14,19.48-11.59,19.49-24.2,.03-40.72,0-81.44,0-122.16,0-8.98,.05-17.96-.02-26.94-.08-11.59-6.66-20.24-17.79-23.28-1.85-.51-2.32-1.36-2.3-3.11,.08-6.63,.2-13.26-.07-19.88-.08-1.8-.99-4.01-2.27-5.25-14.44-13.95-31.56-22.83-51.36-26.31-5.21-.91-10.49-1.37-15.95-2.05v-3.61c0-11.53,.13-23.09-.04-34.62-.23-16.14-12.57-28.85-28.26-28.92-28.11-.13-56.21-.06-84.32-.02-5.94,0-11.35,1.86-16.14,5.36-8.18,5.97-12.1,14.17-12.15,24.22-.05,12.49,0,24.98,0,37.82Z"/>
      <path class="cls-9" d="M294.88,308.18c0-2.15-.22-4.18,.05-6.14,.42-3.12-.95-5.08-3.19-7.08-27.97-24.91-69.25-30.51-102.98-13.87-8.79,4.34-16.72,9.87-23.77,16.69-2.9,2.81-4.09,2.77-7.02,.05-.55-.51-1.08-1.03-1.62-1.55-35.1-32.78-91.2-32.9-126.24-.24-.76,.7-1.87,1.56-1.93,2.4-.23,3.25-.1,6.52-.1,9.75H294.88ZM161.55,132.57c13.47,0,26.93,.03,40.39,0,13.82-.05,23.13-9.25,23.2-23.1,.09-17.95,.11-35.91,0-53.85-.08-13.62-9.47-22.94-23.06-22.96-27.03-.06-54.06-.05-81.09,0-13.76,.03-23.13,9.34-23.2,23.16-.08,17.84-.07,35.69,0,53.53,.06,14.02,9.34,23.19,23.39,23.23,13.46,.03,26.92,0,40.38,0m140.05,23.87v152.25c0,5.87-.56,6.44-6.39,6.44H27.87c-6.06,0-6.56-.5-6.56-6.59V156.33c-8.31,1.51-13.28,8.03-13.28,17.13-.02,49.59-.02,99.17,0,148.76,0,1.9,.12,3.87,.61,5.7,2.14,7.85,8.56,12.22,17.76,12.22H244.4c17.52,0,35.05-.02,52.57,0,4.65,0,8.86-1.13,12.4-4.3,4.31-3.86,5.58-8.79,5.57-14.42-.06-49.06-.03-98.1-.04-147.16,0-1.39-.02-2.78-.16-4.16-.71-6.83-6.4-12.86-13.14-13.67m-143.7,132V139.29c-1.63,0-3.01,0-4.39,0-12.08-.07-24.17,.25-36.21-.32-13.1-.62-23.99-11.06-25.76-24.04-.64-4.72-.54-9.52-.79-14.4-.51-.06-.91-.16-1.32-.14-23.13,.95-43.18,9.33-60.13,25.06-.83,.77-1.21,2.43-1.21,3.67-.06,52.16-.05,104.31-.04,156.47,0,.87,.13,1.75,.22,2.87,36.67-31.04,92.07-31.69,129.64-.03m7.07-149.15v148.64c43.38-31.18,86.56-31.03,129.8,.04,.04-.34,.09-.65,.09-.97,0-52.8,.03-105.59-.06-158.39,0-1.26-.83-2.84-1.78-3.74-11.75-10.89-25.45-18.21-41.04-21.96-6.5-1.57-13.08-2.67-20.06-2.48v7.67c-.02,19-12.03,31.12-30.96,31.18-10.8,.03-21.59,0-32.38,0h-3.6m-73.98-45.83c0-12.84-.04-25.33,0-37.82,.05-10.05,3.96-18.24,12.15-24.22,4.79-3.5,10.2-5.36,16.14-5.36,28.11-.04,56.21-.11,84.32,.02,15.68,.07,28.03,12.78,28.26,28.92,.17,11.53,.04,23.09,.04,34.62v3.61c5.46,.68,10.74,1.14,15.95,2.05,19.81,3.48,36.93,12.36,51.36,26.31,1.28,1.24,2.19,3.45,2.27,5.25,.27,6.62,.15,13.25,.07,19.88-.02,1.75,.45,2.61,2.3,3.11,11.13,3.04,17.71,11.69,17.79,23.28,.07,8.98,.02,17.96,.02,26.94,0,40.72,.02,81.44,0,122.16,0,12.6-7.64,22.06-19.49,24.2-1.88,.34-3.83,.34-5.75,.34-89.99,0-179.96,.02-269.95,0-15.53,0-25.23-9.7-25.24-25.19,0-49.17,0-98.33,0-147.5,0-12.58,6-20.7,18.12-24.32,1.8-.54,1.97-1.54,1.96-3.04-.04-6.63-.18-13.26,.09-19.88,.08-1.79,.99-4,2.28-5.24,17.19-16.51,37.72-25.72,61.5-27.66,1.8-.15,3.61-.3,5.81-.48"/>
      <path class="cls-3" d="M294.88,308.18c0-2.15-.22-4.18,.05-6.14,.42-3.12-.95-5.08-3.19-7.08-27.97-24.91-69.25-30.51-102.98-13.87-8.79,4.34-16.72,9.87-23.77,16.69-2.9,2.81-4.09,2.77-7.02,.05-.55-.51-1.08-1.03-1.62-1.55-35.1-32.78-91.2-32.9-126.24-.24-.76,.7-1.87,1.56-1.93,2.4-.23,3.25-.1,6.52-.1,9.75H294.88ZM161.55,132.57c13.47,0,26.93,.03,40.39,0,13.82-.05,23.13-9.25,23.2-23.1,.09-17.95,.11-35.91,0-53.85-.08-13.62-9.47-22.94-23.06-22.96-27.03-.06-54.06-.05-81.09,0-13.76,.03-23.13,9.34-23.2,23.16-.08,17.84-.07,35.69,0,53.53,.06,14.02,9.34,23.19,23.39,23.23,13.46,.03,26.92,0,40.38,0Zm140.05,23.87v152.25c0,5.87-.56,6.44-6.39,6.44H27.87c-6.06,0-6.56-.5-6.56-6.59V156.33c-8.31,1.51-13.28,8.03-13.28,17.13-.02,49.59-.02,99.17,0,148.76,0,1.9,.12,3.87,.61,5.7,2.14,7.85,8.56,12.22,17.76,12.22H244.4c17.52,0,35.05-.02,52.57,0,4.65,0,8.86-1.13,12.4-4.3,4.31-3.86,5.58-8.79,5.57-14.42-.06-49.06-.03-98.1-.04-147.16,0-1.39-.02-2.78-.16-4.16-.71-6.83-6.4-12.86-13.14-13.67Zm-143.7,132V139.29c-1.63,0-3.01,0-4.39,0-12.08-.07-24.17,.25-36.21-.32-13.1-.62-23.99-11.06-25.76-24.04-.64-4.72-.54-9.52-.79-14.4-.51-.06-.91-.16-1.32-.14-23.13,.95-43.18,9.33-60.13,25.06-.83,.77-1.21,2.43-1.21,3.67-.06,52.16-.05,104.31-.04,156.47,0,.87,.13,1.75,.22,2.87,36.67-31.04,92.07-31.69,129.64-.03Zm7.07-149.15v148.64c43.38-31.18,86.56-31.03,129.8,.04,.04-.34,.09-.65,.09-.97,0-52.8,.03-105.59-.06-158.39,0-1.26-.83-2.84-1.78-3.74-11.75-10.89-25.45-18.21-41.04-21.96-6.5-1.57-13.08-2.67-20.06-2.48v7.67c-.02,19-12.03,31.12-30.96,31.18-10.8,.03-21.59,0-32.38,0h-3.6Zm-73.98-45.83c0-12.84-.04-25.33,0-37.82,.05-10.05,3.96-18.24,12.15-24.22,4.79-3.5,10.2-5.36,16.14-5.36,28.11-.04,56.21-.11,84.32,.02,15.68,.07,28.03,12.78,28.26,28.92,.17,11.53,.04,23.09,.04,34.62v3.61c5.46,.68,10.74,1.14,15.95,2.05,19.81,3.48,36.93,12.36,51.36,26.31,1.28,1.24,2.19,3.45,2.27,5.25,.27,6.62,.15,13.25,.07,19.88-.02,1.75,.45,2.61,2.3,3.11,11.13,3.04,17.71,11.69,17.79,23.28,.07,8.98,.02,17.96,.02,26.94,0,40.72,.02,81.44,0,122.16,0,12.6-7.64,22.06-19.49,24.2-1.88,.34-3.83,.34-5.75,.34-89.99,0-179.96,.02-269.95,0-15.53,0-25.23-9.7-25.24-25.19,0-49.17,0-98.33,0-147.5,0-12.58,6-20.7,18.12-24.32,1.8-.54,1.97-1.54,1.96-3.04-.04-6.63-.18-13.26,.09-19.88,.08-1.79,.99-4,2.28-5.24,17.19-16.51,37.72-25.72,61.5-27.66,1.8-.15,3.61-.3,5.81-.48Z"/>
      <path class="cls-8" d="M301.61,156.44c6.74,.81,12.42,6.85,13.13,13.67,.15,1.38,.16,2.77,.16,4.16,0,49.06-.02,98.1,.05,147.16,0,5.63-1.27,10.56-5.57,14.42-3.54,3.17-7.75,4.31-12.41,4.3-17.53-.03-35.05,0-52.57,0H26.41c-9.19,0-15.62-4.37-17.76-12.22-.5-1.82-.61-3.79-.61-5.7-.03-49.59-.04-99.17-.02-148.76,0-9.1,4.97-15.63,13.29-17.13v152.21c0,6.09,.5,6.59,6.55,6.59H295.22c5.82,0,6.39-.57,6.39-6.43V156.44Z"/>
      <path class="cls-3" d="M301.61,156.44c6.74,.81,12.42,6.85,13.13,13.67,.15,1.38,.16,2.77,.16,4.16,0,49.06-.02,98.1,.05,147.16,0,5.63-1.27,10.56-5.57,14.42-3.54,3.17-7.75,4.31-12.41,4.3-17.53-.03-35.05,0-52.57,0H26.41c-9.19,0-15.62-4.37-17.76-12.22-.5-1.82-.61-3.79-.61-5.7-.03-49.59-.04-99.17-.02-148.76,0-9.1,4.97-15.63,13.29-17.13v152.21c0,6.09,.5,6.59,6.55,6.59H295.22c5.82,0,6.39-.57,6.39-6.43V156.44Z"/>
      <path class="cls-6" d="M294.88,308.19H28.09c0-3.23-.14-6.51,.09-9.75,.06-.84,1.18-1.69,1.93-2.4,35.05-32.66,91.15-32.54,126.24,.24,.54,.51,1.08,1.04,1.62,1.55,2.93,2.72,4.11,2.76,7.03-.05,7.04-6.82,14.97-12.35,23.76-16.69,33.73-16.64,75.01-11.04,102.98,13.87,2.25,1.99,3.62,3.95,3.19,7.08-.27,1.96-.05,3.99-.05,6.14"/>
      <path class="cls-3" d="M294.88,308.19H28.09c0-3.23-.14-6.51,.09-9.75,.06-.84,1.18-1.69,1.93-2.4,35.05-32.66,91.15-32.54,126.24,.24,.54,.51,1.08,1.04,1.62,1.55,2.93,2.72,4.11,2.76,7.03-.05,7.04-6.82,14.97-12.35,23.76-16.69,33.73-16.64,75.01-11.04,102.98,13.87,2.25,1.99,3.62,3.95,3.19,7.08-.27,1.96-.05,3.99-.05,6.14Z"/>
      <path class="cls-9" d="M227.6,231.61c19.06,0,35.03,4.04,49.99,12.05,.56,.31,1.09,.67,1.66,.96,2.16,1.12,3.03,2.88,1.79,5-1.18,2.04-3.03,1.74-5.04,.86-6.62-2.9-13.11-6.32-20-8.34-24.59-7.22-48.31-4.47-70.94,7.55-.85,.46-1.77,1.35-2.54,1.24-1.41-.22-3.25-.69-3.91-1.7-.53-.79,.28-2.67,.85-3.88,.31-.63,1.38-.92,2.12-1.34,14.98-8.25,31.04-12.31,46.02-12.4"/>
      <path class="cls-3" d="M227.6,231.61c19.06,0,35.03,4.04,49.99,12.05,.56,.31,1.09,.67,1.66,.96,2.16,1.12,3.03,2.88,1.79,5-1.18,2.04-3.03,1.74-5.04,.86-6.62-2.9-13.11-6.32-20-8.34-24.59-7.22-48.31-4.47-70.94,7.55-.85,.46-1.77,1.35-2.54,1.24-1.41-.22-3.25-.69-3.91-1.7-.53-.79,.28-2.67,.85-3.88,.31-.63,1.38-.92,2.12-1.34,14.98-8.25,31.04-12.31,46.02-12.4Z"/>
      <path class="cls-9" d="M144.78,246.91c.06,3.77-2.58,4.92-5.58,3.54-5.31-2.45-10.51-5.28-16.04-7.12-25.95-8.62-51.06-6.33-75.2,6.53-.47,.25-.93,.51-1.41,.76-1.87,1.01-3.66,.84-4.72-1.04-1.11-1.99-.47-3.84,1.62-4.81,5.9-2.73,11.66-5.9,17.8-7.9,27.79-9.08,54.67-6.57,80.42,7.33,1.37,.73,2.41,2.07,3.12,2.7"/>
      <path class="cls-3" d="M144.78,246.91c.06,3.77-2.58,4.92-5.58,3.54-5.31-2.45-10.51-5.28-16.04-7.12-25.95-8.62-51.06-6.33-75.2,6.53-.47,.25-.93,.51-1.41,.76-1.87,1.01-3.66,.84-4.72-1.04-1.11-1.99-.47-3.84,1.62-4.81,5.9-2.73,11.66-5.9,17.8-7.9,27.79-9.08,54.67-6.57,80.42,7.33,1.37,.73,2.41,2.07,3.12,2.7Z"/>
      <rect class="cls-7" x="60.69" y="4.95" width="206.31" height="203.12" rx="29.72" ry="29.72"/>
      <rect class="cls-2" x="60.69" y="4.95" width="206.31" height="203.12" rx="29.72" ry="29.72"/>
      <path class="cls-9" d="M240.96,159.02c-7.25,7.26-14.39,14.4-21.45,21.47,5.5,2.19,12.78,.78,17.07-3.59,4.96-5.05,6.43-11.02,4.38-17.88m-27.08,18.34c7.99-8.01,15.86-15.88,23.65-23.68-10.64-10.6-21.38-21.3-32.18-32.05-4.26,2.49-8.12,2.33-11.25-.65-3.25-3.11-3.53-6.92-.98-11.65-1.45-1.54-2.84-3.02-4.11-4.36-7.9,7.94-15.78,15.86-23.66,23.78,1.27,1.28,2.69,2.69,4.14,4.15,.4-.24,.8-.51,1.22-.74,3.46-1.96,7.69-1.38,10.5,1.47,2.7,2.72,3.34,7.1,1.3,10.36-.67,1.09-.52,1.62,.31,2.43,9.92,9.87,19.8,19.77,29.69,29.66,.46,.46,.94,.89,1.38,1.3m1.58-151.84c-3.97-.27-8.41,.48-11.84,1.89-12.71,5.27-19.48,17.91-16.78,31.5,.38,1.9,.02,3.27-1.38,4.67-20.55,20.48-41.06,40.99-61.55,61.53-1.34,1.35-2.68,1.78-4.53,1.38-4.98-1.11-9.97-.91-14.78,.81-10.67,3.81-17.2,11.42-18.81,22.57-1.6,11.15,2.44,20.41,11.7,26.95,9.46,6.68,21.95,6.75,31.18,.6,9.95-6.61,14.55-17.67,12.16-29.46-.37-1.84,.02-3.2,1.37-4.54,8.02-7.93,15.96-15.91,23.93-23.88,12.54-12.54,25.11-25.08,37.62-37.65,1.32-1.32,2.61-1.84,4.51-1.44,2.17,.46,4.43,.75,6.63,.67,13.01-.47,23.45-9.11,26.33-21.79,.53-2.31,.55-4.74,.81-7.11-.17-.03-.34-.07-.52-.1-.43,.41-.86,.8-1.28,1.22-4.16,4.16-8.34,8.29-12.45,12.48-1.26,1.28-2.54,1.63-4.26,1.04-5.02-1.74-10.09-3.42-15.15-5.06-1.48-.49-2.38-1.39-2.85-2.84-1.65-5.06-3.31-10.12-5.04-15.16-.58-1.7-.25-2.98,1.04-4.25,4.27-4.19,8.48-8.45,12.7-12.69,.37-.37,.71-.76,1.25-1.35m-54.34,106.92c-2.53,2.53-4.86,4.87-7.19,7.21-2.08,2.08-4.11,4.21-6.26,6.21-.94,.88-1.17,1.75-.99,3,1.49,10.63-1.49,19.9-8.74,27.77-15.5,16.83-44.09,12.62-54.13-7.95-9.75-19.97,1.42-43.09,23.12-47.78,3.84-.83,7.77-.99,11.67-.25,1.12,.22,1.9-.03,2.73-.86,19.6-19.65,39.23-39.28,58.87-58.89,.77-.77,1-1.45,.84-2.56-2.64-18.53,9.08-34.72,27.56-38.08,4.33-.78,8.67-.54,12.95,.49,2.76,.67,3.53,3.06,1.54,5.11-2.73,2.8-5.53,5.55-8.3,8.32-2.62,2.62-5.21,5.25-7.87,7.84-.62,.6-.8,1.11-.5,1.97,1.35,3.84,2.57,7.73,3.93,11.56,.22,.59,.88,1.23,1.48,1.45,3.69,1.31,7.43,2.46,11.12,3.76,1.07,.38,1.73,.27,2.55-.56,5.12-5.19,10.3-10.32,15.47-15.48,.98-.98,1.94-1.95,3.53-1.48,1.63,.49,1.97,1.82,2.21,3.28,2.36,13.98-1.78,25.5-13.28,33.99-7.23,5.35-15.51,7.1-24.42,5.83-.7-.1-1.71,.03-2.17,.48-4.52,4.41-8.96,8.9-13.43,13.37-.14,.14-.25,.33-.48,.64,1.8,1.76,3.6,3.51,5.37,5.26,2.37,2.36,2.39,3.46,.06,5.86-.95,.99-1.83,2.14-1.16,3.47,.47,.9,1.48,1.95,2.37,2.09,.98,.14,2.32-.45,3.13-1.15,2.65-2.26,3.54-2.32,6,.15,10.54,10.54,21.07,21.1,31.65,31.63,3.4,3.39,5.91,7.29,6.72,12.05,2.73,16.07-9.38,26.84-21.5,26.91-6.67,.03-12.19-2.28-16.83-6.93-10.74-10.74-21.48-21.47-32.21-32.21-2.01-2.01-2-3.25-.07-5.28,.53-.54,1.09-1.12,1.38-1.79,.54-1.26,.29-2.49-.75-3.42-1.09-.97-2.37-1.11-3.62-.36-.64,.39-1.17,.97-1.72,1.48-1.64,1.49-3,1.53-4.58,0-1.98-1.94-3.89-3.96-6.02-6.14"/>
      <path class="cls-5" d="M134.97,135.73c20.36-20.37,40.76-40.76,61.05-61.05-1.07-1.14-2.28-2.43-3.35-3.58-20.43,20.43-40.8,40.79-61.19,61.17,1.17,1.16,2.44,2.4,3.5,3.45m-21.36,34.67c2.56,0,5.11-.05,7.67,.02,1.6,.04,2.69-.56,3.49-1.92,2.55-4.31,5.12-8.6,7.72-12.87,.83-1.37,.82-2.61,0-3.96-2.61-4.27-5.18-8.56-7.73-12.86-.73-1.25-1.72-1.87-3.18-1.87-5.28,.02-10.56,.02-15.83,0-1.39,0-2.37,.56-3.08,1.76-2.61,4.39-5.23,8.78-7.89,13.15-.76,1.26-.73,2.42,.03,3.67,2.62,4.33,5.22,8.66,7.8,13.01,.77,1.3,1.81,1.92,3.34,1.88,2.56-.05,5.12,0,7.68,0M215.45,25.52c-.54,.57-.87,.97-1.24,1.35-4.23,4.23-8.43,8.5-12.71,12.69-1.29,1.26-1.62,2.55-1.03,4.25,1.72,5.03,3.39,10.1,5.03,15.15,.49,1.47,1.38,2.37,2.86,2.85,5.06,1.63,10.12,3.31,15.15,5.05,1.71,.59,2.99,.25,4.25-1.03,4.12-4.2,8.29-8.33,12.45-12.48,.42-.42,.85-.81,1.29-1.23,.17,.04,.34,.07,.51,.11-.26,2.37-.28,4.8-.8,7.11-2.88,12.68-13.32,21.32-26.33,21.78-2.21,.08-4.47-.22-6.64-.67-1.89-.4-3.19,.13-4.5,1.45-12.52,12.57-25.08,25.11-37.63,37.65-7.97,7.97-15.91,15.95-23.92,23.87-1.36,1.35-1.74,2.7-1.37,4.54,2.38,11.8-2.21,22.86-12.16,29.47-9.24,6.14-21.73,6.06-31.19-.61-9.25-6.53-13.3-15.79-11.69-26.94,1.6-11.15,8.12-18.76,18.8-22.58,4.83-1.72,9.8-1.91,14.79-.81,1.84,.42,3.18-.02,4.52-1.37,20.49-20.54,41-41.06,61.55-61.53,1.4-1.4,1.75-2.77,1.38-4.68-2.7-13.58,4.07-26.22,16.79-31.49,3.42-1.43,7.86-2.16,11.83-1.89"/>
      <path class="cls-8" d="M192.81,135.95c9.31,9.31,18.53,18.53,27.71,27.7,1.15-1.12,2.42-2.35,3.5-3.41-9.28-9.27-18.53-18.52-27.72-27.7-1.1,1.08-2.34,2.29-3.49,3.41m21.07,41.41c-.43-.41-.91-.83-1.37-1.3-9.9-9.89-19.78-19.79-29.69-29.65-.82-.82-.99-1.35-.31-2.43,2.04-3.27,1.41-7.65-1.3-10.37-2.82-2.83-7.05-3.43-10.5-1.47-.43,.24-.83,.51-1.22,.74-1.47-1.47-2.87-2.87-4.15-4.15,7.88-7.92,15.76-15.84,23.66-23.78,1.27,1.34,2.67,2.82,4.12,4.36-2.56,4.75-2.28,8.55,.97,11.65,3.12,2.98,7,3.15,11.26,.65,10.8,10.75,21.54,21.45,32.18,32.05-7.8,7.8-15.67,15.67-23.66,23.68"/>
      <path class="cls-6" d="M240.96,159.02c2.05,6.87,.58,12.83-4.38,17.88-4.29,4.37-11.57,5.79-17.07,3.59,7.07-7.07,14.2-14.21,21.45-21.47"/>
      <path class="cls-9" d="M113.57,164.83c1.91,0,3.81,.07,5.72-.04,.57-.04,1.35-.42,1.64-.88,1.95-3.08,3.81-6.2,5.63-9.36,.26-.45,.28-1.28,.03-1.7-1.8-3.16-3.68-6.29-5.62-9.37-.28-.45-.98-.88-1.51-.89-3.85-.07-7.72-.07-11.58,0-.53,0-1.24,.43-1.53,.87-1.93,3.08-3.8,6.2-5.62,9.36-.25,.45-.23,1.27,.02,1.72,1.06,1.95,2.5,3.74,3.35,5.77,1.56,3.69,3.97,5.4,8.01,4.54,.47-.1,.97,0,1.46,0m.03,5.57c-2.56,0-5.11-.04-7.67,.02-1.54,.03-2.58-.58-3.35-1.89-2.58-4.35-5.17-8.68-7.8-13.01-.75-1.24-.79-2.41-.02-3.67,2.65-4.37,5.27-8.76,7.88-13.15,.71-1.2,1.69-1.76,3.08-1.76,5.28,0,10.55,.02,15.83,0,1.46,0,2.45,.61,3.18,1.86,2.55,4.31,5.12,8.6,7.73,12.86,.83,1.37,.85,2.61,.02,3.96-2.61,4.27-5.18,8.56-7.73,12.87-.8,1.36-1.89,1.96-3.49,1.92-2.56-.07-5.11-.02-7.67-.02"/>
      <path class="cls-9" d="M134.97,135.72c-1.06-1.05-2.32-2.29-3.5-3.45,20.39-20.38,40.76-40.74,61.19-61.16,1.07,1.14,2.28,2.43,3.35,3.57-20.28,20.28-40.68,40.68-61.05,61.05"/>
      <path class="cls-9" d="M192.82,135.95c1.15-1.12,2.39-2.33,3.49-3.41,9.19,9.19,18.44,18.43,27.72,27.71-1.08,1.05-2.35,2.28-3.5,3.41-9.19-9.19-18.4-18.4-27.71-27.71"/>
      <path class="cls-6" d="M113.58,164.82c-.49,0-1-.09-1.47,0-4.02,.86-6.45-.85-8-4.54-.85-2.03-2.29-3.81-3.36-5.77-.25-.46-.27-1.28,0-1.71,1.8-3.16,3.68-6.29,5.62-9.37,.28-.45,1-.86,1.52-.87,3.86-.07,7.73-.07,11.59,0,.52,0,1.23,.44,1.51,.88,1.93,3.09,3.8,6.21,5.62,9.37,.25,.44,.22,1.26-.03,1.7-1.81,3.16-3.69,6.29-5.63,9.36-.3,.47-1.07,.84-1.65,.88-1.89,.11-3.8,.04-5.71,.04"/>
      <path class="cls-6" d="M139.74,92.43l14.76-13.12-36.09-32.81-6.56-14.75-16.4-9.84-11.48,13.12,8.2,18.03,9.84,3.28s9.84,6.57,11.48,6.57,26.24,29.52,26.24,29.52"/>
      <path class="cls-9" d="M154.57,79.17c-1.34,1.31-2.61,2.55-3.93,3.84-.36-.34-.75-.7-1.14-1.09-11.35-11.35-22.72-22.68-34.03-34.08-.94-.95-1.62-2.3-2.03-3.59-.79-2.48-1.27-5.05-1.98-7.56-.17-.59-.65-1.27-1.18-1.58-4.87-2.85-9.79-5.66-14.72-8.42-.39-.22-1.22-.24-1.5,.03-2.57,2.43-5.05,4.93-7.61,7.47,3.12,5.46,6.14,10.79,9.23,16.09,.25,.43,.92,.7,1.45,.86,1.57,.46,3.14,.97,4.75,1.18,3.54,.47,6.08,2.36,8.54,4.86,10.48,10.68,21.12,21.21,31.72,31.79,.42,.42,.95,.72,1.51,1.14-1.58,1.45-2.88,2.66-4.59,4.21-.2-.32-.47-.96-.92-1.42-11.03-11.07-22.07-22.12-33.14-33.13-.68-.67-1.66-1.2-2.6-1.48-2.7-.79-5.5-1.31-8.18-2.17-1.04-.34-2.2-1.11-2.74-2.02-3.61-6.07-7.07-12.24-10.56-18.38-1.03-1.81-.87-2.85,.62-4.37,3.38-3.4,6.76-6.79,10.16-10.17,1.6-1.59,2.55-1.71,4.51-.59,6.04,3.44,12.07,6.92,18.13,10.34,1.28,.72,2.01,1.72,2.32,3.15,.45,2.01,1.15,3.98,1.47,6.01,.39,2.51,1.67,4.3,3.44,6.04,10.64,10.52,21.2,21.13,31.78,31.73,.42,.42,.81,.84,1.25,1.3"/>
    </g>
  </g>
</svg>