<?xml version="1.0" encoding="UTF-8"?>
<svg id="Layer_2" data-name="Layer 2" xmlns="http://www.w3.org/2000/svg" xmlns:xlink="http://www.w3.org/1999/xlink" viewBox="0 0 340.31 340.62">
  <defs>
    <style>
      .cls-1, .cls-2 {
        fill: none;
      }

      .cls-3 {
        clip-path: url(#clippath);
      }

      .cls-4 {
        fill: #f6cc46;
      }

      .cls-5 {
        fill: #fff;
      }

      .cls-6 {
        fill: #7bbf9d;
      }

      .cls-7 {
        fill: #221f20;
      }

      .cls-2 {
        stroke: #221f20;
        stroke-miterlimit: 10;
        stroke-width: .25px;
      }
    </style>
    <clipPath id="clippath">
      <rect class="cls-1" width="340.31" height="340.62"/>
    </clipPath>
  </defs>
  <g id="Layer_1-2" data-name="Layer 1">
    <g class="cls-3">
      <path class="cls-5" d="M95.9,72.39c-2.32,.19-4.22,.34-6.12,.5-25.06,2.05-46.69,11.76-64.81,29.15-1.36,1.31-2.32,3.63-2.4,5.52-.28,6.97-.14,13.96-.09,20.95,.01,1.59-.17,2.64-2.07,3.21-12.77,3.81-19.09,12.36-19.1,25.62-.01,51.81-.01,103.62,0,155.43,.01,16.32,10.23,26.54,26.59,26.54,94.83,.01,189.65,0,284.48-.01,2.02,0,4.07,0,6.06-.36,12.49-2.26,20.53-12.22,20.54-25.5,.03-42.91,.01-85.82,.01-128.73,0-9.46,.05-18.93-.02-28.39-.08-12.22-7.02-21.33-18.74-24.54-1.95-.53-2.44-1.43-2.42-3.28,.08-6.99,.21-13.97-.07-20.95-.08-1.9-1.04-4.23-2.39-5.53-15.21-14.7-33.26-24.06-54.13-27.72-5.49-.96-11.06-1.44-16.81-2.16v-3.8c0-12.15,.14-24.33-.04-36.48-.24-17.01-13.25-30.41-29.78-30.48-29.62-.14-59.23-.06-88.86-.02-6.26,0-11.97,1.96-17.01,5.65-8.62,6.3-12.75,14.93-12.8,25.52-.05,13.17-.01,26.32-.01,39.86"/>
      <path class="cls-2" d="M95.9,72.39c-2.32,.19-4.22,.34-6.12,.5-25.06,2.05-46.69,11.76-64.81,29.15-1.36,1.31-2.32,3.63-2.4,5.52-.28,6.97-.14,13.96-.09,20.95,.01,1.59-.17,2.64-2.07,3.21-12.77,3.81-19.09,12.36-19.1,25.62-.01,51.81-.01,103.62,0,155.43,.01,16.32,10.23,26.54,26.59,26.54,94.83,.01,189.65,0,284.48-.01,2.02,0,4.07,0,6.06-.36,12.49-2.26,20.53-12.22,20.54-25.5,.03-42.91,.01-85.82,.01-128.73,0-9.46,.05-18.93-.02-28.39-.08-12.22-7.02-21.33-18.74-24.54-1.95-.53-2.44-1.43-2.42-3.28,.08-6.99,.21-13.97-.07-20.95-.08-1.9-1.04-4.23-2.39-5.53-15.21-14.7-33.26-24.06-54.13-27.72-5.49-.96-11.06-1.44-16.81-2.16v-3.8c0-12.15,.14-24.33-.04-36.48-.24-17.01-13.25-30.41-29.78-30.48-29.62-.14-59.23-.06-88.86-.02-6.26,0-11.97,1.96-17.01,5.65-8.62,6.3-12.75,14.93-12.8,25.52-.05,13.17-.01,26.32-.01,39.86Z"/>
      <path class="cls-7" d="M310.75,298.66c0-2.27-.23-4.41,.05-6.47,.44-3.29-1-5.36-3.36-7.47-29.48-26.25-72.98-32.15-108.52-14.62-9.26,4.57-17.61,10.4-25.05,17.58-3.06,2.97-4.31,2.92-7.39,.05-.58-.53-1.14-1.09-1.71-1.63-36.98-34.54-96.1-34.67-133.03-.25-.8,.74-1.97,1.64-2.04,2.53-.24,3.42-.1,6.87-.1,10.27H310.75ZM170.24,113.6c14.19,0,28.38,.03,42.56-.01,14.57-.05,24.37-9.75,24.44-24.34,.09-18.92,.11-37.84-.01-56.75-.08-14.36-9.98-24.17-24.3-24.19-28.48-.06-56.97-.05-85.45-.01-14.5,.03-24.37,9.85-24.44,24.4-.08,18.81-.07,37.61,0,56.42,.06,14.77,9.85,24.43,24.65,24.47,14.18,.03,28.37,.01,42.55,.01m147.59,25.15v160.44c0,6.18-.6,6.79-6.73,6.79H29.36c-6.39,0-6.91-.52-6.91-6.94V138.64c-8.76,1.59-13.99,8.46-13.99,18.05-.02,52.26-.02,104.51,.01,156.77,0,2,.13,4.08,.65,6,2.26,8.27,9.02,12.87,18.71,12.87h229.72c18.46,0,36.93-.02,55.4,.01,4.9,.01,9.33-1.19,13.06-4.53,4.54-4.07,5.88-9.26,5.87-15.19-.06-51.7-.03-103.38-.04-155.08,0-1.46-.02-2.93-.17-4.39-.75-7.19-6.75-13.55-13.85-14.41m-151.43,139.1V120.68c-1.72,0-3.17,.01-4.63,0-12.73-.07-25.47,.26-38.16-.33-13.8-.66-25.28-11.65-27.15-25.33-.68-4.97-.57-10.03-.84-15.17-.53-.06-.96-.17-1.39-.15-24.37,1-45.5,9.84-63.37,26.41-.88,.81-1.27,2.56-1.27,3.86-.06,54.96-.05,109.93-.04,164.89,0,.92,.14,1.85,.23,3.03,38.64-32.71,97.02-33.39,136.62-.03m7.46-157.18v156.64c45.71-32.86,91.22-32.7,136.78,.04,.04-.36,.09-.69,.09-1.02,.01-55.64,.03-111.27-.06-166.92,0-1.33-.88-3-1.88-3.94-12.38-11.48-26.82-19.19-43.25-23.14-6.85-1.65-13.78-2.81-21.14-2.61v8.08c-.02,20.03-12.68,32.8-32.63,32.86-11.38,.03-22.75,0-34.12,0h-3.79m-77.96-48.29c0-13.53-.04-26.69,.01-39.86,.05-10.59,4.18-19.22,12.8-25.52,5.04-3.69,10.74-5.65,17.01-5.65,29.62-.04,59.23-.11,88.86,.02,16.53,.07,29.54,13.47,29.78,30.48,.18,12.15,.04,24.33,.04,36.48v3.8c5.75,.72,11.32,1.2,16.81,2.16,20.87,3.66,38.92,13.02,54.13,27.72,1.35,1.31,2.31,3.63,2.39,5.53,.28,6.97,.16,13.96,.07,20.95-.02,1.85,.47,2.75,2.42,3.28,11.73,3.21,18.66,12.32,18.74,24.54,.07,9.46,.02,18.93,.02,28.39,0,42.91,.02,85.82-.01,128.73-.01,13.28-8.05,23.24-20.54,25.5-1.98,.36-4.04,.36-6.06,.36-94.83,.01-189.65,.02-284.48,.01-16.36,0-26.58-10.22-26.59-26.54-.01-51.81-.01-103.62,0-155.43,.01-13.26,6.33-21.81,19.1-25.62,1.9-.56,2.08-1.62,2.07-3.21-.04-6.99-.19-13.97,.09-20.95,.08-1.89,1.04-4.22,2.4-5.52,18.12-17.4,39.75-27.11,64.81-29.15,1.9-.16,3.8-.31,6.12-.5"/>
      <path class="cls-2" d="M310.75,298.66c0-2.27-.23-4.41,.05-6.47,.44-3.29-1-5.36-3.36-7.47-29.48-26.25-72.98-32.15-108.52-14.62-9.26,4.57-17.61,10.4-25.05,17.58-3.06,2.97-4.31,2.92-7.39,.05-.58-.53-1.14-1.09-1.71-1.63-36.98-34.54-96.1-34.67-133.03-.25-.8,.74-1.97,1.64-2.04,2.53-.24,3.42-.1,6.87-.1,10.27H310.75ZM170.24,113.6c14.19,0,28.38,.03,42.56-.01,14.57-.05,24.37-9.75,24.44-24.34,.09-18.92,.11-37.84-.01-56.75-.08-14.36-9.98-24.17-24.3-24.19-28.48-.06-56.97-.05-85.45-.01-14.5,.03-24.37,9.85-24.44,24.4-.08,18.81-.07,37.61,0,56.42,.06,14.77,9.85,24.43,24.65,24.47,14.18,.03,28.37,.01,42.55,.01Zm147.59,25.15v160.44c0,6.18-.6,6.79-6.73,6.79H29.36c-6.39,0-6.91-.52-6.91-6.94V138.64c-8.76,1.59-13.99,8.46-13.99,18.05-.02,52.26-.02,104.51,.01,156.77,0,2,.13,4.08,.65,6,2.26,8.27,9.02,12.87,18.71,12.87h229.72c18.46,0,36.93-.02,55.4,.01,4.9,.01,9.33-1.19,13.06-4.53,4.54-4.07,5.88-9.26,5.87-15.19-.06-51.7-.03-103.38-.04-155.08,0-1.46-.02-2.93-.17-4.39-.75-7.19-6.75-13.55-13.85-14.41Zm-151.43,139.1V120.68c-1.72,0-3.17,.01-4.63,0-12.73-.07-25.47,.26-38.16-.33-13.8-.66-25.28-11.65-27.15-25.33-.68-4.97-.57-10.03-.84-15.17-.53-.06-.96-.17-1.39-.15-24.37,1-45.5,9.84-63.37,26.41-.88,.81-1.27,2.56-1.27,3.86-.06,54.96-.05,109.93-.04,164.89,0,.92,.14,1.85,.23,3.03,38.64-32.71,97.02-33.39,136.62-.03Zm7.46-157.18v156.64c45.71-32.86,91.22-32.7,136.78,.04,.04-.36,.09-.69,.09-1.02,.01-55.64,.03-111.27-.06-166.92,0-1.33-.88-3-1.88-3.94-12.38-11.48-26.82-19.19-43.25-23.14-6.85-1.65-13.78-2.81-21.14-2.61v8.08c-.02,20.03-12.68,32.8-32.63,32.86-11.38,.03-22.75,0-34.12,0h-3.79Zm-77.96-48.29c0-13.53-.04-26.69,.01-39.86,.05-10.59,4.18-19.22,12.8-25.52,5.04-3.69,10.74-5.65,17.01-5.65,29.62-.04,59.23-.11,88.86,.02,16.53,.07,29.54,13.47,29.78,30.48,.18,12.15,.04,24.33,.04,36.48v3.8c5.75,.72,11.32,1.2,16.81,2.16,20.87,3.66,38.92,13.02,54.13,27.72,1.35,1.31,2.31,3.63,2.39,5.53,.28,6.97,.16,13.96,.07,20.95-.02,1.85,.47,2.75,2.42,3.28,11.73,3.21,18.66,12.32,18.74,24.54,.07,9.46,.02,18.93,.02,28.39,0,42.91,.02,85.82-.01,128.73-.01,13.28-8.05,23.24-20.54,25.5-1.98,.36-4.04,.36-6.06,.36-94.83,.01-189.65,.02-284.48,.01-16.36,0-26.58-10.22-26.59-26.54-.01-51.81-.01-103.62,0-155.43,.01-13.26,6.33-21.81,19.1-25.62,1.9-.56,2.08-1.62,2.07-3.21-.04-6.99-.19-13.97,.09-20.95,.08-1.89,1.04-4.22,2.4-5.52,18.12-17.4,39.75-27.11,64.81-29.15,1.9-.16,3.8-.31,6.12-.5Z"/>
      <path class="cls-5" d="M240.31,178.23c-10.71-.14-22.86,2.04-34.51,6.46-5.54,2.11-10.84,4.91-16.15,7.56-1.96,.97-2.84,3.07-1.34,4.76,.91,1.02,3.01,1.16,4.6,1.31,.74,.07,1.57-.78,2.36-1.2,24.46-12.87,49.98-15.53,76.39-7.28,6.69,2.09,13,5.48,19.45,8.35,1.99,.89,3.86,.99,5.04-.98,1.22-2.05,.55-3.89-1.55-5.13-.78-.46-1.56-.91-2.35-1.33-15.68-8.33-32.38-12.6-51.96-12.53m2-39.77c-.05-.29-.1-.58-.16-.88-9.18,1.49-18.55,2.26-27.46,4.71-8.26,2.27-16.04,6.29-23.98,9.63-2.28,.95-3.98,2.63-2.58,5.27,1.5,2.83,3.85,2.05,6.09,.78,.09-.05,.2-.11,.29-.17,31.86-16.63,63.7-16.61,95.54,.05,.69,.37,1.47,1.07,2.1,.95,1.42-.25,3.55-.58,3.94-1.49,.49-1.18-.24-3.04-.84-4.45-.28-.66-1.45-.97-2.23-1.4-15.81-8.64-32.71-12.95-50.7-13.01m-2.46,79.51c-15.8,.09-32.71,4.36-48.5,13.06-.78,.44-1.91,.74-2.23,1.41-.61,1.28-1.45,3.26-.9,4.09,.7,1.07,2.64,1.57,4.12,1.8,.8,.11,1.78-.82,2.67-1.31,23.85-12.67,48.85-15.57,74.76-7.96,7.27,2.13,14.11,5.73,21.08,8.79,2.11,.93,4.07,1.24,5.31-.91,1.31-2.23,.39-4.09-1.89-5.27-.61-.31-1.16-.69-1.75-1.01-15.77-8.44-32.59-12.71-52.68-12.7m-65.99-97.28h3.78c11.38,0,22.75,.03,34.12-.01,19.95-.05,32.62-12.82,32.64-32.85v-8.09c7.35-.2,14.28,.96,21.14,2.61,16.42,3.95,30.87,11.67,43.25,23.15,1,.93,1.87,2.61,1.88,3.94,.08,55.64,.07,111.27,.06,166.92,0,.33-.06,.67-.09,1.01-45.57-32.73-91.07-32.89-136.78-.04V120.68Z"/>
      <path class="cls-2" d="M240.31,178.23c-10.71-.14-22.86,2.04-34.51,6.46-5.54,2.11-10.84,4.91-16.15,7.56-1.96,.97-2.84,3.07-1.34,4.76,.91,1.02,3.01,1.16,4.6,1.31,.74,.07,1.57-.78,2.36-1.2,24.46-12.87,49.98-15.53,76.39-7.28,6.69,2.09,13,5.48,19.45,8.35,1.99,.89,3.86,.99,5.04-.98,1.22-2.05,.55-3.89-1.55-5.13-.78-.46-1.56-.91-2.35-1.33-15.68-8.33-32.38-12.6-51.96-12.53Zm2-39.77c-.05-.29-.1-.58-.16-.88-9.18,1.49-18.55,2.26-27.46,4.71-8.26,2.27-16.04,6.29-23.98,9.63-2.28,.95-3.98,2.63-2.58,5.27,1.5,2.83,3.85,2.05,6.09,.78,.09-.05,.2-.11,.29-.17,31.86-16.63,63.7-16.61,95.54,.05,.69,.37,1.47,1.07,2.1,.95,1.42-.25,3.55-.58,3.94-1.49,.49-1.18-.24-3.04-.84-4.45-.28-.66-1.45-.97-2.23-1.4-15.81-8.64-32.71-12.95-50.7-13.01Zm-2.46,79.51c-15.8,.09-32.71,4.36-48.5,13.06-.78,.44-1.91,.74-2.23,1.41-.61,1.28-1.45,3.26-.9,4.09,.7,1.07,2.64,1.57,4.12,1.8,.8,.11,1.78-.82,2.67-1.31,23.85-12.67,48.85-15.57,74.76-7.96,7.27,2.13,14.11,5.73,21.08,8.79,2.11,.93,4.07,1.24,5.31-.91,1.31-2.23,.39-4.09-1.89-5.27-.61-.31-1.16-.69-1.75-1.01-15.77-8.44-32.59-12.71-52.68-12.7Zm-65.99-97.28h3.78c11.38,0,22.75,.03,34.12-.01,19.95-.05,32.62-12.82,32.64-32.85v-8.09c7.35-.2,14.28,.96,21.14,2.61,16.42,3.95,30.87,11.67,43.25,23.15,1,.93,1.87,2.61,1.88,3.94,.08,55.64,.07,111.27,.06,166.92,0,.33-.06,.67-.09,1.01-45.57-32.73-91.07-32.89-136.78-.04V120.68Z"/>
      <path class="cls-5" d="M95.6,178.22c-7.98-.16-18.25,1.2-28.09,4.55-7.4,2.53-14.46,6.07-21.63,9.24-2.2,.97-2.98,2.89-1.84,5.02,1.18,2.2,3.18,2.18,5.23,1.08,.5-.26,.99-.53,1.48-.8,23.72-12.62,48.59-15.62,74.42-8.14,7.27,2.11,14.13,5.66,21.11,8.71,2.28,.99,4.42,1.71,5.84-.89,1.43-2.61-.23-4.19-2.45-5.34-.69-.36-1.37-.76-2.07-1.13-15.5-8.2-32-12.33-52-12.3m53.78-18.79c.92-.73,2.36-1.35,2.76-2.36,.39-1.03,.05-2.63-.53-3.66-.48-.87-1.72-1.37-2.7-1.9-21.84-11.85-45.04-15.58-69.49-11.39-11.72,1.99-22.75,6.06-33.14,11.89-2.29,1.29-3.59,3.02-2.14,5.45,1.39,2.33,3.57,1.88,5.62,.69,.1-.06,.2-.1,.3-.16,32.04-16.86,64.08-16.84,96.12,.03,.88,.47,1.83,.8,3.21,1.41m3.18,74.67c-.76-.67-1.86-2.07-3.29-2.85-27.14-14.65-55.45-17.29-84.74-7.73-6.47,2.12-12.55,5.45-18.75,8.32-2.19,1.01-2.88,2.97-1.7,5.06,1.12,1.98,3,2.16,4.97,1.1,.49-.26,.99-.53,1.48-.8,25.44-13.55,51.9-15.95,79.25-6.87,5.82,1.93,11.3,4.92,16.9,7.51,3.16,1.46,5.94,.23,5.88-3.74m13.83,43.77c-39.59-33.36-97.97-32.68-136.62,.02-.09-1.18-.23-2.1-.23-3.02-.01-54.96-.02-109.93,.04-164.89,0-1.32,.4-3.05,1.27-3.87,17.87-16.57,39-25.4,63.37-26.41,.42-.01,.86,.09,1.38,.16,.26,5.13,.17,10.2,.85,15.16,1.86,13.69,13.34,24.67,27.15,25.33,12.7,.61,25.44,.27,38.16,.34,1.45,.01,2.9,0,4.63,0v157.18Z"/>
      <path class="cls-2" d="M95.6,178.22c-7.98-.16-18.25,1.2-28.09,4.55-7.4,2.53-14.46,6.07-21.63,9.24-2.2,.97-2.98,2.89-1.84,5.02,1.18,2.2,3.18,2.18,5.23,1.08,.5-.26,.99-.53,1.48-.8,23.72-12.62,48.59-15.62,74.42-8.14,7.27,2.11,14.13,5.66,21.11,8.71,2.28,.99,4.42,1.71,5.84-.89,1.43-2.61-.23-4.19-2.45-5.34-.69-.36-1.37-.76-2.07-1.13-15.5-8.2-32-12.33-52-12.3Zm53.78-18.79c.92-.73,2.36-1.35,2.76-2.36,.39-1.03,.05-2.63-.53-3.66-.48-.87-1.72-1.37-2.7-1.9-21.84-11.85-45.04-15.58-69.49-11.39-11.72,1.99-22.75,6.06-33.14,11.89-2.29,1.29-3.59,3.02-2.14,5.45,1.39,2.33,3.57,1.88,5.62,.69,.1-.06,.2-.1,.3-.16,32.04-16.86,64.08-16.84,96.12,.03,.88,.47,1.83,.8,3.21,1.41Zm3.18,74.67c-.76-.67-1.86-2.07-3.29-2.85-27.14-14.65-55.45-17.29-84.74-7.73-6.47,2.12-12.55,5.45-18.75,8.32-2.19,1.01-2.88,2.97-1.7,5.06,1.12,1.98,3,2.16,4.97,1.1,.49-.26,.99-.53,1.48-.8,25.44-13.55,51.9-15.95,79.25-6.87,5.82,1.93,11.3,4.92,16.9,7.51,3.16,1.46,5.94,.23,5.88-3.74Zm13.83,43.77c-39.59-33.36-97.97-32.68-136.62,.02-.09-1.18-.23-2.1-.23-3.02-.01-54.96-.02-109.93,.04-164.89,0-1.32,.4-3.05,1.27-3.87,17.87-16.57,39-25.4,63.37-26.41,.42-.01,.86,.09,1.38,.16,.26,5.13,.17,10.2,.85,15.16,1.86,13.69,13.34,24.67,27.15,25.33,12.7,.61,25.44,.27,38.16,.34,1.45,.01,2.9,0,4.63,0v157.18Z"/>
      <path class="cls-6" d="M317.84,138.75c7.1,.86,13.08,7.22,13.83,14.41,.16,1.45,.17,2.92,.17,4.39,.01,51.7-.02,103.38,.05,155.08,.01,5.93-1.34,11.13-5.87,15.19-3.73,3.34-8.17,4.54-13.07,4.53-18.47-.03-36.93-.01-55.4-.01H27.83c-9.69,0-16.46-4.6-18.71-12.87-.52-1.92-.65-4-.65-6-.03-52.26-.04-104.51-.02-156.77,.01-9.59,5.24-16.47,14-18.05v160.4c0,6.42,.52,6.94,6.9,6.94H311.1c6.13,0,6.73-.61,6.73-6.78V138.75Z"/>
      <path class="cls-2" d="M317.84,138.75c7.1,.86,13.08,7.22,13.83,14.41,.16,1.45,.17,2.92,.17,4.39,.01,51.7-.02,103.38,.05,155.08,.01,5.93-1.34,11.13-5.87,15.19-3.73,3.34-8.17,4.54-13.07,4.53-18.47-.03-36.93-.01-55.4-.01H27.83c-9.69,0-16.46-4.6-18.71-12.87-.52-1.92-.65-4-.65-6-.03-52.26-.04-104.51-.02-156.77,.01-9.59,5.24-16.47,14-18.05v160.4c0,6.42,.52,6.94,6.9,6.94H311.1c6.13,0,6.73-.61,6.73-6.78V138.75Z"/>
      <path class="cls-4" d="M205.84,60.97c-5.62,4.04-10.8,7.8-16.01,11.53-2.13,1.52-3.17,3.4-1.29,5.66,1.62,1.93,3.59,1.34,5.42,.03,6.21-4.47,12.45-8.92,18.65-13.4,3.78-2.73,3.8-4.84,.04-7.58-6.1-4.45-12.26-8.79-18.37-13.22-2-1.46-4.11-2.42-5.88-.01-1.89,2.55-.27,4.3,1.88,5.83,5.04,3.56,10.03,7.19,15.56,11.16m-71.36,.01c5.64-4.06,10.83-7.81,16.03-11.53,2-1.44,3.02-3.25,1.42-5.44-1.62-2.21-3.62-1.68-5.61-.25-6.29,4.56-12.62,9.04-18.9,13.62-3.46,2.52-3.46,4.69-.06,7.15,6.11,4.44,12.25,8.8,18.36,13.23,2.07,1.49,4.28,2.71,6.19,.18,1.91-2.55,.18-4.31-1.94-5.82-5.03-3.59-10.03-7.22-15.48-11.14m52.32-30.94c-.81-.9-1.58-2.45-2.66-2.74-1.13-.29-2.68,.45-3.84,1.12-.65,.38-.9,1.5-1.24,2.33-8.08,19.15-16.15,38.3-24.21,57.45-.39,.93-1.11,2.04-.88,2.83,.39,1.34,1.14,3.05,2.23,3.56,.91,.44,2.67-.37,3.77-1.08,.73-.46,.99-1.71,1.38-2.63,8.05-19.05,16.08-38.08,24.11-57.14,.43-1.02,.76-2.09,1.35-3.71m-16.56,83.55c-14.19,0-28.37,.03-42.56-.01-14.81-.03-24.58-9.7-24.64-24.47-.08-18.81-.09-37.61,0-56.42,.07-14.54,9.93-24.37,24.44-24.39,28.48-.05,56.97-.05,85.45,0,14.32,.03,24.2,9.85,24.3,24.19,.11,18.92,.1,37.84,.01,56.75-.07,14.59-9.89,24.3-24.44,24.34-14.19,.04-28.37,.01-42.56,.01"/>
      <path class="cls-2" d="M205.84,60.97c-5.62,4.04-10.8,7.8-16.01,11.53-2.13,1.52-3.17,3.4-1.29,5.66,1.62,1.93,3.59,1.34,5.42,.03,6.21-4.47,12.45-8.92,18.65-13.4,3.78-2.73,3.8-4.84,.04-7.58-6.1-4.45-12.26-8.79-18.37-13.22-2-1.46-4.11-2.42-5.88-.01-1.89,2.55-.27,4.3,1.88,5.83,5.04,3.56,10.03,7.19,15.56,11.16Zm-71.36,.01c5.64-4.06,10.83-7.81,16.03-11.53,2-1.44,3.02-3.25,1.42-5.44-1.62-2.21-3.62-1.68-5.61-.25-6.29,4.56-12.62,9.04-18.9,13.62-3.46,2.52-3.46,4.69-.06,7.15,6.11,4.44,12.25,8.8,18.36,13.23,2.07,1.49,4.28,2.71,6.19,.18,1.91-2.55,.18-4.31-1.94-5.82-5.03-3.59-10.03-7.22-15.48-11.14Zm52.32-30.94c-.81-.9-1.58-2.45-2.66-2.74-1.13-.29-2.68,.45-3.84,1.12-.65,.38-.9,1.5-1.24,2.33-8.08,19.15-16.15,38.3-24.21,57.45-.39,.93-1.11,2.04-.88,2.83,.39,1.34,1.14,3.05,2.23,3.56,.91,.44,2.67-.37,3.77-1.08,.73-.46,.99-1.71,1.38-2.63,8.05-19.05,16.08-38.08,24.11-57.14,.43-1.02,.76-2.09,1.35-3.71Zm-16.56,83.55c-14.19,0-28.37,.03-42.56-.01-14.81-.03-24.58-9.7-24.64-24.47-.08-18.81-.09-37.61,0-56.42,.07-14.54,9.93-24.37,24.44-24.39,28.48-.05,56.97-.05,85.45,0,14.32,.03,24.2,9.85,24.3,24.19,.11,18.92,.1,37.84,.01,56.75-.07,14.59-9.89,24.3-24.44,24.34-14.19,.04-28.37,.01-42.56,.01Z"/>
      <path class="cls-5" d="M310.75,298.67H29.6c0-3.4-.15-6.86,.09-10.27,.06-.89,1.24-1.79,2.04-2.53,36.93-34.42,96.05-34.29,133.03,.25,.57,.53,1.14,1.1,1.71,1.63,3.09,2.87,4.33,2.91,7.4-.05,7.42-7.18,15.78-13.01,25.04-17.58,35.54-17.53,79.04-11.63,108.52,14.62,2.37,2.1,3.81,4.17,3.36,7.47-.28,2.07-.05,4.21-.05,6.47"/>
      <path class="cls-2" d="M310.75,298.67H29.6c0-3.4-.15-6.86,.09-10.27,.06-.89,1.24-1.79,2.04-2.53,36.93-34.42,96.05-34.29,133.03,.25,.57,.53,1.14,1.1,1.71,1.63,3.09,2.87,4.33,2.91,7.4-.05,7.42-7.18,15.78-13.01,25.04-17.58,35.54-17.53,79.04-11.63,108.52,14.62,2.37,2.1,3.81,4.17,3.36,7.47-.28,2.07-.05,4.21-.05,6.47Z"/>
      <path class="cls-7" d="M239.85,217.97c20.09-.01,36.91,4.26,52.68,12.7,.6,.32,1.15,.71,1.75,1.01,2.28,1.18,3.2,3.04,1.89,5.27-1.24,2.15-3.2,1.84-5.31,.91-6.97-3.06-13.81-6.66-21.08-8.79-25.92-7.61-50.91-4.71-74.76,7.96-.9,.48-1.87,1.42-2.67,1.31-1.48-.23-3.42-.73-4.12-1.8-.55-.84,.29-2.81,.9-4.09,.32-.67,1.45-.97,2.23-1.41,15.79-8.7,32.71-12.97,48.5-13.06"/>
      <path class="cls-2" d="M239.85,217.97c20.09-.01,36.91,4.26,52.68,12.7,.6,.32,1.15,.71,1.75,1.01,2.28,1.18,3.2,3.04,1.89,5.27-1.24,2.15-3.2,1.84-5.31,.91-6.97-3.06-13.81-6.66-21.08-8.79-25.92-7.61-50.91-4.71-74.76,7.96-.9,.48-1.87,1.42-2.67,1.31-1.48-.23-3.42-.73-4.12-1.8-.55-.84,.29-2.81,.9-4.09,.32-.67,1.45-.97,2.23-1.41,15.79-8.7,32.71-12.97,48.5-13.06Z"/>
      <path class="cls-7" d="M242.31,138.46c17.99,.06,34.9,4.37,50.7,13.01,.78,.43,1.95,.74,2.23,1.4,.6,1.41,1.33,3.27,.84,4.45-.39,.91-2.53,1.23-3.94,1.49-.63,.11-1.41-.58-2.11-.95-31.84-16.66-63.67-16.69-95.53-.05-.1,.05-.2,.11-.29,.17-2.23,1.26-4.58,2.04-6.09-.79-1.4-2.63,.3-4.31,2.58-5.26,7.95-3.34,15.72-7.37,23.98-9.64,8.91-2.44,18.28-3.21,27.46-4.7,.05,.29,.1,.58,.16,.88"/>
      <path class="cls-2" d="M242.31,138.46c17.99,.06,34.9,4.37,50.7,13.01,.78,.43,1.95,.74,2.23,1.4,.6,1.41,1.33,3.27,.84,4.45-.39,.91-2.53,1.23-3.94,1.49-.63,.11-1.41-.58-2.11-.95-31.84-16.66-63.67-16.69-95.53-.05-.1,.05-.2,.11-.29,.17-2.23,1.26-4.58,2.04-6.09-.79-1.4-2.63,.3-4.31,2.58-5.26,7.95-3.34,15.72-7.37,23.98-9.64,8.91-2.44,18.28-3.21,27.46-4.7,.05,.29,.1,.58,.16,.88Z"/>
      <path class="cls-7" d="M240.31,178.22c19.57-.07,36.26,4.2,51.95,12.53,.79,.42,1.58,.87,2.35,1.33,2.1,1.23,2.78,3.08,1.55,5.13-1.17,1.97-3.04,1.87-5.04,.98-6.45-2.87-12.75-6.25-19.45-8.35-26.4-8.25-51.92-5.6-76.38,7.28-.79,.42-1.62,1.27-2.36,1.2-1.6-.15-3.7-.28-4.62-1.31-1.5-1.68-.63-3.78,1.34-4.76,5.33-2.65,10.62-5.45,16.16-7.56,11.65-4.42,23.79-6.6,34.51-6.46"/>
      <path class="cls-2" d="M240.31,178.22c19.57-.07,36.26,4.2,51.95,12.53,.79,.42,1.58,.87,2.35,1.33,2.1,1.23,2.78,3.08,1.55,5.13-1.17,1.97-3.04,1.87-5.04,.98-6.45-2.87-12.75-6.25-19.45-8.35-26.4-8.25-51.92-5.6-76.38,7.28-.79,.42-1.62,1.27-2.36,1.2-1.6-.15-3.7-.28-4.62-1.31-1.5-1.68-.63-3.78,1.34-4.76,5.33-2.65,10.62-5.45,16.16-7.56,11.65-4.42,23.79-6.6,34.51-6.46Z"/>
      <path class="cls-7" d="M152.57,234.09c.06,3.97-2.71,5.19-5.88,3.73-5.6-2.58-11.08-5.57-16.9-7.51-27.35-9.08-53.8-6.67-79.25,6.88-.49,.26-.98,.53-1.48,.8-1.97,1.07-3.85,.89-4.97-1.1-1.17-2.1-.49-4.05,1.7-5.06,6.21-2.88,12.29-6.21,18.75-8.32,29.29-9.56,57.62-6.92,84.74,7.73,1.44,.77,2.54,2.18,3.29,2.85"/>
      <path class="cls-2" d="M152.57,234.09c.06,3.97-2.71,5.19-5.88,3.73-5.6-2.58-11.08-5.57-16.9-7.51-27.35-9.08-53.8-6.67-79.25,6.88-.49,.26-.98,.53-1.48,.8-1.97,1.07-3.85,.89-4.97-1.1-1.17-2.1-.49-4.05,1.7-5.06,6.21-2.88,12.29-6.21,18.75-8.32,29.29-9.56,57.62-6.92,84.74,7.73,1.44,.77,2.54,2.18,3.29,2.85Z"/>
      <path class="cls-7" d="M149.39,159.42c-1.39-.61-2.34-.94-3.22-1.41-32.03-16.88-64.07-16.89-96.12-.04-.09,.05-.2,.1-.29,.17-2.06,1.19-4.23,1.64-5.62-.69-1.45-2.43-.16-4.16,2.14-5.45,10.38-5.84,21.43-9.9,33.14-11.9,24.43-4.18,47.64-.46,69.49,11.4,.97,.53,2.22,1.02,2.7,1.9,.57,1.03,.92,2.63,.52,3.66-.39,1.01-1.83,1.62-2.75,2.36"/>
      <path class="cls-2" d="M149.39,159.42c-1.39-.61-2.34-.94-3.22-1.41-32.03-16.88-64.07-16.89-96.12-.04-.09,.05-.2,.1-.29,.17-2.06,1.19-4.23,1.64-5.62-.69-1.45-2.43-.16-4.16,2.14-5.45,10.38-5.84,21.43-9.9,33.14-11.9,24.43-4.18,47.64-.46,69.49,11.4,.97,.53,2.22,1.02,2.7,1.9,.57,1.03,.92,2.63,.52,3.66-.39,1.01-1.83,1.62-2.75,2.36Z"/>
      <path class="cls-7" d="M95.6,178.22c20-.03,36.5,4.1,52,12.3,.7,.37,1.38,.77,2.08,1.13,2.21,1.15,3.87,2.73,2.44,5.34-1.42,2.6-3.56,1.88-5.84,.89-6.99-3.05-13.85-6.6-21.11-8.71-25.82-7.48-50.69-4.48-74.42,8.14-.49,.27-.98,.54-1.47,.8-2.06,1.11-4.06,1.13-5.24-1.08-1.14-2.13-.37-4.05,1.84-5.02,7.17-3.17,14.23-6.71,21.63-9.24,9.84-3.35,20.12-4.71,28.09-4.55"/>
      <path class="cls-2" d="M95.6,178.22c20-.03,36.5,4.1,52,12.3,.7,.37,1.38,.77,2.08,1.13,2.21,1.15,3.87,2.73,2.44,5.34-1.42,2.6-3.56,1.88-5.84,.89-6.99-3.05-13.85-6.6-21.11-8.71-25.82-7.48-50.69-4.48-74.42,8.14-.49,.27-.98,.54-1.47,.8-2.06,1.11-4.06,1.13-5.24-1.08-1.14-2.13-.37-4.05,1.84-5.02,7.17-3.17,14.23-6.71,21.63-9.24,9.84-3.35,20.12-4.71,28.09-4.55Z"/>
      <path class="cls-7" d="M186.81,30.05c-.58,1.62-.92,2.68-1.35,3.71-8.03,19.05-16.07,38.09-24.11,57.13-.4,.93-.65,2.17-1.38,2.64-1.1,.71-2.86,1.51-3.78,1.08-1.09-.52-1.85-2.22-2.22-3.56-.23-.79,.48-1.9,.88-2.83,8.06-19.15,16.13-38.3,24.21-57.45,.34-.82,.6-1.95,1.24-2.33,1.15-.67,2.71-1.41,3.84-1.12,1.09,.28,1.85,1.84,2.66,2.74"/>
      <path class="cls-2" d="M186.81,30.05c-.58,1.62-.92,2.68-1.35,3.71-8.03,19.05-16.07,38.09-24.11,57.13-.4,.93-.65,2.17-1.38,2.64-1.1,.71-2.86,1.51-3.78,1.08-1.09-.52-1.85-2.22-2.22-3.56-.23-.79,.48-1.9,.88-2.83,8.06-19.15,16.13-38.3,24.21-57.45,.34-.82,.6-1.95,1.24-2.33,1.15-.67,2.71-1.41,3.84-1.12,1.09,.28,1.85,1.84,2.66,2.74Z"/>
      <path class="cls-7" d="M134.48,60.98c5.45,3.93,10.45,7.56,15.5,11.14,2.11,1.5,3.85,3.28,1.93,5.83-1.91,2.54-4.12,1.31-6.19-.19-6.1-4.43-12.25-8.79-18.35-13.22-3.4-2.47-3.39-4.64,.05-7.15,6.28-4.57,12.61-9.06,18.91-13.62,1.97-1.43,3.98-1.96,5.6,.25,1.6,2.19,.58,4-1.41,5.43-5.2,3.73-10.39,7.47-16.04,11.53"/>
      <path class="cls-2" d="M134.48,60.98c5.45,3.93,10.45,7.56,15.5,11.14,2.11,1.5,3.85,3.28,1.93,5.83-1.91,2.54-4.12,1.31-6.19-.19-6.1-4.43-12.25-8.79-18.35-13.22-3.4-2.47-3.39-4.64,.05-7.15,6.28-4.57,12.61-9.06,18.91-13.62,1.97-1.43,3.98-1.96,5.6,.25,1.6,2.19,.58,4-1.41,5.43-5.2,3.73-10.39,7.47-16.04,11.53Z"/>
      <path class="cls-7" d="M205.84,60.97c-5.52-3.97-10.51-7.6-15.56-11.16-2.15-1.51-3.77-3.28-1.88-5.83,1.76-2.41,3.87-1.45,5.88,.01,6.11,4.43,12.27,8.78,18.37,13.22,3.76,2.74,3.74,4.86-.04,7.58-6.2,4.49-12.44,8.93-18.65,13.4-1.83,1.32-3.8,1.9-5.42-.03-1.88-2.26-.84-4.13,1.29-5.66,5.21-3.73,10.4-7.49,16.01-11.53"/>
      <path class="cls-2" d="M205.84,60.97c-5.52-3.97-10.51-7.6-15.56-11.16-2.15-1.51-3.77-3.28-1.88-5.83,1.76-2.41,3.87-1.45,5.88,.01,6.11,4.43,12.27,8.78,18.37,13.22,3.76,2.74,3.74,4.86-.04,7.58-6.2,4.49-12.44,8.93-18.65,13.4-1.83,1.32-3.8,1.9-5.42-.03-1.88-2.26-.84-4.13,1.29-5.66,5.21-3.73,10.4-7.49,16.01-11.53Z"/>
    </g>
  </g>
</svg>