<?xml version="1.0" encoding="UTF-8"?><svg id="Layer_2" xmlns="http://www.w3.org/2000/svg" xmlns:xlink="http://www.w3.org/1999/xlink" viewBox="0 0 73.09 70.88"><defs><style>.cls-1{fill:none;}.cls-2{clip-path:url(#clippath);}.cls-3{fill:#fff;}.cls-4{fill:#ffcc05;}.cls-5{fill:#63c29d;}.cls-6{fill:#231f20;}</style><clipPath id="clippath"><rect class="cls-1" width="73.09" height="70.88"/></clipPath></defs><g id="Layer_1-2"><g class="cls-2"><path class="cls-6" d="M52.97,53.43c.96-.87,1.84-1.67,2.75-2.5-1.99-1.93-3.91-3.79-5.84-5.67-.84,.93-1.65,1.82-2.49,2.75,1.9,1.84,3.78,3.67,5.59,5.43m6.01-2.28c-.32,.19-.64,.31-.86,.53-1.5,1.52-2.99,3.05-4.47,4.6-.6,.63-.6,1.12,.02,1.72,3.52,3.4,7.04,6.8,10.57,10.19,.55,.53,1.1,.53,1.63,0,1.52-1.54,3.02-3.09,4.51-4.65,.58-.6,.57-1.09-.03-1.67-3.52-3.4-7.04-6.8-10.57-10.19-.21-.2-.5-.32-.81-.52m-5.41-23.17c.08-14.11-11.38-25.62-25.57-25.69C13.91,2.22,2.38,13.66,2.29,27.78c-.09,14.12,11.38,25.7,25.51,25.77,14.18,.07,25.68-11.35,25.77-25.58m-2.32,15.41c1.95,1.9,3.91,3.81,5.89,5.69,.13,.12,.44,.17,.62,.11,1.44-.48,2.65-.13,3.72,.91,3.43,3.33,6.89,6.63,10.32,9.95,1.71,1.65,1.73,3.53,.07,5.24-1.4,1.45-2.81,2.91-4.23,4.35-1.58,1.61-3.47,1.65-5.09,.09-3.36-3.23-6.71-6.47-10.07-9.71-1.73-1.67-1.93-2.65-.99-4.85-1.93-1.87-3.88-3.76-5.84-5.66-6.53,5.14-13.89,7.23-22.07,5.97-6.92-1.07-12.67-4.38-17.14-9.77C-2.48,34.96-2.08,19.34,7.32,9.09,16.72-1.16,32.23-2.95,43.61,4.79c12.28,8.36,16.32,25.58,7.63,38.59"/><path class="cls-3" d="M50.88,27.89c-.03-12.68-10.33-22.95-22.98-22.92-12.69,.04-22.93,10.32-22.9,22.99,.03,12.66,10.36,22.94,23.02,22.88,12.65-.05,22.9-10.34,22.87-22.96m2.69,.08c-.08,14.23-11.59,25.65-25.76,25.58-14.13-.07-25.6-11.65-25.51-25.77C2.38,13.66,13.91,2.22,28,2.29c14.19,.07,25.65,11.58,25.57,25.69"/><path class="cls-5" d="M58.98,51.15c.31,.19,.6,.32,.81,.52,3.53,3.39,7.05,6.79,10.57,10.19,.59,.58,.6,1.07,.03,1.67-1.49,1.56-3,3.11-4.52,4.65-.53,.53-1.08,.53-1.63,0-3.53-3.39-7.05-6.79-10.57-10.19-.62-.6-.63-1.09-.02-1.72,1.48-1.54,2.97-3.08,4.47-4.6,.22-.22,.54-.34,.86-.53"/><path class="cls-3" d="M52.97,53.43c-1.81-1.75-3.69-3.58-5.59-5.43,.85-.93,1.65-1.82,2.49-2.75,1.94,1.88,3.86,3.74,5.84,5.67-.91,.83-1.79,1.63-2.75,2.5"/><path class="cls-6" d="M48.59,27.97c.08-11.34-9.15-20.61-20.58-20.7-11.32-.09-20.65,9.14-20.73,20.49-.08,11.44,9.11,20.74,20.55,20.81,11.41,.07,20.68-9.12,20.76-20.6m2.29-.08c.03,12.62-10.22,22.91-22.87,22.96-12.65,.05-22.99-10.22-23.02-22.88-.03-12.67,10.21-22.95,22.9-22.99,12.65-.04,22.95,10.23,22.98,22.91"/><path class="cls-4" d="M27.93,40.01c3.4,0,6.8,0,10.2,0,.47,0,.96,0,1.42-.09,4.12-.79,6.17-5.21,4.07-8.88-3.48-6.08-7-12.14-10.51-18.2-.25-.43-.55-.84-.89-1.19-2.74-2.88-7.44-2.27-9.48,1.25-3.48,5.97-6.92,11.97-10.37,17.95-2.49,4.33,.29,9.16,5.3,9.17,3.42,.01,6.85,0,10.27,0m20.66-12.04c-.08,11.47-9.35,20.67-20.76,20.6-11.44-.07-20.62-9.38-20.55-20.81,.08-11.35,9.41-20.57,20.73-20.49,11.44,.09,20.66,9.37,20.58,20.7"/><path class="cls-4" d="M28.42,48.35c11.47,0,20.77-9.3,20.77-20.77S39.9,6.8,28.42,6.8,7.65,16.1,7.65,27.57s9.3,20.77,20.77,20.77"/></g></g></svg>
