<?xml version="1.0" encoding="UTF-8"?><svg id="Layer_1" xmlns="http://www.w3.org/2000/svg" xmlns:xlink="http://www.w3.org/1999/xlink" viewBox="0 0 1425 52"><defs><style>.cls-1{fill:none;}.cls-2{clip-path:url(#clippath);}.cls-3{fill:#fff;}.cls-4{fill:#f37167;}.cls-5{fill:#1f376a;}.cls-6{fill:#231f20;}</style><clipPath id="clippath"><rect class="cls-1" width="1425" height="52"/></clipPath></defs><rect class="cls-5" x="10" width="1415" height="52"/><rect class="cls-4" width="11.25" height="52"/><g class="cls-2"><path class="cls-3" d="M36,22.83c.05-2.76,1.04-5.15,2.96-7.12,1.91-1.97,4.26-3,7.04-3.18v-.35c0-.87,0-1.73,0-2.6,0-.94,.63-1.58,1.56-1.58,4.11,0,8.22,0,12.32,0,.19,0,.44,.1,.57,.24,1.78,1.76,3.55,3.53,5.31,5.31,.14,.14,.24,.38,.24,.57,.01,7.44,.01,14.89,0,22.33,0,.92-.64,1.56-1.55,1.56-5.64,0-11.28,0-16.92,0-.9,0-1.54-.65-1.55-1.54,0-.98,0-1.96,0-2.98-3.2-.23-5.81-1.55-7.79-4.06-1.52-1.94-2.26-4.16-2.21-6.62"/><path class="cls-6" d="M55.98,23.53c-.09,0-.15-.01-.21-.01-2.95,0-5.9,0-8.85,0-.13,0-.29,.09-.39,.19-1.35,1.33-2.69,2.68-4.03,4.02-.77,.77-1.55,1.54-2.32,2.31,2.09,2.05,5.85,3.23,9.48,1.95,3.99-1.41,6.19-5.04,6.33-8.46"/><path class="cls-6" d="M45.99,13.55c-3.1,.08-6.73,2.06-8.29,5.9-1.51,3.72-.4,7.63,1.76,9.89,.04-.04,.09-.08,.13-.12,2.09-2.08,4.17-4.17,6.25-6.26,.09-.09,.15-.25,.15-.38,0-2.93,0-5.86,0-8.79,0-.08-.01-.16-.02-.24"/><path class="cls-5" d="M64.01,22.53h-3.98v.96h3.98v-.96Zm-3.99-2.04h3.97v-.96h-3.97v.96Zm3.98-3.96h-3.97v.96h3.97v-.96Zm-16-.52c0,1.62,0,3.25,0,4.88,0,.42,.17,.62,.56,.62,3.29,0,6.59,0,9.88,0,.38,0,.59-.2,.56-.59-.04-.6-.07-1.21-.18-1.8-.85-4.88-5.18-8.56-10.12-8.62-.55,0-.71,.14-.71,.69,0,1.6,0,3.21,0,4.81m11.51-7.01c0,1.31,0,2.56,0,3.83,0,1.08,.6,1.68,1.69,1.68,1.15,0,2.29,0,3.44,0h.38v.35c0,7.15,0,14.3,0,21.45,0,.57-.15,.72-.72,.72h-16.57c-.57,0-.72-.15-.72-.72,0-.93,0-1.85,0-2.76,.66-.11,1.29-.18,1.9-.32,4.43-1.04,7.66-4.78,8.06-9.3,.02-.24,.04-.48,.04-.72,.01-.53-.15-.69-.68-.69-2.97,0-5.94,0-8.91,0h-.42V9.72c0-.58,.14-.72,.72-.72h11.79Z"/><path class="cls-5" d="M55.98,23.53c-.14,3.43-2.34,7.05-6.33,8.46-3.63,1.28-7.39,.1-9.48-1.95,.78-.77,1.55-1.54,2.32-2.31,1.34-1.34,2.68-2.69,4.03-4.02,.1-.1,.26-.19,.39-.19,2.95-.01,5.9,0,8.85,0,.06,0,.12,0,.21,.01"/><path class="cls-5" d="M45.99,13.55c0,.08,.02,.16,.02,.24,0,2.93,0,5.86,0,8.79,0,.13-.06,.29-.15,.38-2.08,2.09-4.17,4.18-6.25,6.26-.04,.04-.09,.08-.13,.12-2.17-2.26-3.28-6.17-1.76-9.89,1.57-3.85,5.19-5.82,8.29-5.9"/><path class="cls-3" d="M49.02,20.49h8.97c-.3-5.39-4.86-8.88-8.97-8.93v8.93Zm-1.01-4.48v-4.81c0-.55,.16-.7,.71-.69,4.94,.07,9.27,3.75,10.11,8.62,.1,.59,.14,1.2,.18,1.8,.02,.39-.18,.58-.56,.58-3.29,0-6.59,0-9.88,0-.39,0-.56-.2-.56-.62,0-1.63,0-3.25,0-4.88"/><path class="cls-5" d="M49.02,20.49V11.56c4.11,.04,8.67,3.54,8.97,8.93h-8.97Z"/></g></svg>