<?xml version="1.0" encoding="UTF-8"?><svg id="Layer_2" xmlns="http://www.w3.org/2000/svg" xmlns:xlink="http://www.w3.org/1999/xlink" viewBox="0 0 50 47.62"><defs><style>.cls-1{fill:none;}.cls-2{clip-path:url(#clippath);}.cls-3{fill:#ffcc05;}.cls-4{fill:#1f376a;}</style><clipPath id="clippath"><rect class="cls-1" width="50" height="47.62"/></clipPath></defs><g id="Layer_1-2"><g class="cls-2"><path class="cls-3" d="M44.52,1c-4.86-2.38-10.73-.38-13.11,4.48l-12.68,26.19c-2.38,4.86-.38,10.73,4.48,13.11,1.39,.68,2.86,1,4.31,1,3.62,0,7.1-2.01,8.8-5.48l12.68-26.19c2.38-4.86,.38-10.73-4.48-13.11"/><path class="cls-4" d="M26.79,2.84c-4.86-2.38-10.73-.38-13.11,4.48L1,33.51c-2.38,4.86-.38,10.73,4.48,13.11,1.39,.68,2.86,1,4.31,1,3.62,0,7.1-2.01,8.8-5.48L31.27,15.95c2.38-4.86,.38-10.73-4.48-13.11"/></g></g></svg>