<?xml version="1.0" encoding="UTF-8"?><svg id="Layer_2" xmlns="http://www.w3.org/2000/svg" xmlns:xlink="http://www.w3.org/1999/xlink" viewBox="0 0 1366 51.56"><defs><style>.cls-1{fill:none;}.cls-2{clip-path:url(#clippath);}.cls-3{fill:#fff;}.cls-4{fill:#1fa585;}</style><clipPath id="clippath"><rect class="cls-1" width="1366" height="51.56"/></clipPath></defs><g id="Layer_1-2"><rect class="cls-4" width="1366" height="51.56"/><g class="cls-2"><path class="cls-3" d="M188.43,9.38s.03-.05,.04-.07c-.6-.4-1.18-.84-1.82-1.17-.69-.36-1.44-.37-2.19-.12-.8,.26-1.39,.85-2.06,1.32,0,0,0,.03,0,.05h6.02Zm-17.06,7.75c1.09,.91,2.15,1.79,3.25,2.7v-5c-1.1,.78-2.16,1.53-3.25,2.3m24.84,2.71c1.11-.92,2.17-1.8,3.26-2.71-1.09-.77-2.15-1.53-3.26-2.31v5.02Zm-7.14,7.28c3.58,2.97,7.13,5.93,10.71,8.9V18.21c-3.59,2.98-7.14,5.93-10.71,8.9m-7.29,0c-3.58-2.98-7.14-5.93-10.71-8.9v17.8c3.58-2.98,7.13-5.92,10.71-8.9m.78,.68c-3.51,2.92-7.03,5.84-10.58,8.79h26.88c-3.56-2.96-7.07-5.88-10.58-8.79-1.92,1.49-3.82,1.49-5.72,0m-6.88-17.36c0,.06-.02,.09-.02,.12,0,3.32,0,6.64,0,9.96,0,.1,.07,.23,.14,.3,2.54,2.12,5.08,4.24,7.63,6.34,1.17,.96,2.72,.96,3.91,.03,.33-.26,.65-.53,.97-.8,2.21-1.83,4.41-3.67,6.62-5.49,.16-.13,.23-.27,.23-.48,0-3.22,0-6.44,0-9.66v-.32h-19.49Zm9.73,27.2h-13.66c-1.13,0-1.74-.61-1.74-1.75,0-6.21,0-12.42,0-18.62,0-.33,.11-.53,.38-.71,1.37-.95,2.72-1.91,4.07-2.89,.1-.07,.17-.24,.17-.37,.01-.91,0-1.83,0-2.74,0-.76,.41-1.16,1.18-1.17,1.45,0,2.91,0,4.36,0,.2,0,.43-.08,.6-.2,.78-.53,1.54-1.09,2.31-1.63,1.42-1.01,3.38-.97,4.81,.09,.75,.56,1.51,1.09,2.28,1.62,.12,.08,.3,.12,.45,.12,1.45,0,2.91,0,4.36,0,.83,0,1.22,.39,1.22,1.21,0,.9,0,1.81,0,2.71,0,.12,.09,.29,.18,.36,1.37,.98,2.74,1.96,4.12,2.92,.22,.15,.32,.33,.32,.6,0,6.26,0,12.52,0,18.77,0,1.04-.63,1.67-1.67,1.67-4.58,0-9.16,0-13.75,0"/><path class="cls-3" d="M188.47,9.3s-.02,.05-.04,.07h-6.02s-.02-.05,0-.05c.67-.47,1.26-1.05,2.06-1.32"/><path class="cls-3" d="M182.94,18.8c-.01,1.2,.5,1.8,1.36,1.78,.49,0,.94-.15,1.3-.48,.61-.55,1.12-1.15,1.25-2.02,.06-.42,.02-.77-.18-1.11-.09-.15-.18-.29-.29-.42-.42-.52-1.13-.67-1.71-.34-1.09,.62-1.6,1.6-1.73,2.59m3.52,1.93c-.53,.48-1.13,.77-1.83,.86-1.41,.19-2.6-.75-2.71-2.16-.14-1.64,.84-3.4,2.31-4.15,.91-.47,2.05-.28,2.78,.44,.07,.07,.12,.15,.23,.28,.04-.2,.07-.32,.1-.44,.08-.35,.32-.53,.62-.46,.3,.07,.46,.33,.38,.67-.29,1.4-.59,2.8-.89,4.2-.08,.4,.03,.56,.44,.58,.57,.04,1.04-.18,1.39-.63,.95-1.2,1.1-2.55,.56-3.94-.56-1.43-1.65-2.26-3.18-2.47-2.74-.39-5.72,1.64-6.37,4.34-.51,2.14,.72,4.31,2.83,4.94,1.6,.48,3.22,.63,4.86,.21,1.04-.26,1.93-.77,2.63-1.6,.21-.25,.46-.31,.69-.18,.22,.12,.31,.32,.25,.56-.03,.11-.1,.22-.17,.31-.95,1.12-2.18,1.74-3.6,2.01-1.83,.34-3.63,.18-5.35-.47-2.88-1.08-4.12-4.45-2.65-7.27,1.11-2.13,2.84-3.51,5.27-3.86,2.56-.37,4.66,.66,5.64,2.82,.84,1.85,.67,3.65-.63,5.28-.46,.58-1.06,.9-1.8,.97-.76,.06-1.39-.12-1.78-.86"/></g></g></svg>
