<?xml version="1.0" encoding="UTF-8"?><svg id="Layer_2" xmlns="http://www.w3.org/2000/svg" xmlns:xlink="http://www.w3.org/1999/xlink" viewBox="0 0 77.07 77.11"><defs><style>.cls-1{fill:none;}.cls-2{clip-path:url(#clippath);}.cls-3{fill:#fff;}.cls-4{fill:#ffcc05;}.cls-5{fill:#63c29c;}.cls-6{fill:#231f20;}</style><clipPath id="clippath"><rect class="cls-1" width="77.07" height="77.11"/></clipPath></defs><g id="Layer_1-2"><g class="cls-2"><path class="cls-6" d="M74.08,64.17c-3.34,3.35-6.63,6.64-9.89,9.9,2.53,1.01,5.89,.36,7.87-1.66,2.29-2.33,2.96-5.08,2.02-8.24m-12.48,8.45c3.68-3.69,7.31-7.32,10.9-10.92-4.9-4.89-9.86-9.82-14.83-14.78-1.96,1.15-3.75,1.07-5.19-.3-1.5-1.43-1.63-3.19-.45-5.37-.67-.71-1.31-1.39-1.9-2.01-3.64,3.66-7.28,7.31-10.91,10.96,.59,.59,1.24,1.24,1.91,1.91,.18-.11,.37-.23,.56-.34,1.59-.91,3.54-.63,4.84,.67,1.25,1.26,1.54,3.28,.6,4.78-.31,.5-.24,.74,.14,1.12,4.57,4.55,9.12,9.11,13.68,13.67,.21,.21,.44,.41,.63,.6m.73-69.99c-1.83-.13-3.88,.21-5.46,.87-5.86,2.43-8.98,8.26-7.74,14.52,.17,.88,0,1.51-.64,2.15-9.47,9.44-18.93,18.9-28.37,28.36-.62,.62-1.24,.82-2.09,.63-2.3-.51-4.59-.42-6.82,.37-4.92,1.76-7.93,5.27-8.67,10.41s1.12,9.41,5.39,12.42c4.36,3.08,10.11,3.11,14.37,.28,4.59-3.05,6.7-8.14,5.6-13.58-.17-.85,0-1.47,.63-2.09,3.69-3.65,7.35-7.33,11.03-11,5.78-5.78,11.57-11.56,17.34-17.36,.6-.61,1.2-.85,2.08-.66,1,.21,2.04,.35,3.06,.31,6-.21,10.81-4.2,12.14-10.04,.24-1.06,.25-2.18,.37-3.28-.08-.02-.16-.03-.24-.05-.2,.19-.4,.37-.59,.56-1.92,1.92-3.84,3.82-5.74,5.75-.58,.59-1.17,.75-1.96,.48-2.32-.81-4.65-1.58-6.98-2.33-.68-.22-1.1-.64-1.32-1.31-.76-2.33-1.53-4.66-2.32-6.99-.27-.79-.12-1.38,.48-1.96,1.97-1.93,3.91-3.9,5.86-5.85,.17-.17,.33-.35,.57-.62m-25.05,49.28c-1.16,1.17-2.24,2.25-3.32,3.33-.96,.96-1.89,1.94-2.88,2.86-.44,.41-.54,.81-.46,1.38,.69,4.9-.68,9.17-4.03,12.8-7.14,7.76-20.33,5.82-24.95-3.66-4.49-9.2,.66-19.86,10.66-22.02,1.77-.38,3.58-.46,5.38-.11,.52,.1,.88-.01,1.26-.4,9.03-9.06,18.08-18.11,27.14-27.14,.35-.35,.46-.67,.39-1.18C45.24,9.23,50.64,1.76,59.16,.22c1.99-.36,3.99-.25,5.97,.22,1.27,.31,1.62,1.41,.7,2.35-1.26,1.29-2.55,2.56-3.83,3.84-1.21,1.21-2.4,2.42-3.62,3.61-.29,.28-.37,.51-.23,.91,.62,1.77,1.18,3.56,1.82,5.33,.1,.27,.4,.57,.68,.66,1.7,.6,3.42,1.13,5.12,1.73,.49,.17,.8,.12,1.18-.26,2.36-2.39,4.75-4.76,7.12-7.14,.45-.45,.9-.9,1.63-.68,.76,.22,.91,.84,1.02,1.51,1.08,6.45-.83,11.76-6.12,15.67-3.34,2.46-7.15,3.27-11.26,2.69-.32-.05-.79,.01-1,.22-2.09,2.03-4.13,4.1-6.19,6.16-.07,.07-.11,.15-.22,.3,.83,.81,1.66,1.61,2.47,2.43,1.09,1.08,1.1,1.59,.03,2.7-.44,.45-.85,.98-.53,1.6,.21,.42,.68,.9,1.09,.96,.45,.07,1.07-.2,1.44-.53,1.22-1.04,1.63-1.07,2.77,.07,4.86,4.86,9.72,9.73,14.59,14.58,1.57,1.56,2.73,3.36,3.1,5.56,1.26,7.41-4.33,12.37-9.91,12.4-3.07,.02-5.62-1.05-7.76-3.19-4.95-4.95-9.9-9.9-14.85-14.85-.93-.93-.92-1.5-.03-2.44,.24-.25,.5-.52,.63-.83,.25-.58,.13-1.15-.35-1.57-.5-.45-1.09-.51-1.67-.16-.29,.18-.54,.45-.8,.68-.76,.68-1.38,.7-2.11,0-.91-.9-1.79-1.82-2.78-2.83"/><path class="cls-4" d="M25.22,53.43c9.39-9.39,18.79-18.79,28.14-28.14-.49-.53-1.05-1.12-1.54-1.65-9.42,9.42-18.81,18.8-28.21,28.2,.54,.53,1.12,1.11,1.61,1.59m-9.85,15.98c1.18,0,2.36-.02,3.54,0,.73,.02,1.24-.26,1.61-.89,1.17-1.99,2.36-3.96,3.56-5.93,.38-.63,.38-1.2,0-1.83-1.2-1.97-2.39-3.95-3.56-5.93-.34-.58-.8-.86-1.47-.86-2.43,.01-4.87,0-7.3,0-.64,0-1.09,.26-1.42,.81-1.2,2.03-2.41,4.05-3.63,6.06-.35,.58-.34,1.12,.01,1.69,1.21,1.99,2.41,3.99,3.6,6,.35,.6,.83,.88,1.54,.87,1.18-.03,2.36,0,3.54,0M62.32,2.63c-.25,.27-.4,.45-.57,.62-1.95,1.95-3.89,3.92-5.86,5.85-.6,.58-.75,1.17-.48,1.96,.8,2.32,1.56,4.65,2.32,6.98,.22,.67,.63,1.09,1.31,1.31,2.34,.76,4.67,1.53,6.98,2.33,.79,.27,1.38,.11,1.96-.48,1.9-1.93,3.82-3.84,5.74-5.75,.19-.19,.39-.38,.59-.57,.08,.02,.16,.03,.24,.05-.12,1.09-.13,2.21-.37,3.28-1.33,5.85-6.14,9.83-12.14,10.04-1.02,.04-2.06-.1-3.06-.31-.88-.18-1.47,.06-2.08,.66-5.77,5.8-11.56,11.57-17.34,17.36-3.67,3.67-7.34,7.36-11.03,11.01-.62,.62-.8,1.24-.63,2.09,1.1,5.44-1.02,10.54-5.6,13.58-4.26,2.83-10.01,2.8-14.38-.28-4.27-3.01-6.13-7.28-5.39-12.42,.74-5.14,3.75-8.65,8.67-10.41,2.22-.79,4.52-.88,6.82-.38,.85,.19,1.47-.01,2.09-.63,9.44-9.47,18.9-18.92,28.37-28.36,.65-.64,.81-1.28,.64-2.15-1.24-6.26,1.88-12.09,7.74-14.52,1.58-.66,3.62-1,5.46-.87"/><path class="cls-5" d="M51.89,53.53c4.29,4.29,8.54,8.54,12.77,12.77,.53-.52,1.12-1.09,1.61-1.57-4.28-4.28-8.54-8.54-12.78-12.77-.51,.49-1.08,1.05-1.61,1.57m9.71,19.09c-.2-.19-.42-.39-.63-.6-4.56-4.56-9.11-9.12-13.68-13.67-.38-.38-.45-.62-.14-1.12,.94-1.5,.65-3.52-.6-4.78-1.3-1.31-3.25-1.58-4.84-.68-.19,.11-.38,.23-.56,.34-.67-.67-1.32-1.33-1.91-1.91,3.63-3.65,7.27-7.3,10.91-10.96,.58,.62,1.23,1.3,1.9,2.01-1.18,2.19-1.05,3.94,.45,5.37,1.44,1.37,3.22,1.45,5.19,.3,4.98,4.96,9.93,9.89,14.84,14.77-3.59,3.6-7.22,7.23-10.91,10.92"/><path class="cls-3" d="M74.08,64.17c.94,3.16,.27,5.92-2.02,8.24-1.98,2.02-5.34,2.67-7.87,1.66,3.26-3.26,6.54-6.55,9.89-9.9"/><path class="cls-6" d="M15.36,66.84c.88,0,1.76,.03,2.63-.02,.27-.02,.62-.19,.76-.41,.9-1.42,1.76-2.86,2.59-4.32,.12-.2,.13-.59,.01-.79-.83-1.46-1.7-2.9-2.59-4.32-.13-.21-.45-.41-.69-.41-1.78-.03-3.56-.03-5.34,0-.24,0-.57,.2-.7,.4-.89,1.42-1.76,2.86-2.59,4.32-.12,.2-.11,.58,0,.79,.49,.9,1.15,1.72,1.55,2.66,.71,1.7,1.83,2.49,3.69,2.09,.22-.05,.45,0,.68,0m.01,2.57c-1.18,0-2.36-.02-3.54,0-.71,.01-1.19-.27-1.54-.87-1.19-2.01-2.39-4-3.6-6-.35-.58-.36-1.11-.01-1.69,1.22-2.01,2.43-4.03,3.64-6.06,.33-.55,.78-.81,1.42-.81,2.43,0,4.87,0,7.3,0,.67,0,1.13,.28,1.47,.86,1.17,1.99,2.36,3.96,3.56,5.93,.38,.63,.39,1.2,0,1.83-1.2,1.97-2.39,3.95-3.56,5.93-.37,.63-.87,.91-1.61,.89-1.18-.03-2.36,0-3.54,0"/><path class="cls-6" d="M25.22,53.43c-.49-.48-1.07-1.06-1.61-1.59,9.4-9.39,18.79-18.78,28.21-28.2,.49,.53,1.05,1.12,1.54,1.65l-28.14,28.14"/><path class="cls-6" d="M51.89,53.53c.53-.52,1.1-1.07,1.61-1.57,4.24,4.24,8.5,8.49,12.78,12.77-.5,.49-1.08,1.05-1.61,1.57-4.23-4.23-8.48-8.48-12.77-12.77"/><path class="cls-3" d="M15.36,66.84c-.23,0-.46-.04-.68,0-1.86,.4-2.97-.39-3.69-2.09-.39-.94-1.06-1.76-1.55-2.66-.11-.21-.12-.59,0-.79,.83-1.46,1.7-2.9,2.59-4.32,.13-.21,.46-.4,.7-.4,1.78-.03,3.56-.03,5.34,0,.24,0,.57,.2,.69,.41,.89,1.42,1.76,2.86,2.59,4.32,.11,.2,.1,.58-.01,.79-.84,1.46-1.7,2.9-2.59,4.32-.14,.22-.5,.39-.76,.4-.88,.05-1.75,.02-2.63,.02"/><path class="cls-3" d="M27.42,33.47l6.8-6.05L17.6,12.3l-3.02-6.8L7.01,.96,1.72,7.01l3.78,8.32,4.54,1.51s4.54,3.02,5.29,3.02,12.1,13.61,12.1,13.61"/><path class="cls-6" d="M34.26,27.36c-.62,.6-1.2,1.17-1.81,1.77-.17-.16-.35-.33-.52-.5-5.23-5.23-10.48-10.46-15.69-15.71-.43-.44-.74-1.06-.93-1.65-.37-1.14-.59-2.33-.92-3.49-.08-.28-.3-.58-.54-.72-2.25-1.32-4.51-2.61-6.79-3.88-.18-.1-.57-.11-.69,.01-1.18,1.12-2.33,2.27-3.51,3.44,1.44,2.52,2.83,4.98,4.26,7.42,.12,.2,.43,.33,.67,.4,.72,.21,1.44,.45,2.18,.55,1.63,.21,2.81,1.08,3.94,2.24,4.83,4.92,9.74,9.78,14.62,14.65,.19,.19,.44,.33,.7,.53-.73,.67-1.33,1.22-2.12,1.94-.09-.15-.22-.44-.42-.66-5.08-5.1-10.17-10.19-15.28-15.27-.32-.31-.77-.56-1.2-.68-1.25-.37-2.54-.6-3.77-1-.48-.15-1.01-.51-1.26-.93C3.51,13.01,1.91,10.17,.3,7.33c-.48-.84-.4-1.32,.29-2.02C2.15,3.75,3.71,2.19,5.28,.63c.73-.73,1.17-.79,2.07-.27,2.79,1.59,5.57,3.19,8.36,4.77,.59,.33,.93,.79,1.07,1.45,.2,.93,.53,1.84,.67,2.77,.18,1.15,.77,1.98,1.59,2.79,4.91,4.85,9.77,9.74,14.65,14.62,.19,.19,.37,.39,.57,.6"/></g></g></svg>
