<?xml version="1.0" encoding="utf-8"?>
<!-- Generator: Adobe Illustrator 26.0.2, SVG Export Plug-In . SVG Version: 6.00 Build 0)  -->
<svg version="1.1" id="Layer_2_00000011014040794288091780000003774838161381791873_"
	 xmlns="http://www.w3.org/2000/svg" xmlns:xlink="http://www.w3.org/1999/xlink" x="0px" y="0px" viewBox="0 0 222.9 189"
	 style="enable-background:new 0 0 222.9 189;" xml:space="preserve">
<style type="text/css">
	.st0{clip-path:url(#SVGID_00000109722210593023215480000012008158033260639142_);}
	.st1{fill:#63C29C;}
	.st2{fill:#F37167;}
	.st3{fill:#1F376A;}
	.st4{fill:#231F20;}
	.st5{fill:#20376B;}
</style>
<g id="Layer_1-2">
	<g>
		<defs>
			<rect id="SVGID_1_" y="0" width="222.9" height="189"/>
		</defs>
		<clipPath id="SVGID_00000120558854677411373760000006701117042699008442_">
			<use xlink:href="#SVGID_1_"  style="overflow:visible;"/>
		</clipPath>
		<g style="clip-path:url(#SVGID_00000120558854677411373760000006701117042699008442_);">
			<path class="st1" d="M123.3,156.9c-1.2,1.8-1.6,3.2-1.7,3.6c-2.9,7.8,0,16.6,7.6,20.4c7.3,3.6,16.1,1.1,20.4-5.5
				c6.2-9.6,19-12.6,27.4-6.1c-8.2-8.1-16.1-13.6-20.9-15.8c-11.2-5.1-22.8-5-30.1,0.6C125.1,154.9,124,155.7,123.3,156.9"/>
			<path class="st2" d="M180.7,98.6c-5.8-11.7-22.6-11.8-28.5,0c0,0-10.2,20.6-13.7,27.6c0,0,2.8-5.6,15.6-5
				c3.6,0.2,12.9,0.2,12.9,0.2c5.7-0.3,9.5-2.7,12.8-6.7C186.3,106.8,180.7,98.6,180.7,98.6"/>
			<path class="st3" d="M211.2,160.4c-1-2.4-23.2-47.1-29.1-59c0.4,3,1.5,8.7-2.2,13.2c-3.3,4-7.1,6.3-12.8,6.7c0,0-9.3,0-12.9-0.2
				c-12.9-0.6-15.6,4.9-15.6,5c-5.9,12-12.2,24.6-15.1,30.7l0,0c6.8-8.2,20-9.2,32.9-3.4c4.7,2.1,12.4,7.5,20.6,15.5
				c0.2,0.2,4,3.6,6.4,6.3c6.5,7.2,13.1,9.2,20.4,5.5C211.2,177.1,214.4,168.1,211.2,160.4"/>
			<path class="st4" d="M147.5,80.2c-0.3-0.2-0.4-0.4-0.6-0.6c-2.9-2.9-5.8-5.8-8.7-8.7c-0.6-0.6-1.3-0.8-2.1-0.6
				c-0.8,0.2-1.2,0.8-1.3,1.6c-0.1,0.7,0.2,1.3,0.7,1.8c2.6,2.6,5.2,5.2,7.8,7.8c1.5,1.5,3,3,4.5,4.5c1.2,1.2,2.2,1.2,3.4,0
				c4.1-4.1,8.2-8.2,12.3-12.3c0.6-0.6,0.8-1.3,0.6-2.1c-0.2-0.8-0.8-1.2-1.6-1.3c-0.8-0.1-1.4,0.2-1.9,0.7
				c-2.8,2.8-5.7,5.7-8.5,8.5c-0.2,0.2-0.3,0.4-0.4,0.5c-0.1,0-0.1-0.1-0.2-0.1c0-0.2,0-0.4,0-0.7c-0.3-11-4-20.6-11.3-28.8
				c-6.5-7.3-14.7-12-24.3-14c-2.8-0.6-5.7-0.9-8.6-0.9c-1.4,0-2.3,0.8-2.3,2s0.9,2,2.3,2c18,0.2,33.7,12.2,38.6,29.5
				C147,72.7,147.5,76.3,147.5,80.2"/>
		</g>
	</g>
</g>
<path class="st5" d="M84.4,44c-6.4,11.6-14.2,32.5-15.2,35.2c-0.2-2.8-10.3-24.8-14.4-33c-4.1-8.2-13.3-25-17.5-33.5
	C36.4,10.9,35,5.5,35,5.5s-4.1,1.4-8.3,2.7c-0.4,0.3-0.9,0.6-1.4,0.8c-6.7,2.8-13.8,4.6-21,5.5c6.5,12.3,38.3,66.3,46.1,83.9
	c1.4,3.1,3.7,14.6,3.7,14.6c0.4-0.3,18.2-9.4,21.1-15c4-7.9,7.3-30.3,9.5-38.9c4.2-16.5,20.5-50.5,20.4-49.4
	C105.4,8.3,91.7,30.8,84.4,44z M21.5,34.5L31.4,22l2.9,5.1l-6.8,7.1l9.6-2l2.8,5l-15.9,1.7L21.5,34.5z M32.8,54.8l2.1-1.2
	c-1.2-0.2-2.2-0.6-3-1.1c-0.8-0.5-1.4-1.3-2-2.3c-0.8-1.4-1-2.6-0.6-3.9c0.4-1.2,1.4-2.3,3.1-3.2l8.2-4.6l2.8,5l-7.1,4
	C35.5,48,35,48.5,34.9,49c-0.2,0.5-0.1,1,0.2,1.5c0.3,0.6,0.8,0.9,1.5,1.1c0.6,0.1,1.6-0.2,2.8-0.8l6.2-3.5l2.8,4.9l-12.9,7.2
	L32.8,54.8z M37.1,62.6l17.8-9.9l2.8,5l-17.8,9.9L37.1,62.6z M60.4,76.3c-0.1,0.6-0.5,1.3-1,1.9c-0.5,0.6-1.1,1.1-1.7,1.4L52,82.8
	c-0.6,0.3-1.1,0.6-1.4,0.9s-0.6,0.7-1,1.2L47,80.3c0.2-0.4,0.4-0.6,0.6-0.8c0.1-0.2,0.4-0.4,0.7-0.6c-1-0.3-1.8-0.7-2.4-1.2
	c-0.8-0.7-1.6-1.6-2.2-2.8c-0.9-1.5-1.1-2.9-0.9-4.1c0.3-1.2,0.9-2.1,2-2.7c1-0.5,1.9-0.7,2.9-0.5c1,0.2,2,1,3.2,2.4
	c1.4,1.6,2.3,2.7,2.8,3.2c0.5,0.5,1,0.9,1.6,1.4c0.6-0.3,1-0.7,1.1-1.1c0.1-0.4,0-0.9-0.4-1.5c-0.5-0.8-0.9-1.3-1.4-1.6
	c-0.4-0.2-0.9-0.2-1.6-0.1l-2.1-5c0.9-0.3,1.7-0.4,2.4-0.3c0.6,0.1,1.3,0.3,2,0.8c0.5,0.3,1,0.8,1.6,1.5s1.1,1.5,1.6,2.4
	c0.8,1.5,1.4,2.7,1.7,3.7C60.5,74.5,60.6,75.4,60.4,76.3z"/>
<path class="st5" d="M50.8,72.8c-0.4-0.1-0.8-0.1-1.1,0.1c-0.4,0.2-0.6,0.5-0.7,0.9s0,0.9,0.3,1.4c0.3,0.6,0.7,1,1.3,1.3
	c0.5,0.3,1,0.5,1.5,0.5c0.5,0,1.1-0.2,1.7-0.5l0.8-0.4c-0.6-0.5-1.2-1.1-1.8-1.8C51.8,73.5,51.2,73,50.8,72.8z"/>
</svg>
